<svg xmlns="http://www.w3.org/2000/svg" width="640" height="1024"><path fill="#757575" d="M1580 482h166v97h-166v189h-103V579h-167v-97h167V304h103v178zm388-17h65c33 0 58-9 77-25 20-17 29-41 29-73 0-30-8-53-24-70s-40-25-72-25c-29 0-53 8-71 25a82 82 0 00-27 64h-107c0-33 9-63 26-89 18-27 42-48 73-63s66-23 104-23c64 0 114 16 150 48s55 77 55 133c0 29-10 56-28 81s-42 44-70 57c35 12 61 31 79 57 19 25 28 56 28 91 0 58-20 103-59 137s-91 51-155 51c-61 0-111-17-150-49s-59-76-59-131h106c0 28 10 51 28 69 19 17 45 26 77 26s58-9 77-26c19-18 29-43 29-76 0-34-10-60-30-78s-49-27-88-27h-63v-84zm806-102c0 31-8 59-25 84-16 24-37 43-65 57 33 15 59 36 76 63 19 27 28 57 28 91 0 56-19 101-57 134-38 32-89 49-152 49s-114-17-152-50-57-77-57-133c0-34 9-64 27-92 18-27 44-48 76-62a151 151 0 01-89-141c1-54 18-97 53-129s82-48 142-48 107 16 142 48 53 75 53 129zm-93 290c0-31-9-57-28-76-19-20-44-29-75-29s-55 9-74 28c-18 20-28 45-28 77 0 31 10 56 28 75s43 28 75 28 57-9 75-27 27-44 27-76zm-13-286c0-28-8-51-24-68a82 82 0 00-65-27c-27 0-49 8-64 25a98 98 0 00-24 70c0 29 8 52 24 69 16 18 37 26 64 26s49-8 65-25c16-18 24-41 24-70zm888 197c0 91-17 161-52 207-34 47-86 70-156 70-69 0-121-23-156-68-35-46-52-113-53-202V461c0-92 17-160 51-206s87-69 157-69 122 23 156 67c34 45 52 112 53 201v110zm-107-119c0-60-8-104-24-131-16-28-42-42-78-42-35 0-60 13-76 39-17 27-25 68-26 124v144c0 60 8 104 25 133 16 29 42 44 78 44 34 0 59-14 76-40 16-28 25-70 25-127V445zm520 121c-35 37-77 56-125 56-55 0-100-20-133-59-34-39-50-91-50-154 0-42 8-81 25-115a191 191 0 01181-108c64 0 115 24 153 72s56 112 56 192v30c0 115-26 202-78 263-52 60-129 91-232 92h-13v-88h15c63-1 111-16 145-45 33-30 52-75 56-136zm-102-27c21 0 41-6 60-18 18-13 33-30 43-51v-42c0-47-10-85-29-113-19-29-44-43-75-43s-55 13-73 38-27 57-27 95c0 40 9 73 27 97s43 37 74 37zm659-347v88h-13c-60 1-107 17-143 49s-57 77-64 135c35-36 78-54 131-54 57 0 101 20 133 60 33 39 49 91 49 153 0 65-19 118-57 158s-88 60-150 60c-63 0-115-24-155-71-39-47-59-108-59-184v-37c0-111 28-199 82-262s133-95 235-95h11zm-115 304a116 116 0 00-107 72v33c1 47 11 84 30 112 20 28 46 42 77 42s57-12 75-35c19-24 28-55 28-94s-9-69-28-94-44-36-75-36zm840 336h-106V321l-156 53v-90l248-91h14v639zm527 0h-106V321l-156 53v-90l249-91h13v639zm527 0h-106V321l-156 53v-90l249-91h13v639zm769 0h-106V321l-157 53v-90l249-91h14v639zm527 0h-106V321l-156 53v-90l248-91h14v639zm768 0h-106V321l-156 53v-90l248-91h14v639zm527 0h-106V321l-156 53v-90l249-91h13v639zM544 0H96C43 0 0 43 0 96v832c0 53 43 96 96 96h448c53 0 96-43 96-96V96c0-53-43-96-96-96zM96 64h448c18 0 32 14 32 32v672H64V96c0-18 14-32 32-32zm448 896H96c-18 0-32-14-32-32v-96h512v96c0 18-14 32-32 32z"/><path fill="#757575" d="M151 879c12 12 12 31 0 43a34 34 0 01-46 0 29 29 0 010-43c13-11 33-11 46 0z"/></svg>