<?xml version="1.0" encoding="UTF-8" standalone="no"?>
<!DOCTYPE svg PUBLIC "-//W3C//DTD SVG 1.1//EN" "http://www.w3.org/Graphics/SVG/1.1/DTD/svg11.dtd">
<svg version="1.1" xmlns="http://www.w3.org/2000/svg" xmlns:xlink="http://www.w3.org/1999/xlink" preserveAspectRatio="xMidYMid meet" viewBox="0 0 170 92" width="170" height="92"><defs><path d="M68.45 65.11C68.47 65.12 68.48 65.12 68.49 65.13C68.51 65.16 68.69 65.32 68.71 65.34C68.54 65.51 68.33 65.65 68.1 65.74C67.82 65.84 67.52 65.89 67.23 65.88C66.94 65.89 66.67 65.84 66.41 65.75C66.17 65.66 65.96 65.54 65.79 65.37C65.62 65.21 65.48 65.01 65.39 64.8C65.3 64.56 65.25 64.31 65.25 64.05C65.25 63.8 65.3 63.55 65.4 63.31C65.5 63.1 65.64 62.9 65.83 62.73C66.01 62.57 66.24 62.44 66.48 62.35C66.75 62.26 67.04 62.22 67.32 62.22C67.59 62.22 67.86 62.26 68.11 62.34C68.32 62.43 68.52 62.54 68.69 62.68C68.67 62.7 68.53 62.88 68.51 62.9C68.5 62.92 68.48 62.93 68.46 62.94C68.44 62.95 68.42 62.96 68.39 62.96C68.36 62.96 68.33 62.95 68.31 62.93C68.3 62.93 68.27 62.91 68.21 62.87C68.13 62.83 68.09 62.8 68.08 62.8C68.02 62.77 67.96 62.75 67.89 62.72C67.81 62.7 67.73 62.68 67.65 62.67C67.54 62.65 67.43 62.64 67.32 62.64C67.11 62.64 66.91 62.67 66.72 62.74C66.54 62.81 66.38 62.9 66.24 63.02C66.11 63.15 66 63.3 65.93 63.47C65.86 63.66 65.82 63.85 65.82 64.05C65.82 64.26 65.86 64.46 65.93 64.65C66 64.82 66.1 64.97 66.24 65.09C66.36 65.22 66.52 65.31 66.69 65.37C66.87 65.43 67.06 65.47 67.25 65.46C67.36 65.47 67.47 65.46 67.58 65.44C67.76 65.43 67.94 65.37 68.09 65.29C68.16 65.24 68.24 65.19 68.3 65.14C68.33 65.12 68.37 65.1 68.41 65.1C68.42 65.1 68.44 65.1 68.45 65.11Z" id="a1V1XmcVPP"></path><path d="M74.56 64.79C74.47 65 74.33 65.2 74.15 65.36C73.96 65.53 73.75 65.65 73.5 65.74C72.97 65.91 72.38 65.91 71.84 65.74C71.6 65.65 71.38 65.52 71.2 65.36C71.02 65.19 70.88 65 70.79 64.78C70.59 64.31 70.59 63.79 70.79 63.31C70.88 63.09 71.02 62.9 71.2 62.73C71.39 62.57 71.6 62.45 71.84 62.37C72.38 62.19 72.97 62.19 73.5 62.37C73.74 62.45 73.96 62.58 74.14 62.74C74.32 62.91 74.46 63.1 74.56 63.31C74.66 63.55 74.71 63.8 74.7 64.05C74.71 64.31 74.66 64.56 74.56 64.79ZM74.03 63.46C73.97 63.3 73.87 63.15 73.74 63.02C73.61 62.9 73.45 62.8 73.28 62.74C72.89 62.61 72.46 62.61 72.07 62.74C71.89 62.8 71.74 62.9 71.61 63.02C71.48 63.15 71.38 63.3 71.32 63.46C71.18 63.85 71.18 64.26 71.32 64.65C71.38 64.81 71.48 64.96 71.61 65.09C71.74 65.21 71.89 65.31 72.07 65.37C72.46 65.49 72.89 65.49 73.28 65.37C73.45 65.31 73.61 65.21 73.74 65.09C73.87 64.96 73.97 64.81 74.03 64.65C74.1 64.46 74.14 64.26 74.13 64.05C74.14 63.85 74.1 63.65 74.03 63.46Z" id="c1Km7OIIAp"></path><path d="M79.06 64.81C79.08 64.76 79.1 64.72 79.12 64.68C79.14 64.63 79.17 64.59 79.19 64.54C79.33 64.32 80.45 62.56 80.58 62.34C80.61 62.31 80.64 62.28 80.66 62.28C80.7 62.26 80.74 62.26 80.78 62.26C80.81 62.26 80.94 62.26 81.19 62.26L81.19 65.84L80.7 65.84C80.7 64.26 80.7 63.39 80.7 63.21C80.7 63.18 80.7 63.14 80.7 63.1C80.7 63.06 80.7 63.02 80.7 62.98C80.56 63.2 79.44 64.98 79.3 65.21C79.28 65.24 79.26 65.27 79.22 65.29C79.18 65.31 79.14 65.32 79.1 65.32C79.09 65.32 79.03 65.32 79.02 65.32C78.98 65.32 78.94 65.31 78.9 65.29C78.87 65.27 78.84 65.24 78.82 65.21C78.67 64.98 77.52 63.19 77.38 62.96C77.38 63.01 77.38 63.05 77.38 63.09C77.38 63.13 77.38 63.17 77.38 63.2C77.38 63.38 77.38 64.26 77.38 65.84L76.9 65.84L76.9 62.26C77.15 62.26 77.29 62.26 77.32 62.26C77.36 62.26 77.39 62.26 77.43 62.28C77.46 62.29 77.49 62.31 77.51 62.34C77.65 62.56 78.79 64.33 78.93 64.55C78.96 64.59 78.98 64.63 79 64.68C79.01 64.7 79.05 64.79 79.06 64.81Z" id="etoksa9nL"></path><path d="M84.24 65.84L83.7 65.84L83.7 62.26C84.43 62.26 84.83 62.26 84.92 62.26C85.14 62.26 85.37 62.29 85.59 62.34C85.77 62.38 85.93 62.46 86.07 62.56C86.2 62.66 86.29 62.78 86.35 62.91C86.41 63.06 86.44 63.22 86.44 63.37C86.44 63.53 86.41 63.68 86.34 63.83C86.27 63.97 86.17 64.09 86.04 64.19C85.9 64.29 85.74 64.38 85.56 64.42C85.35 64.48 85.13 64.51 84.9 64.51C84.86 64.51 84.64 64.5 84.24 64.5L84.24 65.84ZM84.9 64.11C85.05 64.12 85.19 64.1 85.33 64.06C85.44 64.03 85.54 63.97 85.63 63.91C85.71 63.84 85.78 63.76 85.82 63.67C85.86 63.57 85.88 63.47 85.88 63.37C85.89 63.27 85.87 63.17 85.83 63.08C85.79 62.98 85.72 62.9 85.64 62.83C85.43 62.69 85.17 62.62 84.9 62.64C84.86 62.64 84.64 62.64 84.24 62.64L84.24 64.11C84.64 64.11 84.86 64.11 84.9 64.11Z" id="b6cw6ZR5"></path><path d="M91.14 65.84C91.1 65.84 91.06 65.83 91.02 65.81C90.99 65.79 90.97 65.76 90.95 65.73C90.93 65.67 90.8 65.38 90.58 64.86L88.72 64.86C88.49 65.38 88.36 65.67 88.33 65.73C88.32 65.76 88.3 65.79 88.27 65.81C88.23 65.83 88.19 65.84 88.14 65.84C88.11 65.84 87.97 65.84 87.71 65.84L89.35 62.26L89.92 62.26L91.57 65.84C91.31 65.84 91.17 65.84 91.14 65.84ZM90.41 64.51C90.02 63.64 89.81 63.15 89.76 63.06C89.71 62.95 89.67 62.83 89.64 62.72C89.63 62.74 89.58 62.89 89.58 62.91C89.56 62.96 89.54 63.02 89.52 63.06C89.47 63.16 89.26 63.64 88.87 64.51L90.41 64.51Z" id="adnvnT0Uw"></path><path d="M94.01 62.34C94.25 62.61 96.16 64.77 96.4 65.04C96.4 65 96.4 64.96 96.4 64.92C96.4 64.88 96.4 64.84 96.4 64.8C96.4 64.63 96.4 63.78 96.4 62.26L96.88 62.26L96.88 65.84C96.72 65.84 96.63 65.84 96.61 65.84C96.57 65.84 96.53 65.84 96.5 65.82C96.47 65.8 96.44 65.78 96.41 65.76C96.17 65.49 94.27 63.33 94.03 63.06C94.03 63.1 94.03 63.14 94.03 63.18C94.03 63.22 94.03 63.26 94.03 63.29C94.03 63.46 94.03 64.31 94.03 65.84L93.54 65.84L93.54 62.26C93.72 62.26 93.81 62.26 93.83 62.26C93.86 62.26 93.9 62.27 93.93 62.28C93.96 62.29 93.99 62.32 94.01 62.34Z" id="a2ZkS3iTtl"></path><path d="M100.9 65.84L100.36 65.84L100.36 64.42L98.85 62.26C99.14 62.26 99.31 62.26 99.34 62.26C99.38 62.26 99.42 62.27 99.45 62.29C99.49 62.32 99.51 62.34 99.53 62.37C99.62 62.51 100.38 63.63 100.47 63.76C100.51 63.82 100.54 63.88 100.57 63.93C100.6 63.98 100.62 64.03 100.64 64.08C100.65 64.07 100.7 63.94 100.71 63.93C100.74 63.87 100.77 63.82 100.8 63.76C100.9 63.63 101.64 62.51 101.73 62.37C101.75 62.34 101.77 62.31 101.8 62.29C101.83 62.26 101.88 62.25 101.92 62.25C101.95 62.25 102.12 62.25 102.41 62.25L100.9 64.42L100.9 65.84Z" id="e4ljgnyJFl"></path><path d="M79.45 56.32C83.13 54.89 86.24 52.55 88.4 49.59C90.56 46.64 91.66 43.19 91.58 39.69C91.17 39.34 87.93 36.52 87.52 36.17C88.35 39.9 87.96 43.75 86.41 47.3C84.86 50.84 82.2 53.95 78.73 56.26C78.97 56.28 79.21 56.3 79.45 56.32Z" id="cIfT5ioJN"></path><path d="M77.39 56.11C81.1 53.81 83.92 50.6 85.5 46.88C87.08 43.17 87.34 39.13 86.25 35.29C85.67 34.79 81.05 30.78 80.47 30.28C82.81 34.4 83.75 39.02 83.19 43.59C82.62 48.16 80.57 52.49 77.28 56.09C77.31 56.1 77.38 56.11 77.39 56.11Z" id="a1cODTYQfe"></path><path d="M90.07 53.72C89.07 54.48 87.99 55.15 86.85 55.73C89.64 55.02 92.21 53.76 94.35 52.05C96.49 50.33 98.16 48.22 99.21 45.86C99.05 45.72 98.27 45.05 96.87 43.83C94.63 48.7 92.36 52 90.07 53.72Z" id="c2i10GdXi"></path><path d="M92.62 40.36C92.55 43.67 91.47 46.89 89.49 49.71C87.5 52.53 84.68 54.83 81.32 56.38C81.33 56.38 81.34 56.38 81.34 56.38C82.09 56.38 82.84 56.35 83.58 56.27C86.72 55.16 89.49 53.38 91.65 51.12C93.81 48.85 95.28 46.15 95.95 43.26C95.28 42.68 92.95 40.65 92.62 40.36Z" id="a6C2iyPTc"></path><path d="M73.79 24.7C70.23 25.89 67.17 27.99 65.01 30.72C62.85 33.45 61.69 36.68 61.68 40C61.68 40 61.68 40 61.68 40C61.69 43.66 63.11 47.21 65.71 50.09C68.31 52.97 71.94 55.02 76.02 55.9C79.67 52.04 81.81 47.27 82.12 42.28C82.44 37.29 80.91 32.35 77.77 28.16C76.97 27.47 74.19 25.05 73.79 24.7Z" id="aOkxeTyjD"></path><path d="M99.6 31.15C96.07 28.08 91.28 26.35 86.28 26.34C83.97 26.34 81.68 26.71 79.52 27.43C81.96 29.55 101.44 46.48 103.88 48.59C104.71 46.72 105.14 44.73 105.14 42.73C105.13 38.38 103.13 34.22 99.6 31.15Z" id="awHPiYPF0"></path><path d="M172 140.5C174.33 140.5 175.5 141.67 175.5 144C175.5 194.4 175.5 222.4 175.5 228C175.5 230.33 174.33 231.5 172 231.5C74.8 231.5 20.8 231.5 10 231.5C7.67 231.5 6.5 230.33 6.5 228C6.5 177.6 6.5 149.6 6.5 144C6.5 141.67 7.67 140.5 10 140.5C107.2 140.5 161.2 140.5 172 140.5Z" id="b3GRSkpBkL"></path><path d="M62.14 177.1C59.74 177.1 57.8 178.83 57.8 180.96C57.8 180.96 57.8 180.96 57.8 180.96C57.8 183.1 59.74 184.82 62.14 184.82C62.14 184.82 62.15 184.82 62.15 184.82C64.54 184.82 66.49 183.1 66.49 180.96C66.49 180.96 66.49 180.96 66.49 180.96C66.49 178.83 64.54 177.1 62.15 177.1C62.15 177.1 62.14 177.1 62.14 177.1Z" id="a1ThAajoL1"></path><path d="M90.51 167.98C88.15 165.89 84.96 164.71 81.63 164.7C81.63 164.7 81.63 164.7 81.63 164.7C78.3 164.71 75.1 165.88 72.75 167.98C70.39 170.07 69.07 172.91 69.06 175.87C69.06 177.5 69.06 190.56 69.06 192.19C69.06 192.19 94.19 189.7 94.19 175.87C94.19 175.87 94.19 175.87 94.19 175.87C93.31 172 92.08 169.37 90.51 167.98Z" id="b31yZ9sKnR"></path><path d="M51.57 203.04C53.21 204.5 55.43 205.32 57.74 205.32C60.06 205.32 62.28 204.5 63.92 203.04C65.56 201.58 66.48 199.61 66.49 197.55C66.49 196.42 66.49 187.33 66.49 186.19C66.49 186.19 49 187.93 49 197.55C49.01 199.61 49.93 201.58 51.57 203.04ZM56.47 199.24C56.09 199.02 55.8 198.7 55.63 198.33C55.45 197.96 55.41 197.55 55.5 197.15C55.59 196.76 55.8 196.4 56.12 196.11C56.44 195.83 56.85 195.63 57.3 195.55C57.74 195.48 58.2 195.52 58.62 195.67C59.04 195.82 59.4 196.08 59.65 196.42C59.9 196.75 60.03 197.15 60.03 197.55C60.03 197.82 59.98 198.08 59.86 198.33C59.75 198.58 59.58 198.8 59.37 198.99C59.15 199.18 58.9 199.33 58.62 199.44C58.34 199.54 58.05 199.59 57.74 199.59C57.74 199.59 57.74 199.59 57.74 199.58C57.15 199.5 56.72 199.39 56.47 199.24Z" id="f21TzMBsCp"></path><path d="M73.73 198.46L73.73 200.21L72.85 200.21L72.85 195.94L75.63 195.94L75.63 196.65L73.73 196.65L73.73 197.76L75.42 197.76L75.42 198.46L73.73 198.46ZM79.42 199.28C79.27 199.59 79.06 199.84 78.78 200.01C78.51 200.18 78.19 200.27 77.83 200.27C77.48 200.27 77.16 200.18 76.88 200.01C76.61 199.84 76.39 199.6 76.24 199.28C76.09 198.97 76.01 198.6 76.01 198.19C76.01 198.17 76.01 198 76.01 197.98C76.01 197.56 76.08 197.19 76.23 196.88C76.39 196.56 76.6 196.31 76.88 196.14C77.15 195.97 77.47 195.88 77.83 195.88C78.18 195.88 78.5 195.97 78.77 196.14C79.05 196.31 79.26 196.56 79.41 196.88C79.57 197.19 79.64 197.56 79.64 197.98C79.64 197.99 79.64 198.06 79.64 198.17C79.59 198.7 79.52 199.06 79.42 199.28ZM78.51 196.96C78.35 196.73 78.12 196.61 77.83 196.61C77.53 196.61 77.3 196.72 77.14 196.96C76.98 197.18 76.9 197.52 76.9 197.96C76.9 197.98 76.9 198.15 76.9 198.17C76.9 198.61 76.98 198.94 77.14 199.18C77.3 199.43 77.53 199.55 77.83 199.55C78.13 199.55 78.35 199.43 78.51 199.2C78.67 198.97 78.75 198.63 78.75 198.19C78.75 198.17 78.75 198.1 78.75 197.98C78.7 197.45 78.62 197.11 78.51 196.96ZM82.32 198.71C82.2 198.62 81.99 198.52 81.68 198.43C81.38 198.33 81.14 198.23 80.96 198.13C80.48 197.87 80.23 197.52 80.23 197.08C80.23 196.85 80.3 196.64 80.43 196.46C80.56 196.28 80.74 196.14 80.99 196.04C81.23 195.93 81.5 195.88 81.81 195.88C82.11 195.88 82.38 195.94 82.62 196.05C82.86 196.16 83.04 196.31 83.17 196.52C83.31 196.72 83.37 196.95 83.37 197.2C83.29 197.2 82.58 197.2 82.5 197.2C82.5 197.01 82.43 196.85 82.31 196.75C82.19 196.64 82.01 196.58 81.79 196.58C81.58 196.58 81.41 196.63 81.29 196.72C81.17 196.81 81.11 196.93 81.11 197.08C81.11 197.22 81.18 197.33 81.32 197.43C81.46 197.52 81.67 197.61 81.94 197.69C82.44 197.84 82.8 198.03 83.03 198.25C83.26 198.47 83.37 198.75 83.37 199.08C83.37 199.45 83.23 199.74 82.96 199.95C82.68 200.16 82.3 200.27 81.83 200.27C81.5 200.27 81.2 200.21 80.93 200.09C80.66 199.97 80.46 199.8 80.31 199.59C80.17 199.38 80.1 199.14 80.1 198.87C80.19 198.87 80.9 198.87 80.98 198.87C80.98 199.34 81.26 199.57 81.83 199.57C82.04 199.57 82.2 199.53 82.32 199.45C82.43 199.36 82.49 199.24 82.49 199.09C82.49 198.92 82.43 198.8 82.32 198.71ZM85.88 196.65L85.88 200.21L85 200.21L85 196.65L83.71 196.65L83.71 195.94L87.18 195.94L87.18 196.65L85.88 196.65ZM88.57 198.36L88.57 199.5L90.55 199.5L90.55 200.21L87.69 200.21L87.69 195.94L90.54 195.94L90.54 196.65L88.57 196.65L88.57 197.67L90.25 197.67L90.25 198.36L88.57 198.36ZM91.94 198.65L91.94 200.21L91.06 200.21L91.06 195.94C92.01 195.94 92.54 195.94 92.65 195.94C93.15 195.94 93.54 196.05 93.81 196.28C94.09 196.5 94.22 196.82 94.22 197.23C94.22 197.52 94.16 197.77 94.03 197.96C93.91 198.15 93.72 198.31 93.46 198.42C93.52 198.54 93.83 199.12 94.38 200.17L94.38 200.21L93.44 200.21L92.64 198.65L91.94 198.65ZM92.65 197.93C92.87 197.93 93.04 197.88 93.16 197.77C93.28 197.65 93.34 197.5 93.34 197.3C93.34 197.1 93.29 196.94 93.17 196.83C93.06 196.71 92.88 196.65 92.65 196.65C92.6 196.65 92.36 196.65 91.94 196.65L91.94 197.93C92.37 197.93 92.6 197.93 92.65 197.93ZM97.27 200.21L96.39 200.21L96.39 195.94C97.39 195.94 97.94 195.94 98.05 195.94C98.37 195.94 98.65 196 98.9 196.12C99.14 196.23 99.33 196.4 99.46 196.62C99.59 196.83 99.65 197.08 99.65 197.35C99.65 197.77 99.51 198.1 99.22 198.34C98.94 198.58 98.54 198.7 98.04 198.7C97.99 198.7 97.73 198.7 97.27 198.7L97.27 200.21ZM98.05 197.99C98.28 197.99 98.46 197.94 98.58 197.83C98.71 197.72 98.77 197.56 98.77 197.36C98.77 197.15 98.71 196.98 98.58 196.85C98.46 196.72 98.29 196.66 98.07 196.65C98.02 196.65 97.75 196.65 97.27 196.65L97.27 197.99C97.74 197.99 98 197.99 98.05 197.99ZM101.14 198.36L101.14 199.5L103.12 199.5L103.12 200.21L100.26 200.21L100.26 195.94L103.11 195.94L103.11 196.65L101.14 196.65L101.14 197.67L102.83 197.67L102.83 198.36L101.14 198.36ZM105.6 196.65L105.6 200.21L104.72 200.21L104.72 196.65L103.43 196.65L103.43 195.94L106.91 195.94L106.91 196.65L105.6 196.65ZM108.29 198.36L108.29 199.5L110.27 199.5L110.27 200.21L107.41 200.21L107.41 195.94L110.26 195.94L110.26 196.65L108.29 196.65L108.29 197.67L109.98 197.67L109.98 198.36L108.29 198.36ZM111.66 198.65L111.66 200.21L110.78 200.21L110.78 195.94C111.74 195.94 112.26 195.94 112.37 195.94C112.87 195.94 113.26 196.05 113.54 196.28C113.81 196.5 113.95 196.82 113.95 197.23C113.95 197.52 113.88 197.77 113.76 197.96C113.63 198.15 113.44 198.31 113.18 198.42C113.25 198.54 113.55 199.12 114.11 200.17L114.11 200.21L113.16 200.21L112.36 198.65L111.66 198.65ZM112.37 197.93C112.59 197.93 112.76 197.88 112.88 197.77C113.01 197.65 113.07 197.5 113.07 197.3C113.07 197.1 113.01 196.94 112.89 196.83C112.78 196.71 112.61 196.65 112.37 196.65C112.32 196.65 112.09 196.65 111.66 196.65L111.66 197.93C112.09 197.93 112.33 197.93 112.37 197.93ZM116.65 198.71C116.54 198.62 116.32 198.52 116.02 198.43C115.72 198.33 115.47 198.23 115.3 198.13C114.81 197.87 114.57 197.52 114.57 197.08C114.57 196.85 114.63 196.64 114.76 196.46C114.89 196.28 115.08 196.14 115.32 196.04C115.57 195.93 115.84 195.88 116.14 195.88C116.45 195.88 116.72 195.94 116.96 196.05C117.2 196.16 117.38 196.31 117.51 196.52C117.64 196.72 117.71 196.95 117.71 197.2C117.62 197.2 116.92 197.2 116.83 197.2C116.83 197.01 116.77 196.85 116.65 196.75C116.52 196.64 116.35 196.58 116.13 196.58C115.91 196.58 115.75 196.63 115.63 196.72C115.51 196.81 115.45 196.93 115.45 197.08C115.45 197.22 115.52 197.33 115.66 197.43C115.8 197.52 116 197.61 116.27 197.69C116.77 197.84 117.14 198.03 117.37 198.25C117.6 198.47 117.71 198.75 117.71 199.08C117.71 199.45 117.57 199.74 117.29 199.95C117.01 200.16 116.64 200.27 116.16 200.27C115.84 200.27 115.54 200.21 115.27 200.09C115 199.97 114.79 199.8 114.65 199.59C114.51 199.38 114.44 199.14 114.44 198.87C114.53 198.87 115.23 198.87 115.32 198.87C115.32 199.34 115.6 199.57 116.16 199.57C116.37 199.57 116.54 199.53 116.65 199.45C116.77 199.36 116.83 199.24 116.83 199.09C116.83 198.92 116.77 198.8 116.65 198.71Z" id="bKuiTtAe"></path><path d="M372 140.5C374.33 140.5 375.5 141.67 375.5 144C375.5 194.4 375.5 222.4 375.5 228C375.5 230.33 374.33 231.5 372 231.5C274.8 231.5 220.8 231.5 210 231.5C207.67 231.5 206.5 230.33 206.5 228C206.5 177.6 206.5 149.6 206.5 144C206.5 141.67 207.67 140.5 210 140.5C307.2 140.5 361.2 140.5 372 140.5Z" id="ej0hHa5hZ"></path><path d="M265.12 201.71C265.14 201.94 265.09 202.18 264.99 202.39C264.89 202.6 264.74 202.79 264.55 202.95C264.08 203.27 263.5 203.43 262.9 203.4C262.71 203.4 261.74 203.4 260 203.4L260 197.21C261.71 197.21 262.65 197.21 262.84 197.21C263.41 197.17 263.96 197.32 264.42 197.62C264.6 197.76 264.75 197.94 264.84 198.14C264.94 198.34 264.98 198.56 264.97 198.78C264.99 199.12 264.87 199.45 264.64 199.72C264.42 199.97 264.12 200.14 263.78 200.21C264.16 200.27 264.51 200.46 264.76 200.74C265 201.01 265.13 201.36 265.12 201.71ZM262.57 199.8C262.84 199.82 263.12 199.75 263.34 199.6C263.43 199.52 263.5 199.43 263.55 199.32C263.59 199.22 263.61 199.1 263.6 198.99C263.61 198.88 263.59 198.77 263.55 198.66C263.5 198.56 263.43 198.46 263.34 198.39C263.11 198.23 262.83 198.16 262.55 198.18C262.47 198.18 262.07 198.18 261.35 198.18L261.35 199.8C262.08 199.8 262.49 199.8 262.57 199.8ZM263.68 201.89C263.73 201.78 263.75 201.66 263.75 201.55C263.75 201.43 263.73 201.31 263.68 201.2C263.63 201.09 263.55 200.99 263.45 200.91C263.21 200.75 262.92 200.67 262.63 200.69C262.54 200.69 262.12 200.69 261.35 200.69L261.35 202.39C262.13 202.39 262.56 202.39 262.64 202.39C262.93 202.41 263.22 202.33 263.46 202.18C263.56 202.1 263.63 202 263.68 201.89Z" id="m2GNSCweTh"></path><path d="M268.99 200.98L268.39 200.98L268.39 203.4L267.03 203.4L267.03 197.21C268.58 197.21 269.44 197.21 269.61 197.21C270.26 197.16 270.9 197.35 271.4 197.73C271.76 198.07 271.98 198.51 272.02 198.98C272.05 199.45 271.9 199.92 271.59 200.29C271.28 200.63 270.84 200.85 270.37 200.92C270.48 201.09 271.04 201.91 272.05 203.4L270.57 203.4L268.99 200.98ZM269.51 200.13C270.28 200.13 270.67 199.82 270.67 199.2C270.67 199.07 270.65 198.94 270.6 198.82C270.56 198.7 270.48 198.59 270.38 198.5C270.14 198.31 269.82 198.22 269.51 198.25C269.43 198.25 269.06 198.25 268.38 198.25L268.39 200.13C269.06 200.13 269.43 200.13 269.51 200.13Z" id="a5U6Sbylom"></path><path d="M275.3 202.15L274.82 203.4L273.39 203.4L275.88 197.28L277.42 197.28L279.91 203.4L278.48 203.4L278.01 202.15L275.3 202.15ZM276.66 198.6L275.66 201.21L277.65 201.21L276.66 198.6Z" id="b9PXmHWpS"></path><path d="M285.97 203.4L282.94 199.19L282.94 203.4L281.59 203.4L281.59 197.21L282.94 197.21L285.97 201.44L285.97 197.21L287.32 197.21L287.32 203.4L285.97 203.4Z" id="aWfnP4HA"></path><path d="M293.81 203.01C293.22 203.28 292.57 203.41 291.91 203.4C291.75 203.4 290.95 203.4 289.51 203.4L289.51 197.21C290.95 197.21 291.75 197.21 291.91 197.21C292.57 197.19 293.22 197.32 293.81 197.59C294.33 197.83 294.75 198.2 295.03 198.67C295.31 199.17 295.46 199.73 295.46 200.29C295.46 200.86 295.31 201.41 295.03 201.92C294.75 202.38 294.33 202.76 293.81 203.01ZM294.08 200.29C294.08 199.75 293.87 199.22 293.49 198.81C293.02 198.44 292.41 198.25 291.79 198.29C291.73 198.29 291.42 198.29 290.86 198.29L290.86 202.29C291.42 202.29 291.73 202.29 291.79 202.29C292.41 202.33 293.02 202.14 293.49 201.77C293.87 201.36 294.08 200.83 294.08 200.29Z" id="b5LP7wOAA"></path><path d="M295.92 177.52C295.92 178.99 295.92 190.8 295.92 192.27C295.92 192.27 278.5 186.24 278.86 177.52C278.86 176.53 278.86 171.62 278.86 162.77C290.48 166.79 296.17 171.7 295.92 177.52Z" id="a1C8QwgDDX"></path><path d="M322.54 185.08C322.54 184.62 322.54 180.92 322.54 180.46C317.96 182.08 314.07 185.01 311.46 188.82C314.75 186.74 318.56 185.46 322.54 185.08Z" id="ehMZ8Idof"></path><path d="M322.54 179.49C322.54 178.16 322.54 167.52 322.54 166.19C322.54 166.19 297.7 174.77 298.23 187.19C298.23 189.29 298.23 206.1 298.23 208.2C298.23 208.2 299.34 207.82 301.08 207.1C301.08 206.43 301.08 205.75 301.16 205.07C301.67 199.3 304.66 193.96 309.48 190.21C312.18 185.24 316.85 181.41 322.54 179.49Z" id="aaY5PNOJa"></path><path d="M307.99 193.71C304.99 196.95 303.17 200.96 302.8 205.19C302.76 205.59 302.74 205.99 302.73 206.4C304.14 205.78 305.78 205.01 307.51 204.1C307.07 202.1 306.94 200.05 307.12 198.01C307.25 196.56 307.54 195.12 307.99 193.71Z" id="cmnLOjS9X"></path><path d="M308.41 203.6C315.2 199.88 322.82 194.14 322.53 187.19C322.53 187.13 322.53 186.65 322.53 186.59C317.68 187.09 313.15 189.03 309.62 192.11C308.79 194.02 308.28 196.04 308.11 198.09C307.94 199.93 308.04 201.78 308.41 203.6Z" id="d5pftXGUDD"></path><path d="M572 140.5C574.33 140.5 575.5 141.67 575.5 144C575.5 194.4 575.5 222.4 575.5 228C575.5 230.33 574.33 231.5 572 231.5C474.8 231.5 420.8 231.5 410 231.5C407.67 231.5 406.5 230.33 406.5 228C406.5 177.6 406.5 149.6 406.5 144C406.5 141.67 407.67 140.5 410 140.5C507.2 140.5 561.2 140.5 572 140.5Z" id="c17u0ZYEFL"></path><path d="M490.82 181.42C490.82 181.13 490.82 178.82 490.82 178.54C490.82 177.65 491.02 176.98 491.42 176.52C491.82 176.06 492.51 175.83 493.49 175.84C494.4 175.84 495.06 176.03 495.44 176.42C495.86 176.92 496.06 177.53 496.02 178.15C496.02 178.19 496.02 178.42 496.02 178.82L494.38 178.82C494.38 178.41 494.38 178.18 494.38 178.14C494.38 177.91 494.37 177.69 494.33 177.47C494.31 177.31 494.22 177.17 494.1 177.07C493.93 176.95 493.71 176.9 493.5 176.91C493.28 176.9 493.05 176.96 492.88 177.08C492.73 177.19 492.64 177.35 492.6 177.52C492.56 177.75 492.54 177.99 492.54 178.23C492.54 178.58 492.54 181.38 492.54 181.73C492.51 182.07 492.59 182.4 492.75 182.71C492.83 182.81 492.94 182.9 493.08 182.95C493.21 183 493.36 183.02 493.5 183C493.71 183.02 493.92 182.96 494.08 182.85C494.22 182.73 494.3 182.58 494.33 182.42C494.36 182.19 494.38 181.95 494.38 181.72C494.38 181.67 494.38 181.44 494.38 181.01L496.02 181.01C496.02 181.4 496.02 181.61 496.02 181.66C496.06 182.3 495.86 182.94 495.45 183.47C495.07 183.9 494.43 184.11 493.49 184.11C492.54 184.11 491.83 183.88 491.42 183.41C490.98 182.82 490.77 182.12 490.82 181.42Z" id="a12aGesM6f"></path><path d="M497.64 181.47C497.64 181.17 497.64 178.74 497.64 178.44C497.64 177.58 497.84 176.93 498.26 176.49C498.67 176.05 499.36 175.83 500.34 175.84C501.3 175.84 501.99 176.05 502.4 176.49C502.82 176.93 503.03 177.58 503.03 178.44C503.03 178.74 503.03 181.17 503.03 181.47C503.03 182.33 502.82 182.98 502.4 183.44C501.98 183.89 501.29 184.11 500.34 184.11C499.38 184.11 498.67 183.88 498.26 183.44C497.84 182.99 497.64 182.34 497.64 181.47ZM501.3 181.81C501.3 181.44 501.3 178.47 501.3 178.1C501.32 177.8 501.25 177.5 501.1 177.22C501.02 177.11 500.9 177.03 500.77 176.98C500.63 176.93 500.48 176.91 500.34 176.93C500.19 176.91 500.04 176.93 499.9 176.98C499.77 177.03 499.65 177.11 499.56 177.22C499.42 177.49 499.35 177.8 499.37 178.1C499.37 178.47 499.37 181.46 499.37 181.83C499.35 182.14 499.41 182.45 499.56 182.73C499.66 182.82 499.78 182.9 499.91 182.95C500.04 183 500.19 183.03 500.33 183.03C500.48 183.03 500.62 183 500.75 182.95C500.89 182.9 501 182.82 501.1 182.73C501.1 182.73 501.1 182.72 501.1 182.71C501.25 182.32 501.31 182.02 501.3 181.81Z" id="azvhq1t9T"></path><path d="M506.77 175.92L508.1 181.52L509.46 175.92L511.18 175.92L511.35 184L510.08 184L509.94 178.39L508.63 184L507.61 184L506.25 178.37L506.13 184L504.84 184L505 175.92L506.77 175.92Z" id="c4NMXiUBfP"></path><path d="M516.08 175.92C517.67 175.92 518.46 176.69 518.46 178.22C518.46 179.68 517.63 180.41 515.96 180.41C515.9 180.41 515.58 180.41 515.02 180.41L515.02 184L513.32 184L513.33 175.92C514.98 175.92 515.9 175.92 516.08 175.92ZM516.18 179.34C516.34 179.29 516.49 179.22 516.62 179.12C516.81 178.85 516.9 178.53 516.86 178.21C516.87 177.96 516.84 177.72 516.78 177.48C516.75 177.4 516.71 177.32 516.65 177.25C516.59 177.19 516.52 177.13 516.44 177.09C516.2 176.99 515.94 176.95 515.68 176.96C515.64 176.96 515.42 176.96 515.02 176.96L515.02 179.38L515.68 179.38C515.91 179.38 516.07 179.37 516.18 179.34Z" id="b1Q6YwOmn"></path><path d="M522.73 175.92L524.61 184L523.02 184L522.65 182.14L521.02 182.14L520.64 184L519.04 184L520.91 175.92L522.73 175.92ZM521.83 177.81L521.2 181.2L522.47 181.2L521.83 177.81Z" id="cxcr2Qc6"></path><path d="M527.31 175.92L529.58 180.53L529.58 175.92L530.99 175.92L530.99 184L529.86 184L527.57 179.19L527.57 184L526.11 184L526.12 175.92L527.31 175.92Z" id="brVdO4ufP"></path><path d="M532.4 175.94L534 175.94L535.15 179.14L536.23 175.94L537.79 175.94L535.93 180.92L535.93 184L534.29 184L534.29 180.92L532.4 175.94Z" id="a1390OthON"></path><path d="M494.05 187.95L492.66 187.95L492.66 191.24L492.08 191.24L492.08 187.95L490.69 187.95L490.69 187.53L494.05 187.53L494.05 187.95Z" id="e2nDvoGcO"></path><path d="M497.94 191.24C497.9 191.24 497.85 191.23 497.82 191.2C497.78 191.18 497.76 191.15 497.74 191.12C497.71 191.06 497.58 190.76 497.34 190.24L495.42 190.24C495.18 190.76 495.05 191.06 495.02 191.12C495.01 191.15 494.99 191.19 494.96 191.22C494.92 191.24 494.88 191.25 494.83 191.25C494.8 191.25 494.65 191.25 494.38 191.25L496.08 187.55L496.67 187.55L498.39 191.24C498.12 191.24 497.97 191.24 497.94 191.24ZM497.18 189.86C496.77 188.96 496.55 188.45 496.5 188.35C496.45 188.24 496.41 188.12 496.38 188C496.35 188.08 496.33 188.14 496.31 188.2C496.31 188.21 496.29 188.26 496.25 188.36L495.58 189.86L497.18 189.86Z" id="aftb8aI0l"></path><path d="M501.64 190.87C501.73 190.86 501.82 190.85 501.91 190.83C502 190.81 502.08 190.79 502.16 190.76C502.23 190.73 502.31 190.7 502.38 190.67C502.38 190.61 502.38 190.34 502.38 189.84C501.97 189.84 501.75 189.84 501.7 189.84C501.69 189.84 501.67 189.84 501.66 189.83C501.64 189.83 501.63 189.82 501.61 189.81C501.6 189.8 501.59 189.79 501.59 189.78C501.58 189.77 501.58 189.75 501.58 189.74C501.58 189.72 501.58 189.63 501.58 189.46L502.9 189.46C502.9 190.31 502.9 190.78 502.9 190.88C502.79 190.94 502.68 191 502.56 191.05C502.44 191.1 502.31 191.15 502.18 191.18C502.04 191.21 501.9 191.24 501.76 191.25C501.59 191.27 501.43 191.28 501.26 191.28C500.97 191.28 500.68 191.23 500.4 191.14C500.15 191.05 499.92 190.92 499.72 190.75C499.54 190.58 499.39 190.38 499.29 190.17C499.18 189.92 499.13 189.66 499.13 189.4C499.13 189.13 499.18 188.87 499.28 188.62C499.38 188.4 499.53 188.2 499.72 188.04C499.91 187.87 500.15 187.74 500.4 187.65C500.69 187.56 501 187.51 501.31 187.51C501.47 187.51 501.63 187.52 501.78 187.55C501.92 187.57 502.06 187.6 502.19 187.64C502.31 187.68 502.42 187.73 502.53 187.79C502.63 187.85 502.73 187.91 502.82 187.98C502.8 188 502.68 188.19 502.66 188.21C502.65 188.23 502.63 188.25 502.6 188.26C502.58 188.27 502.55 188.28 502.53 188.28C502.49 188.28 502.45 188.27 502.42 188.25C502.37 188.23 502.32 188.2 502.26 188.16C502.18 188.12 502.11 188.09 502.03 188.06C501.93 188.03 501.82 188 501.72 187.98C501.57 187.96 501.43 187.95 501.28 187.95C501.06 187.95 500.84 187.98 500.63 188.05C500.44 188.12 500.27 188.22 500.13 188.34C499.99 188.48 499.88 188.63 499.81 188.8C499.66 189.21 499.66 189.64 499.81 190.04C499.89 190.21 500 190.37 500.15 190.51C500.29 190.63 500.46 190.73 500.65 190.8C500.86 190.86 501.09 190.89 501.32 190.87C501.43 190.88 501.53 190.88 501.64 190.87Z" id="b1k8n06oL8"></path><path d="M508.59 190.81L508.59 191.24L506.17 191.24L506.17 187.53L506.75 187.53L506.74 190.81L508.59 190.81Z" id="d1pUMXpogh"></path><path d="M509.94 191.24L509.94 187.53L510.52 187.53L510.52 191.24L509.94 191.24Z" id="ewY0j7bHn"></path><path d="M512.77 187.62C513.02 187.9 515 190.13 515.25 190.41C515.25 190.37 515.25 190.32 515.25 190.28C515.25 190.24 515.25 190.2 515.25 190.16C515.25 189.98 515.25 189.1 515.25 187.52L515.76 187.52L515.76 191.24C515.59 191.24 515.49 191.24 515.47 191.24C515.42 191.24 515.38 191.23 515.34 191.22C515.31 191.2 515.28 191.17 515.25 191.15C515 190.87 513.02 188.63 512.77 188.36C512.77 188.4 512.77 188.44 512.77 188.48C512.77 188.52 512.77 188.56 512.77 188.6C512.77 188.77 512.77 189.65 512.77 191.24L512.28 191.24L512.28 187.53C512.47 187.53 512.57 187.53 512.59 187.53C512.62 187.53 512.65 187.54 512.68 187.55C512.72 187.57 512.75 187.59 512.77 187.62Z" id="cCJMTYXHb"></path><path d="M520.04 187.94L517.98 187.94L517.98 189.16L519.65 189.16L519.65 189.56L517.98 189.56L517.98 190.82L520.04 190.82L520.04 191.23L517.38 191.23L517.38 187.53L520.04 187.53L520.04 187.94Z" id="d2ROqHbk93"></path><path d="M484.96 170.98L484.96 193.14L459.16 186.82L459.16 164.66L484.96 170.98ZM457.51 187.89L486.61 195.03L486.61 169.91L457.51 162.77L457.51 187.89Z" id="bIPEWzPZB"></path><path d="M444 199.55L444 174.43L473.1 181.57L473.1 206.69L444 199.55Z" id="b3FyUT8ER8"></path><path d="M483.45 170.62L472.62 179.97L447.16 173.72L457.99 164.37L483.45 170.62ZM444 174.43L473.1 181.57L486.61 169.91L457.51 162.77L444 174.43Z" id="b184hHLgZX"></path><path d="M486.61 195.03L474.74 192.12L474.74 205.28L486.61 195.03Z" id="c15nyO7exh"></path></defs><g><g><g><use xlink:href="#a1V1XmcVPP" opacity="1" fill="#afb1b8" fill-opacity="1"></use><g><use xlink:href="#a1V1XmcVPP" opacity="1" fill-opacity="0" stroke="#000000" stroke-width="1" stroke-opacity="0"></use></g></g><g><use xlink:href="#c1Km7OIIAp" opacity="1" fill="#afb1b8" fill-opacity="1"></use><g><use xlink:href="#c1Km7OIIAp" opacity="1" fill-opacity="0" stroke="#000000" stroke-width="1" stroke-opacity="0"></use></g></g><g><use xlink:href="#etoksa9nL" opacity="1" fill="#afb1b8" fill-opacity="1"></use><g><use xlink:href="#etoksa9nL" opacity="1" fill-opacity="0" stroke="#000000" stroke-width="1" stroke-opacity="0"></use></g></g><g><use xlink:href="#b6cw6ZR5" opacity="1" fill="#afb1b8" fill-opacity="1"></use><g><use xlink:href="#b6cw6ZR5" opacity="1" fill-opacity="0" stroke="#000000" stroke-width="1" stroke-opacity="0"></use></g></g><g><use xlink:href="#adnvnT0Uw" opacity="1" fill="#afb1b8" fill-opacity="1"></use><g><use xlink:href="#adnvnT0Uw" opacity="1" fill-opacity="0" stroke="#000000" stroke-width="1" stroke-opacity="0"></use></g></g><g><use xlink:href="#a2ZkS3iTtl" opacity="1" fill="#afb1b8" fill-opacity="1"></use><g><use xlink:href="#a2ZkS3iTtl" opacity="1" fill-opacity="0" stroke="#000000" stroke-width="1" stroke-opacity="0"></use></g></g><g><use xlink:href="#e4ljgnyJFl" opacity="1" fill="#afb1b8" fill-opacity="1"></use><g><use xlink:href="#e4ljgnyJFl" opacity="1" fill-opacity="0" stroke="#000000" stroke-width="1" stroke-opacity="0"></use></g></g><g><use xlink:href="#cIfT5ioJN" opacity="1" fill="#afb1b8" fill-opacity="1"></use><g><use xlink:href="#cIfT5ioJN" opacity="1" fill-opacity="0" stroke="#000000" stroke-width="1" stroke-opacity="0"></use></g></g><g><use xlink:href="#a1cODTYQfe" opacity="1" fill="#afb1b8" fill-opacity="1"></use><g><use xlink:href="#a1cODTYQfe" opacity="1" fill-opacity="0" stroke="#000000" stroke-width="1" stroke-opacity="0"></use></g></g><g><use xlink:href="#c2i10GdXi" opacity="1" fill="#afb1b8" fill-opacity="1"></use><g><use xlink:href="#c2i10GdXi" opacity="1" fill-opacity="0" stroke="#000000" stroke-width="1" stroke-opacity="0"></use></g></g><g><use xlink:href="#a6C2iyPTc" opacity="1" fill="#afb1b8" fill-opacity="1"></use><g><use xlink:href="#a6C2iyPTc" opacity="1" fill-opacity="0" stroke="#000000" stroke-width="1" stroke-opacity="0"></use></g></g><g><use xlink:href="#aOkxeTyjD" opacity="1" fill="#afb1b8" fill-opacity="1"></use><g><use xlink:href="#aOkxeTyjD" opacity="1" fill-opacity="0" stroke="#000000" stroke-width="1" stroke-opacity="0"></use></g></g><g><use xlink:href="#awHPiYPF0" opacity="1" fill="#afb1b8" fill-opacity="1"></use><g><use xlink:href="#awHPiYPF0" opacity="1" fill-opacity="0" stroke="#000000" stroke-width="1" stroke-opacity="0"></use></g></g><g><use xlink:href="#b3GRSkpBkL" opacity="1" fill="#000000" fill-opacity="0"></use><g><use xlink:href="#b3GRSkpBkL" opacity="1" fill-opacity="0" stroke="#2196f3" stroke-width="1" stroke-opacity="1"></use></g></g><g><use xlink:href="#a1ThAajoL1" opacity="1" fill="#2196f3" fill-opacity="1"></use><g><use xlink:href="#a1ThAajoL1" opacity="1" fill-opacity="0" stroke="#000000" stroke-width="1" stroke-opacity="0"></use></g></g><g><use xlink:href="#b31yZ9sKnR" opacity="1" fill="#2196f3" fill-opacity="1"></use><g><use xlink:href="#b31yZ9sKnR" opacity="1" fill-opacity="0" stroke="#000000" stroke-width="1" stroke-opacity="0"></use></g></g><g><use xlink:href="#f21TzMBsCp" opacity="1" fill="#2196f3" fill-opacity="1"></use><g><use xlink:href="#f21TzMBsCp" opacity="1" fill-opacity="0" stroke="#000000" stroke-width="1" stroke-opacity="0"></use></g></g><g><use xlink:href="#bKuiTtAe" opacity="1" fill="#2196f3" fill-opacity="1"></use><g><use xlink:href="#bKuiTtAe" opacity="1" fill-opacity="0" stroke="#000000" stroke-width="1" stroke-opacity="0"></use></g></g><g><use xlink:href="#ej0hHa5hZ" opacity="1" fill="#000000" fill-opacity="0"></use><g><use xlink:href="#ej0hHa5hZ" opacity="1" fill-opacity="0" stroke="#afb1b8" stroke-width="1" stroke-opacity="1"></use></g></g><g><use xlink:href="#m2GNSCweTh" opacity="1" fill="#afb1b8" fill-opacity="1"></use><g><use xlink:href="#m2GNSCweTh" opacity="1" fill-opacity="0" stroke="#000000" stroke-width="1" stroke-opacity="0"></use></g></g><g><use xlink:href="#a5U6Sbylom" opacity="1" fill="#afb1b8" fill-opacity="1"></use><g><use xlink:href="#a5U6Sbylom" opacity="1" fill-opacity="0" stroke="#000000" stroke-width="1" stroke-opacity="0"></use></g></g><g><use xlink:href="#b9PXmHWpS" opacity="1" fill="#afb1b8" fill-opacity="1"></use><g><use xlink:href="#b9PXmHWpS" opacity="1" fill-opacity="0" stroke="#000000" stroke-width="1" stroke-opacity="0"></use></g></g><g><use xlink:href="#aWfnP4HA" opacity="1" fill="#afb1b8" fill-opacity="1"></use><g><use xlink:href="#aWfnP4HA" opacity="1" fill-opacity="0" stroke="#000000" stroke-width="1" stroke-opacity="0"></use></g></g><g><use xlink:href="#b5LP7wOAA" opacity="1" fill="#afb1b8" fill-opacity="1"></use><g><use xlink:href="#b5LP7wOAA" opacity="1" fill-opacity="0" stroke="#000000" stroke-width="1" stroke-opacity="0"></use></g></g><g><use xlink:href="#a1C8QwgDDX" opacity="1" fill="#afb1b8" fill-opacity="1"></use><g><use xlink:href="#a1C8QwgDDX" opacity="1" fill-opacity="0" stroke="#000000" stroke-width="1" stroke-opacity="0"></use></g></g><g><use xlink:href="#ehMZ8Idof" opacity="1" fill="#afb1b8" fill-opacity="1"></use><g><use xlink:href="#ehMZ8Idof" opacity="1" fill-opacity="0" stroke="#000000" stroke-width="1" stroke-opacity="0"></use></g></g><g><use xlink:href="#aaY5PNOJa" opacity="1" fill="#afb1b8" fill-opacity="1"></use><g><use xlink:href="#aaY5PNOJa" opacity="1" fill-opacity="0" stroke="#000000" stroke-width="1" stroke-opacity="0"></use></g></g><g><use xlink:href="#cmnLOjS9X" opacity="1" fill="#afb1b8" fill-opacity="1"></use><g><use xlink:href="#cmnLOjS9X" opacity="1" fill-opacity="0" stroke="#000000" stroke-width="1" stroke-opacity="0"></use></g></g><g><use xlink:href="#d5pftXGUDD" opacity="1" fill="#afb1b8" fill-opacity="1"></use><g><use xlink:href="#d5pftXGUDD" opacity="1" fill-opacity="0" stroke="#000000" stroke-width="1" stroke-opacity="0"></use></g></g><g><use xlink:href="#c17u0ZYEFL" opacity="1" fill="#000000" fill-opacity="0"></use><g><use xlink:href="#c17u0ZYEFL" opacity="1" fill-opacity="0" stroke="#afb1b8" stroke-width="1" stroke-opacity="1"></use></g></g><g><use xlink:href="#a12aGesM6f" opacity="1" fill="#afb1b8" fill-opacity="1"></use><g><use xlink:href="#a12aGesM6f" opacity="1" fill-opacity="0" stroke="#000000" stroke-width="1" stroke-opacity="0"></use></g></g><g><use xlink:href="#azvhq1t9T" opacity="1" fill="#afb1b8" fill-opacity="1"></use><g><use xlink:href="#azvhq1t9T" opacity="1" fill-opacity="0" stroke="#000000" stroke-width="1" stroke-opacity="0"></use></g></g><g><use xlink:href="#c4NMXiUBfP" opacity="1" fill="#afb1b8" fill-opacity="1"></use><g><use xlink:href="#c4NMXiUBfP" opacity="1" fill-opacity="0" stroke="#000000" stroke-width="1" stroke-opacity="0"></use></g></g><g><use xlink:href="#b1Q6YwOmn" opacity="1" fill="#afb1b8" fill-opacity="1"></use><g><use xlink:href="#b1Q6YwOmn" opacity="1" fill-opacity="0" stroke="#000000" stroke-width="1" stroke-opacity="0"></use></g></g><g><use xlink:href="#cxcr2Qc6" opacity="1" fill="#afb1b8" fill-opacity="1"></use><g><use xlink:href="#cxcr2Qc6" opacity="1" fill-opacity="0" stroke="#000000" stroke-width="1" stroke-opacity="0"></use></g></g><g><use xlink:href="#brVdO4ufP" opacity="1" fill="#afb1b8" fill-opacity="1"></use><g><use xlink:href="#brVdO4ufP" opacity="1" fill-opacity="0" stroke="#000000" stroke-width="1" stroke-opacity="0"></use></g></g><g><use xlink:href="#a1390OthON" opacity="1" fill="#afb1b8" fill-opacity="1"></use><g><use xlink:href="#a1390OthON" opacity="1" fill-opacity="0" stroke="#000000" stroke-width="1" stroke-opacity="0"></use></g></g><g><use xlink:href="#e2nDvoGcO" opacity="1" fill="#afb1b8" fill-opacity="1"></use><g><use xlink:href="#e2nDvoGcO" opacity="1" fill-opacity="0" stroke="#000000" stroke-width="1" stroke-opacity="0"></use></g></g><g><use xlink:href="#aftb8aI0l" opacity="1" fill="#afb1b8" fill-opacity="1"></use><g><use xlink:href="#aftb8aI0l" opacity="1" fill-opacity="0" stroke="#000000" stroke-width="1" stroke-opacity="0"></use></g></g><g><use xlink:href="#b1k8n06oL8" opacity="1" fill="#afb1b8" fill-opacity="1"></use><g><use xlink:href="#b1k8n06oL8" opacity="1" fill-opacity="0" stroke="#000000" stroke-width="1" stroke-opacity="0"></use></g></g><g><use xlink:href="#d1pUMXpogh" opacity="1" fill="#afb1b8" fill-opacity="1"></use><g><use xlink:href="#d1pUMXpogh" opacity="1" fill-opacity="0" stroke="#000000" stroke-width="1" stroke-opacity="0"></use></g></g><g><use xlink:href="#ewY0j7bHn" opacity="1" fill="#afb1b8" fill-opacity="1"></use><g><use xlink:href="#ewY0j7bHn" opacity="1" fill-opacity="0" stroke="#000000" stroke-width="1" stroke-opacity="0"></use></g></g><g><use xlink:href="#cCJMTYXHb" opacity="1" fill="#afb1b8" fill-opacity="1"></use><g><use xlink:href="#cCJMTYXHb" opacity="1" fill-opacity="0" stroke="#000000" stroke-width="1" stroke-opacity="0"></use></g></g><g><use xlink:href="#d2ROqHbk93" opacity="1" fill="#afb1b8" fill-opacity="1"></use><g><use xlink:href="#d2ROqHbk93" opacity="1" fill-opacity="0" stroke="#000000" stroke-width="1" stroke-opacity="0"></use></g></g><g><use xlink:href="#bIPEWzPZB" opacity="1" fill="#afb1b8" fill-opacity="1"></use><g><use xlink:href="#bIPEWzPZB" opacity="1" fill-opacity="0" stroke="#000000" stroke-width="1" stroke-opacity="0"></use></g></g><g><use xlink:href="#b3FyUT8ER8" opacity="1" fill="#afb1b8" fill-opacity="1"></use><g><use xlink:href="#b3FyUT8ER8" opacity="1" fill-opacity="0" stroke="#000000" stroke-width="1" stroke-opacity="0"></use></g></g><g><use xlink:href="#b184hHLgZX" opacity="1" fill="#afb1b8" fill-opacity="1"></use><g><use xlink:href="#b184hHLgZX" opacity="1" fill-opacity="0" stroke="#000000" stroke-width="1" stroke-opacity="0"></use></g></g><g><use xlink:href="#c15nyO7exh" opacity="1" fill="#afb1b8" fill-opacity="1"></use><g><use xlink:href="#c15nyO7exh" opacity="1" fill-opacity="0" stroke="#000000" stroke-width="1" stroke-opacity="0"></use></g></g></g></g></svg>