<?xml version="1.0" encoding="UTF-8" standalone="no"?>
<!DOCTYPE svg PUBLIC "-//W3C//DTD SVG 1.1//EN" "http://www.w3.org/Graphics/SVG/1.1/DTD/svg11.dtd">
<svg version="1.1" xmlns="http://www.w3.org/2000/svg" xmlns:xlink="http://www.w3.org/1999/xlink" preserveAspectRatio="xMidYMid meet" viewBox="0 0 170 92" width="170" height="92"><defs><path d="" id="b5qCkiQWV"></path><path d="M77.01 29.63L64 29.63L64 61.81L98 61.81L98 49.51L105 56.13L105 23L70 23L77.01 29.63ZM77.82 29.92L97.69 29.92L97.69 48.73L77.82 29.92ZM69.38 57.11L69.38 35.46L70.95 35.46L70.95 55.64L91.52 55.64L91.52 57.11L69.38 57.11ZM73.79 67.78L72.97 66.1L72.29 66.1L73.48 68.35L73.48 69.65L74.1 69.65L74.1 68.35L75.29 66.1L74.61 66.1L73.79 67.78ZM75.92 68.83L77.3 68.83L77.59 69.65L78.24 69.65L76.89 66.1L76.34 66.1L74.99 69.65L75.64 69.65L75.92 68.83ZM77.13 68.33L76.1 68.33L76.61 66.85L77.13 68.33ZM79.74 68.69C79.74 68.99 79.84 69.24 80.05 69.42C80.26 69.61 80.54 69.7 80.9 69.7C81.25 69.7 81.55 69.61 81.8 69.42C81.82 69.43 81.88 69.51 82 69.65L82.69 69.65C82.38 69.28 82.2 69.08 82.17 69.04C82.38 68.76 82.48 68.4 82.48 67.96C82.43 67.96 82.01 67.96 81.96 67.96C81.96 68.2 81.91 68.42 81.81 68.61C81.77 68.56 81.54 68.29 81.13 67.8C81.27 67.7 81.35 67.64 81.37 67.63C81.54 67.5 81.66 67.38 81.74 67.25C81.81 67.13 81.85 66.99 81.85 66.84C81.85 66.62 81.77 66.43 81.6 66.28C81.44 66.13 81.23 66.05 80.97 66.05C80.68 66.05 80.45 66.13 80.28 66.29C80.11 66.46 80.03 66.68 80.03 66.95C80.03 67.07 80.06 67.19 80.11 67.31C80.16 67.43 80.26 67.58 80.4 67.75C80.14 67.94 79.96 68.1 79.87 68.24C79.78 68.38 79.74 68.53 79.74 68.69ZM80.91 69.23C80.74 69.23 80.59 69.18 80.49 69.07C80.38 68.97 80.33 68.84 80.33 68.68C80.33 68.48 80.43 68.32 80.62 68.17C80.63 68.16 80.65 68.15 80.7 68.11L81.47 69.03C81.23 69.16 81.05 69.23 80.91 69.23ZM80.59 66.94C80.59 66.82 80.62 66.72 80.69 66.64C80.76 66.57 80.85 66.53 80.96 66.53C81.07 66.53 81.16 66.56 81.23 66.63C81.3 66.69 81.33 66.77 81.33 66.86C81.33 67 81.28 67.12 81.18 67.21C81.18 67.21 81.15 67.23 81.11 67.27L80.84 67.45C80.67 67.2 80.59 67.03 80.59 66.94ZM87.04 68.5C86.98 68.5 86.49 68.5 86.43 68.5C86.4 68.75 86.32 68.93 86.2 69.04C86.07 69.15 85.89 69.21 85.65 69.21C85.38 69.21 85.18 69.1 85.04 68.9C84.91 68.7 84.84 68.41 84.84 68.02C84.84 67.99 84.84 67.74 84.84 67.71C84.84 67.33 84.91 67.04 85.06 66.85C85.2 66.65 85.41 66.55 85.68 66.55C85.91 66.55 86.08 66.61 86.2 66.72C86.32 66.83 86.4 67.02 86.43 67.27C86.49 67.27 86.98 67.27 87.04 67.27C87 66.88 86.86 66.58 86.63 66.37C86.39 66.16 86.07 66.05 85.68 66.05C85.39 66.05 85.13 66.12 84.91 66.26C84.69 66.4 84.52 66.59 84.4 66.85C84.28 67.1 84.22 67.4 84.22 67.74C84.22 67.77 84.22 68.03 84.22 68.07C84.22 68.39 84.28 68.68 84.4 68.93C84.52 69.18 84.68 69.37 84.9 69.5C85.12 69.64 85.37 69.7 85.65 69.7C86.05 69.7 86.38 69.6 86.62 69.38C86.87 69.17 87.01 68.88 87.04 68.5ZM90.43 67.97C90.43 67.95 90.43 67.79 90.43 67.77C90.43 67.43 90.37 67.12 90.25 66.86C90.13 66.6 89.95 66.4 89.73 66.26C89.51 66.12 89.25 66.05 88.96 66.05C88.67 66.05 88.41 66.12 88.19 66.26C87.97 66.4 87.79 66.6 87.67 66.87C87.55 67.14 87.48 67.44 87.48 67.79C87.48 67.81 87.48 67.97 87.48 67.99C87.49 68.33 87.55 68.63 87.67 68.89C87.79 69.15 87.97 69.35 88.19 69.49C88.42 69.63 88.68 69.7 88.96 69.7C89.26 69.7 89.51 69.63 89.74 69.49C89.96 69.35 90.13 69.15 90.25 68.89C90.37 68.62 90.43 68.32 90.43 67.97ZM89.82 67.78C89.82 67.8 89.82 67.95 89.82 67.97C89.82 68.37 89.74 68.67 89.59 68.88C89.45 69.09 89.24 69.19 88.96 69.19C88.69 69.19 88.48 69.09 88.33 68.88C88.18 68.66 88.1 68.36 88.1 67.97C88.1 67.95 88.1 67.78 88.1 67.76C88.11 67.38 88.18 67.09 88.33 66.88C88.48 66.67 88.69 66.56 88.96 66.56C89.23 66.56 89.44 66.67 89.59 66.88C89.74 67.09 89.82 67.39 89.82 67.78Z" id="d1pi8sCFLi"></path><path d="M366 92.5C368.33 92.5 369.5 93.67 369.5 96C369.5 146.4 369.5 174.4 369.5 180C369.5 182.33 368.33 183.5 366 183.5C268.8 183.5 214.8 183.5 204 183.5C201.67 183.5 200.5 182.33 200.5 180C200.5 129.6 200.5 101.6 200.5 96C200.5 93.67 201.67 92.5 204 92.5C301.2 92.5 355.2 92.5 366 92.5Z" id="ci0YIoMUD"></path><path d="M281.98 113.94C281.77 113.92 281.56 113.92 281.35 113.91C281.35 113.91 281.35 113.91 281.35 113.91L281.33 113.91C281.07 113.91 280.92 113.91 280.89 113.91C280.5 113.91 280.09 113.92 279.69 113.94C279.66 113.94 279.63 113.94 279.6 113.94C275.95 114.15 272.38 115.06 269.08 116.63C269.05 116.64 268.91 116.71 268.65 116.83L268.65 138.98C269.26 138.77 269.59 138.65 269.66 138.63C270.55 138.33 271.49 138.05 272.47 137.8C275.12 137.12 277.84 136.76 280.57 136.72C280.57 137.01 280.57 139.34 280.57 139.63C280.21 139.63 279.86 139.64 279.5 139.66C279.49 139.66 279.43 139.66 279.42 139.66C277.32 139.78 275.23 140.1 273.19 140.62C270.61 141.26 268.11 142.24 265.77 143.51C265.77 140.67 265.77 117.95 265.77 115.11C268.21 113.69 270.83 112.63 273.56 111.95C275.95 111.33 278.42 111.01 280.89 111C280.93 111 281.28 111 281.32 111C281.83 111.01 282.33 111.04 282.8 111.07C284.03 111.16 285.25 111.35 286.45 111.65C286.45 111.94 286.45 114.23 286.45 114.52C285.29 114.25 284.1 114.07 282.91 113.98C282.89 113.98 282.86 113.98 282.84 113.98C282.59 113.96 282.34 113.94 282.11 113.94C282.09 113.94 281.99 113.94 281.98 113.94ZM289.11 116.93C291.71 116.92 294.3 116.59 296.82 115.94C299.41 115.29 301.9 114.32 304.24 113.05C304.24 115.84 304.24 138.15 304.24 140.94C301.81 142.36 299.19 143.42 296.46 144.11C294.06 144.72 291.59 145.04 289.12 145.05C287.24 145.07 285.37 144.84 283.55 144.39C283.55 141.59 283.55 119.13 283.55 116.32C283.98 116.42 284.43 116.51 284.88 116.59C285.62 116.71 286.39 116.81 287.15 116.86C287.79 116.91 288.45 116.93 289.11 116.93ZM300.33 117.42C299.4 117.73 298.47 118.01 297.52 118.26C294.77 118.97 291.95 119.33 289.12 119.34C288.46 119.34 287.85 119.32 287.26 119.28C287.21 119.28 286.94 119.26 286.46 119.23L286.46 139.32L286.46 142.01C286.87 142.04 287.1 142.06 287.15 142.07C287.79 142.12 288.45 142.15 289.12 142.15C291.35 142.14 293.58 141.85 295.74 141.29C297.52 140.85 299.26 140.22 300.91 139.44C300.94 139.42 301.09 139.35 301.35 139.23L301.35 117.08C300.74 117.28 300.4 117.4 300.33 117.42Z" id="c28WalvbT2"></path><path d="M267.22 152.87C267.03 152.79 266.82 152.75 266.61 152.76C266.39 152.75 266.17 152.8 265.96 152.88C265.77 152.96 265.6 153.07 265.46 153.21C265.31 153.36 265.2 153.53 265.13 153.72C265.05 153.92 265.01 154.13 265.01 154.35C265.01 154.73 265.01 157.76 265.01 158.14C265 158.41 265.06 158.68 265.16 158.92C265.25 159.12 265.38 159.29 265.54 159.43C265.69 159.56 265.87 159.65 266.06 159.7C266.25 159.75 266.44 159.78 266.63 159.78C266.84 159.78 267.05 159.74 267.24 159.65C267.43 159.56 267.6 159.44 267.75 159.29C267.89 159.15 268 158.98 268.08 158.79C268.16 158.6 268.2 158.39 268.2 158.18C268.2 158.15 268.2 158.01 268.2 157.76L267.21 157.76C267.21 157.96 267.21 158.07 267.21 158.1C267.21 158.21 267.19 158.32 267.15 158.43C267.12 158.51 267.07 158.59 267.01 158.65C266.95 158.7 266.87 158.73 266.8 158.76C266.73 158.78 266.66 158.79 266.59 158.79C266.5 158.8 266.41 158.79 266.33 158.75C266.25 158.72 266.18 158.66 266.13 158.59C266.03 158.44 265.99 158.26 265.99 158.08C265.99 157.73 265.99 154.9 265.99 154.54C265.99 154.35 266.03 154.15 266.12 153.98C266.17 153.9 266.24 153.83 266.33 153.79C266.41 153.75 266.51 153.74 266.6 153.75C266.69 153.74 266.77 153.76 266.85 153.8C266.93 153.84 266.99 153.89 267.04 153.96C267.15 154.11 267.21 154.29 267.21 154.47C267.21 154.49 267.21 154.6 267.21 154.8L268.19 154.8C268.19 154.56 268.19 154.44 268.19 154.41C268.19 154.18 268.15 153.96 268.07 153.75C268 153.55 267.88 153.37 267.74 153.21C267.59 153.06 267.42 152.94 267.22 152.87Z" id="d1lBVezJBd"></path><path d="M272.5 152.75C272.3 152.75 272.1 152.79 271.91 152.86C271.72 152.93 271.54 153.03 271.39 153.17C271.22 153.32 271.09 153.5 271 153.7C270.9 153.93 270.85 154.18 270.86 154.44C270.86 154.8 270.86 157.71 270.86 158.07C270.85 158.33 270.9 158.59 271 158.82C271.09 159.01 271.22 159.19 271.39 159.33C271.54 159.47 271.71 159.58 271.91 159.65C272.1 159.72 272.3 159.75 272.5 159.76C272.7 159.76 272.9 159.72 273.09 159.65C273.29 159.58 273.47 159.47 273.63 159.33C273.79 159.19 273.92 159.01 274 158.82C274.11 158.59 274.15 158.33 274.15 158.07C274.15 157.71 274.15 154.8 274.15 154.44C274.15 154.18 274.1 153.93 274 153.7C273.92 153.5 273.79 153.32 273.63 153.17C273.31 152.9 272.91 152.76 272.5 152.75ZM273.13 158.36C273.09 158.45 273.04 158.53 272.97 158.6C272.84 158.71 272.67 158.77 272.5 158.77C272.33 158.77 272.17 158.71 272.04 158.6C271.96 158.53 271.91 158.45 271.88 158.36C271.84 158.27 271.83 158.17 271.84 158.07C271.84 157.71 271.84 154.8 271.84 154.44C271.83 154.34 271.84 154.24 271.88 154.15C271.91 154.06 271.96 153.98 272.04 153.91C272.17 153.8 272.33 153.74 272.5 153.74C272.67 153.74 272.84 153.8 272.97 153.91C273.04 153.98 273.09 154.06 273.13 154.15C273.16 154.24 273.17 154.34 273.17 154.44C273.17 154.68 273.17 155.89 273.17 158.07C273.16 158.2 273.15 158.3 273.13 158.36Z" id="ao8Dr5NTg"></path><path d="M281.37 152.81L280.41 152.81L279.16 156.46L279.14 156.46L277.88 152.81L276.94 152.81L276.94 159.7L277.92 159.7L277.92 155.51L277.94 155.51L278.9 158.47L279.39 158.47L280.37 155.51L280.38 155.51L280.38 159.7L281.37 159.7L281.37 152.81Z" id="b1j3OoJXI0"></path><path d="M286.4 152.92C286.17 152.84 285.93 152.81 285.69 152.81C285.59 152.81 285.1 152.81 284.23 152.81L284.23 159.7L285.21 159.7L285.21 157.01C285.51 157.01 285.68 157.01 285.71 157.01C286.02 157.02 286.32 156.96 286.6 156.82C286.82 156.7 287.01 156.51 287.14 156.29C287.25 156.11 287.33 155.91 287.36 155.69C287.4 155.44 287.42 155.17 287.42 154.91C287.43 154.58 287.39 154.25 287.32 153.93C287.25 153.69 287.13 153.47 286.96 153.29C286.81 153.12 286.62 152.99 286.4 152.92ZM286.36 155.75C286.31 155.86 286.22 155.94 286.11 155.99C285.96 156.06 285.8 156.09 285.65 156.08C285.62 156.08 285.47 156.08 285.2 156.08L285.2 153.74C285.5 153.74 285.67 153.74 285.7 153.74C285.86 153.73 286.01 153.76 286.15 153.82C286.25 153.88 286.33 153.97 286.38 154.08C286.43 154.2 286.46 154.33 286.46 154.46C286.46 154.61 286.46 154.76 286.46 154.92C286.46 155.08 286.47 155.25 286.46 155.39C286.46 155.39 286.46 155.39 286.45 155.39C286.43 155.56 286.4 155.68 286.36 155.75Z" id="bhLUArlX7"></path><path d="M290.8 152.81L289.29 159.7L290.27 159.7L290.56 158.22L291.89 158.22L292.18 159.7L293.16 159.7L291.61 152.81L290.8 152.81ZM291.19 154.78L291.2 154.78L291.68 157.28L290.7 157.28L291.19 154.78Z" id="akTtEKMRX"></path><path d="M297.93 156.96L296.45 152.81L295.51 152.81L295.51 159.7L296.49 159.7L296.49 155.56L296.51 155.56L298.01 159.7L298.93 159.7L298.93 152.81L297.95 152.81L297.95 156.96L297.93 156.96Z" id="e3dzye7Hjg"></path><path d="M303.16 155.55L303.14 155.55L302.35 152.81L301.31 152.81L302.66 156.79L302.66 159.7L303.64 159.7L303.64 156.79L304.99 152.81L303.95 152.81L303.16 155.55Z" id="brPLk61Vz"></path><path d="M265.47 161.65L265.47 162.97L265.79 162.97L265.79 161.65L266.27 161.65L266.27 161.37L265 161.37L265 161.65L265.47 161.65Z" id="b1egIc35Wz"></path><path d="M268.36 162.97L268.7 162.97L268.83 162.61L269.47 162.61L269.6 162.97L269.95 162.97L269.32 161.37L268.98 161.37L268.36 162.97ZM269.14 161.75L269.36 162.34L268.93 162.34L269.14 161.75Z" id="b2c6CHPKk"></path><path d="M273.28 162.38C273.28 162.51 273.28 162.57 273.28 162.59C273.17 162.68 273.04 162.72 272.9 162.72C272.83 162.73 272.77 162.72 272.71 162.69C272.65 162.66 272.6 162.62 272.56 162.57C272.47 162.45 272.43 162.3 272.44 162.15C272.44 161.8 272.59 161.62 272.9 161.62C272.98 161.61 273.06 161.63 273.13 161.68C273.19 161.73 273.24 161.79 273.26 161.87C273.29 161.87 273.55 161.82 273.58 161.81C273.51 161.5 273.29 161.34 272.9 161.34C272.7 161.34 272.5 161.41 272.34 161.55C272.26 161.63 272.2 161.72 272.16 161.83C272.12 161.94 272.1 162.05 272.11 162.16C272.1 162.38 272.18 162.6 272.32 162.76C272.39 162.84 272.49 162.91 272.59 162.95C272.7 162.99 272.81 163.01 272.92 163C273.17 163 273.42 162.91 273.6 162.74C273.6 162.7 273.6 162.49 273.6 162.11L272.91 162.11L272.91 162.38L273.28 162.38Z" id="bNyqUhrZa"></path><path d="M276.6 161.37L276.6 162.97L277.72 162.97L277.72 162.7L276.92 162.7L276.92 161.37L276.6 161.37Z" id="caKOlTCT"></path><path d="M279.99 161.37L279.99 162.97L280.32 162.97L280.32 161.37L279.99 161.37Z" id="a3wEIckmeg"></path><path d="M282.98 161.37L282.67 161.37L282.67 162.97L282.97 162.97L282.97 161.93L283.61 162.97L283.93 162.97L283.93 161.37L283.64 161.37L283.64 162.44L282.98 161.37Z" id="d3iGHYs5UN"></path><path d="M287.43 162.27L287.43 162L286.64 162L286.64 161.65L287.49 161.65L287.49 161.37L286.31 161.37L286.31 162.97L287.53 162.97L287.53 162.7L286.64 162.7L286.64 162.27L287.43 162.27Z" id="c22gUPTUQ9"></path><path d="M293.28 162L293.28 161.37L292.96 161.37L292.96 162.97L293.28 162.97L293.28 162.27L293.91 162.27L293.91 162.97L294.23 162.97L294.23 161.37L293.91 161.37L293.91 162L293.28 162Z" id="c1e8auRRMn"></path><path d="M297.73 162.27L297.73 162L296.93 162L296.93 161.65L297.79 161.65L297.79 161.37L296.61 161.37L296.61 162.97L297.82 162.97L297.82 162.7L296.93 162.7L296.93 162.27L297.73 162.27Z" id="geQPqv9Pa"></path><path d="M301.44 161.82C301.45 161.76 301.44 161.69 301.41 161.62C301.39 161.56 301.34 161.51 301.29 161.47C301.14 161.39 300.98 161.36 300.82 161.37C300.77 161.37 300.55 161.37 300.14 161.37L300.14 162.97L300.46 162.97L300.46 162.3C300.5 162.3 300.52 162.3 300.52 162.3C300.59 162.3 300.66 162.31 300.73 162.34C300.77 162.37 300.81 162.41 300.84 162.46C300.86 162.49 300.98 162.66 301.19 162.96L301.57 162.96C301.46 162.78 301.39 162.67 301.38 162.65C301.29 162.5 301.17 162.37 301.02 162.27C301.3 162.22 301.44 162.08 301.44 161.82ZM300.46 162.05L300.46 161.65C300.61 161.65 300.7 161.65 300.71 161.65C300.83 161.64 300.94 161.65 301.04 161.68C301.06 161.7 301.08 161.73 301.1 161.76C301.11 161.79 301.11 161.82 301.11 161.85C301.11 161.88 301.1 161.91 301.09 161.94C301.07 161.97 301.05 161.99 301.03 162.01C300.92 162.04 300.81 162.05 300.7 162.05C300.67 162.05 300.59 162.05 300.46 162.05Z" id="a2u5N4sp7"></path><path d="M304.91 162.27L304.91 162L304.11 162L304.11 161.65L304.97 161.65L304.97 161.37L303.79 161.37L303.79 162.97L305 162.97L305 162.7L304.11 162.7L304.11 162.27L304.91 162.27Z" id="anuLssZOG"></path><path d="M566 92.5C568.33 92.5 569.5 93.67 569.5 96C569.5 146.4 569.5 174.4 569.5 180C569.5 182.33 568.33 183.5 566 183.5C468.8 183.5 414.8 183.5 404 183.5C401.67 183.5 400.5 182.33 400.5 180C400.5 129.6 400.5 101.6 400.5 96C400.5 93.67 401.67 92.5 404 92.5C501.2 92.5 555.2 92.5 566 92.5Z" id="cuIoHq8bB"></path><path d="M468.45 157.11C468.47 157.12 468.48 157.12 468.49 157.14C468.51 157.16 468.69 157.32 468.71 157.34C468.54 157.51 468.33 157.65 468.1 157.74C467.82 157.84 467.52 157.89 467.23 157.88C466.95 157.89 466.67 157.84 466.41 157.75C466.17 157.66 465.96 157.54 465.79 157.37C465.62 157.21 465.48 157.01 465.39 156.8C465.3 156.56 465.25 156.31 465.25 156.05C465.25 155.8 465.3 155.55 465.4 155.31C465.5 155.1 465.64 154.9 465.83 154.73C466.01 154.57 466.24 154.44 466.48 154.35C466.75 154.26 467.04 154.22 467.32 154.22C467.59 154.22 467.86 154.26 468.11 154.34C468.32 154.43 468.52 154.54 468.69 154.68C468.67 154.7 468.53 154.88 468.51 154.9C468.5 154.92 468.48 154.93 468.46 154.94C468.44 154.95 468.42 154.96 468.39 154.96C468.36 154.96 468.33 154.95 468.31 154.93C468.3 154.93 468.27 154.91 468.21 154.87C468.13 154.83 468.09 154.8 468.08 154.8C468.02 154.77 467.96 154.75 467.89 154.73C467.81 154.7 467.73 154.68 467.65 154.67C467.54 154.65 467.43 154.64 467.32 154.64C467.11 154.64 466.91 154.67 466.72 154.74C466.54 154.81 466.38 154.9 466.24 155.02C466.11 155.15 466 155.3 465.93 155.47C465.86 155.66 465.82 155.85 465.82 156.05C465.82 156.26 465.86 156.46 465.93 156.65C466 156.82 466.1 156.97 466.24 157.09C466.36 157.22 466.52 157.31 466.69 157.37C466.87 157.43 467.06 157.47 467.25 157.46C467.36 157.47 467.47 157.46 467.58 157.45C467.76 157.43 467.94 157.37 468.09 157.29C468.16 157.24 468.24 157.19 468.3 157.14C468.33 157.12 468.37 157.1 468.41 157.1C468.42 157.1 468.44 157.1 468.45 157.11Z" id="fcxK37PZA"></path><path d="M474.56 156.79C474.47 157 474.33 157.2 474.15 157.36C473.97 157.53 473.75 157.65 473.5 157.74C472.97 157.92 472.38 157.92 471.84 157.74C471.6 157.65 471.39 157.52 471.2 157.36C471.02 157.2 470.88 157 470.79 156.78C470.59 156.31 470.59 155.79 470.79 155.31C470.88 155.09 471.02 154.9 471.2 154.73C471.39 154.57 471.6 154.45 471.84 154.37C472.38 154.19 472.97 154.19 473.5 154.37C473.74 154.45 473.96 154.58 474.15 154.74C474.33 154.91 474.47 155.1 474.56 155.31C474.66 155.55 474.71 155.8 474.7 156.05C474.71 156.31 474.66 156.56 474.56 156.79ZM474.03 155.46C473.97 155.3 473.87 155.15 473.74 155.02C473.61 154.9 473.45 154.8 473.28 154.74C472.89 154.61 472.46 154.61 472.07 154.74C471.9 154.8 471.74 154.9 471.61 155.02C471.48 155.15 471.38 155.3 471.32 155.46C471.18 155.85 471.18 156.26 471.32 156.65C471.38 156.81 471.48 156.96 471.61 157.09C471.74 157.21 471.9 157.31 472.07 157.37C472.46 157.49 472.89 157.49 473.28 157.37C473.45 157.31 473.61 157.21 473.74 157.09C473.87 156.96 473.97 156.81 474.03 156.65C474.1 156.46 474.14 156.26 474.13 156.05C474.14 155.85 474.1 155.65 474.03 155.46Z" id="dQd7vmiWi"></path><path d="M479.06 156.81C479.08 156.76 479.1 156.72 479.12 156.68C479.14 156.63 479.17 156.59 479.19 156.54C479.33 156.32 480.45 154.56 480.59 154.34C480.61 154.31 480.64 154.28 480.66 154.28C480.7 154.26 480.74 154.26 480.78 154.26C480.81 154.26 480.94 154.26 481.19 154.26L481.19 157.84L480.7 157.84C480.7 156.26 480.7 155.39 480.7 155.21C480.7 155.18 480.7 155.14 480.7 155.1C480.7 155.06 480.7 155.02 480.7 154.98C480.56 155.2 479.44 156.98 479.3 157.21C479.28 157.24 479.26 157.27 479.22 157.29C479.18 157.31 479.14 157.32 479.1 157.32C479.09 157.32 479.03 157.32 479.02 157.32C478.98 157.32 478.94 157.31 478.9 157.29C478.87 157.27 478.84 157.24 478.82 157.21C478.67 156.98 477.52 155.19 477.38 154.96C477.38 155.01 477.38 155.05 477.38 155.09C477.38 155.13 477.38 155.17 477.38 155.2C477.38 155.38 477.38 156.26 477.38 157.84L476.91 157.84L476.91 154.26C477.15 154.26 477.29 154.26 477.32 154.26C477.36 154.26 477.39 154.26 477.43 154.28C477.47 154.29 477.49 154.31 477.51 154.34C477.65 154.56 478.79 156.33 478.93 156.55C478.96 156.59 478.98 156.63 479 156.68C479.01 156.7 479.05 156.79 479.06 156.81Z" id="dcGB4h687"></path><path d="M484.24 157.84L483.7 157.84L483.7 154.26C484.43 154.26 484.83 154.26 484.92 154.26C485.15 154.26 485.37 154.29 485.59 154.34C485.77 154.39 485.93 154.46 486.07 154.56C486.2 154.66 486.29 154.78 486.35 154.92C486.41 155.06 486.44 155.22 486.44 155.37C486.44 155.53 486.41 155.68 486.34 155.83C486.27 155.97 486.17 156.09 486.04 156.19C485.9 156.29 485.74 156.38 485.56 156.42C485.35 156.48 485.13 156.51 484.9 156.51C484.86 156.51 484.64 156.5 484.24 156.5L484.24 157.84ZM484.9 156.11C485.05 156.12 485.19 156.1 485.33 156.06C485.44 156.03 485.54 155.97 485.63 155.91C485.71 155.84 485.78 155.76 485.82 155.67C485.86 155.57 485.88 155.47 485.88 155.37C485.89 155.27 485.87 155.17 485.83 155.08C485.79 154.98 485.72 154.9 485.64 154.83C485.43 154.69 485.17 154.62 484.9 154.64C484.86 154.64 484.64 154.64 484.24 154.64L484.24 156.11C484.64 156.11 484.86 156.11 484.9 156.11Z" id="aMV8kJTVt"></path><path d="M491.14 157.84C491.1 157.84 491.06 157.83 491.02 157.81C490.99 157.79 490.97 157.76 490.95 157.73C490.93 157.67 490.8 157.38 490.58 156.86L488.72 156.86C488.49 157.38 488.36 157.67 488.33 157.73C488.32 157.76 488.3 157.79 488.27 157.81C488.23 157.83 488.19 157.84 488.14 157.84C488.11 157.84 487.97 157.84 487.71 157.84L489.35 154.26L489.92 154.26L491.57 157.84C491.31 157.84 491.17 157.84 491.14 157.84ZM490.41 156.51C490.02 155.64 489.81 155.15 489.76 155.06C489.71 154.95 489.67 154.83 489.64 154.72C489.63 154.74 489.58 154.89 489.58 154.91C489.56 154.96 489.54 155.02 489.52 155.06C489.47 155.16 489.26 155.64 488.87 156.51L490.41 156.51Z" id="bumquYS8c"></path><path d="M494.01 154.34C494.25 154.61 496.16 156.77 496.4 157.04C496.4 157 496.4 156.96 496.4 156.92C496.4 156.88 496.4 156.84 496.4 156.8C496.4 156.63 496.4 155.78 496.4 154.26L496.88 154.26L496.88 157.84C496.72 157.84 496.63 157.84 496.61 157.84C496.57 157.84 496.53 157.84 496.5 157.82C496.47 157.8 496.44 157.78 496.41 157.76C496.17 157.49 494.27 155.33 494.03 155.06C494.03 155.1 494.03 155.14 494.03 155.18C494.03 155.22 494.03 155.26 494.03 155.29C494.03 155.46 494.03 156.31 494.03 157.84L493.54 157.84L493.54 154.26C493.72 154.26 493.81 154.26 493.83 154.26C493.86 154.26 493.9 154.27 493.93 154.28C493.96 154.29 493.99 154.32 494.01 154.34Z" id="d1jzjV6END"></path><path d="M500.9 157.84L500.36 157.84L500.36 156.42L498.85 154.26C499.14 154.26 499.31 154.26 499.34 154.26C499.38 154.26 499.42 154.27 499.46 154.29C499.49 154.32 499.51 154.34 499.53 154.37C499.62 154.51 500.38 155.63 500.47 155.76C500.51 155.82 500.54 155.88 500.57 155.93C500.6 155.98 500.62 156.03 500.64 156.08C500.65 156.07 500.7 155.94 500.71 155.93C500.74 155.87 500.77 155.82 500.8 155.76C500.9 155.63 501.64 154.51 501.73 154.37C501.75 154.34 501.78 154.31 501.8 154.29C501.84 154.26 501.88 154.25 501.92 154.25C501.95 154.25 502.12 154.25 502.41 154.25L500.9 156.42L500.9 157.84Z" id="b1dUi8hbsq"></path><path d="M479.45 148.32C483.13 146.89 486.24 144.55 488.4 141.59C490.56 138.64 491.66 135.19 491.58 131.69C491.17 131.34 487.93 128.52 487.52 128.17C488.35 131.9 487.96 135.75 486.41 139.3C484.86 142.84 482.2 145.95 478.73 148.26C478.97 148.28 479.21 148.3 479.45 148.32Z" id="a2ZRqrWeW"></path><path d="M477.39 148.11C481.1 145.81 483.92 142.6 485.5 138.88C487.08 135.17 487.34 131.14 486.25 127.29C485.67 126.79 481.05 122.78 480.47 122.28C482.81 126.4 483.75 131.02 483.19 135.59C482.62 140.16 480.57 144.49 477.28 148.09C477.31 148.1 477.38 148.11 477.39 148.11Z" id="a3cseBmoKj"></path><path d="M490.07 145.72C489.07 146.48 487.99 147.15 486.85 147.73C489.64 147.02 492.21 145.76 494.35 144.05C496.49 142.33 498.16 140.22 499.21 137.86C499.05 137.72 498.27 137.05 496.87 135.83C494.63 140.7 492.36 144 490.07 145.72Z" id="arHOaZgOw"></path><path d="M492.62 132.36C492.55 135.67 491.47 138.89 489.49 141.71C487.5 144.53 484.68 146.83 481.32 148.38C481.33 148.38 481.34 148.38 481.34 148.38C482.09 148.38 482.84 148.35 483.58 148.27C486.72 147.16 489.49 145.39 491.65 143.12C493.81 140.85 495.28 138.15 495.95 135.26C495.28 134.68 492.95 132.65 492.62 132.36Z" id="a2Re5oxzAR"></path><path d="M473.79 116.7C470.23 117.89 467.17 119.99 465.01 122.72C462.85 125.45 461.69 128.68 461.68 132C461.68 132 461.68 132 461.68 132C461.69 135.66 463.11 139.21 465.71 142.09C468.31 144.97 471.94 147.02 476.02 147.9C479.67 144.04 481.81 139.27 482.12 134.28C482.44 129.29 480.91 124.35 477.77 120.16C476.97 119.47 474.19 117.05 473.79 116.7Z" id="c1GjPG1x9n"></path><path d="M499.6 123.15C496.07 120.08 491.28 118.35 486.28 118.34C483.97 118.34 481.68 118.71 479.53 119.43C481.96 121.55 501.44 138.48 503.88 140.59C504.71 138.72 505.14 136.73 505.14 134.73C505.13 130.39 503.13 126.22 499.6 123.15Z" id="amZxxBqYF"></path><path d="M766 92.5C768.33 92.5 769.5 93.67 769.5 96C769.5 146.4 769.5 174.4 769.5 180C769.5 182.33 768.33 183.5 766 183.5C668.8 183.5 614.8 183.5 604 183.5C601.67 183.5 600.5 182.33 600.5 180C600.5 129.6 600.5 101.6 600.5 96C600.5 93.67 601.67 92.5 604 92.5C701.2 92.5 755.2 92.5 766 92.5Z" id="c1ePjUNjh"></path><path d="M656.14 129.1C653.75 129.1 651.8 130.83 651.8 132.96C651.8 132.96 651.8 132.96 651.8 132.96C651.8 135.1 653.75 136.82 656.14 136.82C656.14 136.82 656.15 136.82 656.15 136.82C658.54 136.82 660.49 135.1 660.49 132.96C660.49 132.96 660.49 132.96 660.49 132.96C660.49 130.83 658.54 129.1 656.15 129.1C656.15 129.1 656.14 129.1 656.14 129.1Z" id="a4i8nzEAEi"></path><path d="M684.51 119.98C682.15 117.89 678.96 116.71 675.63 116.7C675.63 116.7 675.63 116.7 675.63 116.7C672.3 116.71 669.11 117.88 666.75 119.98C664.39 122.07 663.07 124.91 663.06 127.87C663.06 129.5 663.06 142.56 663.06 144.19C663.06 144.19 688.19 141.7 688.2 127.87C688.2 127.87 688.2 127.87 688.2 127.87C687.31 124 686.08 121.37 684.51 119.98Z" id="c3XlwNEPbz"></path><path d="M645.57 155.04C647.21 156.5 649.43 157.32 651.74 157.32C654.06 157.32 656.28 156.5 657.92 155.04C659.56 153.58 660.48 151.61 660.49 149.55C660.49 148.42 660.49 139.33 660.49 138.19C660.49 138.19 643 139.93 643 149.55C643.01 151.61 643.93 153.58 645.57 155.04ZM650.47 151.24C650.1 151.02 649.8 150.7 649.63 150.33C649.46 149.96 649.41 149.55 649.5 149.15C649.59 148.76 649.8 148.4 650.13 148.11C650.45 147.83 650.85 147.63 651.3 147.55C651.74 147.48 652.2 147.51 652.62 147.67C653.04 147.82 653.4 148.08 653.65 148.42C653.9 148.75 654.03 149.15 654.03 149.55C654.04 149.82 653.98 150.08 653.86 150.33C653.75 150.58 653.58 150.8 653.37 150.99C653.15 151.18 652.9 151.33 652.62 151.44C652.34 151.54 652.05 151.59 651.74 151.59C651.74 151.59 651.74 151.59 651.74 151.58C651.15 151.5 650.72 151.39 650.47 151.24Z" id="abqAKdfXY"></path><path d="M667.73 150.46L667.73 152.21L666.85 152.21L666.85 147.94L669.63 147.94L669.63 148.65L667.73 148.65L667.73 149.76L669.42 149.76L669.42 150.46L667.73 150.46ZM673.42 151.28C673.27 151.59 673.06 151.84 672.78 152.01C672.51 152.18 672.19 152.27 671.83 152.27C671.48 152.27 671.16 152.18 670.89 152.01C670.61 151.84 670.39 151.6 670.24 151.28C670.09 150.97 670.01 150.6 670.01 150.19C670.01 150.17 670.01 150 670.01 149.98C670.01 149.56 670.09 149.19 670.24 148.88C670.39 148.56 670.6 148.31 670.88 148.14C671.15 147.97 671.47 147.88 671.83 147.88C672.18 147.88 672.5 147.97 672.77 148.14C673.05 148.31 673.26 148.56 673.41 148.88C673.57 149.19 673.64 149.56 673.64 149.98C673.64 149.99 673.64 150.06 673.64 150.17C673.59 150.7 673.52 151.06 673.42 151.28ZM672.51 148.96C672.35 148.73 672.12 148.61 671.83 148.61C671.53 148.61 671.3 148.72 671.14 148.96C670.98 149.18 670.9 149.52 670.9 149.96C670.9 149.98 670.9 150.15 670.9 150.17C670.9 150.61 670.98 150.94 671.14 151.18C671.3 151.43 671.53 151.54 671.83 151.54C672.13 151.54 672.35 151.43 672.51 151.2C672.67 150.97 672.75 150.63 672.75 150.19C672.75 150.17 672.75 150.1 672.75 149.98C672.7 149.45 672.62 149.11 672.51 148.96ZM676.32 150.71C676.2 150.62 675.99 150.52 675.68 150.43C675.38 150.33 675.14 150.23 674.96 150.13C674.48 149.87 674.23 149.52 674.23 149.07C674.23 148.85 674.3 148.64 674.43 148.46C674.56 148.28 674.75 148.14 674.99 148.04C675.23 147.93 675.51 147.88 675.81 147.88C676.11 147.88 676.38 147.94 676.62 148.05C676.86 148.16 677.05 148.31 677.18 148.52C677.31 148.72 677.38 148.95 677.38 149.2C677.29 149.2 676.58 149.2 676.5 149.2C676.5 149.01 676.43 148.85 676.31 148.75C676.19 148.64 676.02 148.58 675.79 148.58C675.58 148.58 675.41 148.63 675.29 148.72C675.17 148.81 675.11 148.93 675.11 149.08C675.11 149.22 675.18 149.33 675.32 149.43C675.46 149.52 675.67 149.61 675.94 149.69C676.44 149.84 676.8 150.03 677.03 150.25C677.26 150.47 677.38 150.75 677.38 151.08C677.38 151.45 677.24 151.74 676.96 151.95C676.68 152.16 676.3 152.27 675.83 152.27C675.5 152.27 675.2 152.21 674.93 152.09C674.66 151.97 674.46 151.8 674.31 151.59C674.17 151.38 674.1 151.14 674.1 150.87C674.19 150.87 674.9 150.87 674.98 150.87C674.98 151.34 675.27 151.57 675.83 151.57C676.04 151.57 676.2 151.53 676.32 151.45C676.43 151.36 676.49 151.24 676.49 151.09C676.49 150.92 676.43 150.79 676.32 150.71ZM679.88 148.65L679.88 152.21L679 152.21L679 148.65L677.71 148.65L677.71 147.94L681.18 147.94L681.18 148.65L679.88 148.65ZM682.57 150.36L682.57 151.5L684.55 151.5L684.55 152.21L681.69 152.21L681.69 147.94L684.54 147.94L684.54 148.65L682.57 148.65L682.57 149.67L684.25 149.67L684.25 150.36L682.57 150.36ZM685.94 150.65L685.94 152.21L685.06 152.21L685.06 147.94C686.01 147.94 686.54 147.94 686.65 147.94C687.15 147.94 687.54 148.05 687.81 148.28C688.09 148.5 688.22 148.82 688.22 149.23C688.22 149.52 688.16 149.76 688.03 149.96C687.91 150.15 687.72 150.31 687.46 150.42C687.52 150.54 687.83 151.12 688.38 152.17L688.38 152.21L687.44 152.21L686.64 150.65L685.94 150.65ZM686.65 149.93C686.87 149.93 687.04 149.88 687.16 149.77C687.28 149.65 687.34 149.5 687.34 149.3C687.34 149.1 687.29 148.94 687.17 148.83C687.06 148.71 686.88 148.65 686.65 148.65C686.6 148.65 686.36 148.65 685.94 148.65L685.94 149.93C686.37 149.93 686.6 149.93 686.65 149.93ZM691.27 152.21L690.39 152.21L690.39 147.94C691.39 147.94 691.94 147.94 692.05 147.94C692.37 147.94 692.65 148 692.9 148.12C693.14 148.23 693.33 148.4 693.46 148.62C693.59 148.83 693.66 149.08 693.66 149.35C693.66 149.77 693.51 150.1 693.22 150.34C692.94 150.58 692.54 150.7 692.04 150.7C691.99 150.7 691.73 150.7 691.27 150.7L691.27 152.21ZM692.05 149.99C692.29 149.99 692.46 149.94 692.58 149.83C692.71 149.72 692.77 149.56 692.77 149.36C692.77 149.15 692.71 148.98 692.58 148.85C692.46 148.72 692.29 148.66 692.07 148.65C692.02 148.65 691.75 148.65 691.27 148.65L691.27 149.99C691.74 149.99 692 149.99 692.05 149.99ZM695.14 150.36L695.14 151.5L697.12 151.5L697.12 152.21L694.26 152.21L694.26 147.94L697.12 147.94L697.12 148.65L695.14 148.65L695.14 149.67L696.83 149.67L696.83 150.36L695.14 150.36ZM699.6 148.65L699.6 152.21L698.72 152.21L698.72 148.65L697.43 148.65L697.43 147.94L700.91 147.94L700.91 148.65L699.6 148.65ZM702.29 150.36L702.29 151.5L704.27 151.5L704.27 152.21L701.41 152.21L701.41 147.94L704.26 147.94L704.26 148.65L702.29 148.65L702.29 149.67L703.98 149.67L703.98 150.36L702.29 150.36ZM705.66 150.65L705.66 152.21L704.79 152.21L704.79 147.94C705.74 147.94 706.26 147.94 706.37 147.94C706.87 147.94 707.26 148.05 707.54 148.28C707.81 148.5 707.95 148.82 707.95 149.23C707.95 149.52 707.88 149.76 707.76 149.96C707.63 150.15 707.44 150.31 707.18 150.42C707.25 150.54 707.55 151.12 708.11 152.17L708.11 152.21L707.16 152.21L706.36 150.65L705.66 150.65ZM706.37 149.93C706.59 149.93 706.76 149.88 706.89 149.77C707.01 149.65 707.07 149.5 707.07 149.3C707.07 149.1 707.01 148.94 706.89 148.83C706.78 148.71 706.61 148.65 706.37 148.65C706.32 148.65 706.09 148.65 705.66 148.65L705.66 149.93C706.09 149.93 706.33 149.93 706.37 149.93ZM710.65 150.71C710.54 150.62 710.33 150.52 710.02 150.43C709.72 150.33 709.47 150.23 709.3 150.13C708.81 149.87 708.57 149.52 708.57 149.07C708.57 148.85 708.63 148.64 708.76 148.46C708.89 148.28 709.08 148.14 709.32 148.04C709.57 147.93 709.84 147.88 710.14 147.88C710.45 147.88 710.72 147.94 710.96 148.05C711.2 148.16 711.38 148.31 711.51 148.52C711.64 148.72 711.71 148.95 711.71 149.2C711.62 149.2 710.92 149.2 710.83 149.2C710.83 149.01 710.77 148.85 710.65 148.75C710.52 148.64 710.35 148.58 710.13 148.58C709.91 148.58 709.75 148.63 709.63 148.72C709.51 148.81 709.45 148.93 709.45 149.08C709.45 149.22 709.52 149.33 709.66 149.43C709.8 149.52 710 149.61 710.28 149.69C710.78 149.84 711.14 150.03 711.37 150.25C711.6 150.47 711.71 150.75 711.71 151.08C711.71 151.45 711.57 151.74 711.29 151.95C711.01 152.16 710.64 152.27 710.16 152.27C709.84 152.27 709.54 152.21 709.27 152.09C709 151.97 708.79 151.8 708.65 151.59C708.51 151.38 708.44 151.14 708.44 150.87C708.53 150.87 709.23 150.87 709.32 150.87C709.32 151.34 709.6 151.57 710.16 151.57C710.37 151.57 710.54 151.53 710.65 151.45C710.77 151.36 710.83 151.24 710.83 151.09C710.83 150.92 710.77 150.79 710.65 150.71Z" id="c12CqHlMAs"></path><path d="M966 92.5C968.33 92.5 969.5 93.67 969.5 96C969.5 146.4 969.5 174.4 969.5 180C969.5 182.33 968.33 183.5 966 183.5C868.8 183.5 814.8 183.5 804 183.5C801.67 183.5 800.5 182.33 800.5 180C800.5 129.6 800.5 101.6 800.5 96C800.5 93.67 801.67 92.5 804 92.5C901.2 92.5 955.2 92.5 966 92.5Z" id="nIdrQ4w1"></path><path d="M859.12 153.71C859.14 153.94 859.09 154.18 858.99 154.39C858.9 154.6 858.75 154.79 858.56 154.95C858.08 155.27 857.5 155.43 856.9 155.4C856.71 155.4 855.74 155.4 854 155.4L854 149.21C855.71 149.2 856.65 149.2 856.84 149.21C857.41 149.17 857.96 149.32 858.42 149.62C858.6 149.76 858.75 149.94 858.85 150.14C858.94 150.34 858.98 150.56 858.97 150.78C858.99 151.12 858.87 151.45 858.64 151.72C858.42 151.97 858.12 152.14 857.78 152.21C858.16 152.27 858.51 152.46 858.76 152.74C859 153.01 859.13 153.36 859.12 153.71ZM856.57 151.8C856.84 151.82 857.12 151.75 857.34 151.6C857.43 151.52 857.5 151.43 857.55 151.32C857.59 151.22 857.61 151.1 857.6 150.99C857.61 150.88 857.59 150.77 857.55 150.66C857.5 150.56 857.43 150.46 857.34 150.39C857.11 150.23 856.83 150.16 856.55 150.18C856.47 150.18 856.07 150.18 855.35 150.18L855.35 151.8C856.08 151.8 856.49 151.8 856.57 151.8ZM857.68 153.89C857.73 153.78 857.75 153.66 857.75 153.55C857.75 153.43 857.73 153.31 857.68 153.2C857.63 153.09 857.55 152.99 857.45 152.91C857.21 152.75 856.92 152.67 856.63 152.69C856.54 152.69 856.12 152.69 855.35 152.69L855.35 154.39C856.13 154.39 856.56 154.39 856.64 154.39C856.93 154.41 857.22 154.33 857.46 154.18C857.56 154.1 857.63 154 857.68 153.89Z" id="g1Mr1IIBc"></path><path d="M862.99 152.98L862.39 152.98L862.39 155.4L861.03 155.4L861.03 149.21C862.58 149.2 863.44 149.2 863.61 149.21C864.26 149.16 864.9 149.35 865.4 149.73C865.76 150.07 865.98 150.51 866.02 150.98C866.05 151.45 865.9 151.92 865.6 152.29C865.28 152.63 864.84 152.85 864.37 152.92C864.48 153.09 865.04 153.91 866.05 155.4L864.57 155.4L862.99 152.98ZM863.51 152.13C864.28 152.13 864.67 151.82 864.67 151.2C864.68 151.07 864.65 150.94 864.6 150.82C864.56 150.7 864.48 150.59 864.38 150.5C864.14 150.31 863.82 150.22 863.51 150.25C863.43 150.25 863.06 150.25 862.38 150.25L862.39 152.13C863.06 152.13 863.43 152.13 863.51 152.13Z" id="c42ePeMHge"></path><path d="M869.3 154.15L868.82 155.4L867.39 155.4L869.88 149.28L871.43 149.28L873.91 155.4L872.48 155.4L872.01 154.15L869.3 154.15ZM870.66 150.6L869.67 153.21L871.65 153.21L870.66 150.6Z" id="aauAtyVq5v"></path><path d="M879.97 155.4L876.94 151.19L876.94 155.4L875.59 155.4L875.59 149.21L876.94 149.21L879.97 153.44L879.97 149.21L881.32 149.21L881.32 155.4L879.97 155.4Z" id="aC9VrEmeN"></path><path d="M887.81 155.01C887.22 155.28 886.57 155.41 885.91 155.4C885.75 155.4 884.95 155.4 883.51 155.4L883.51 149.21C884.95 149.2 885.75 149.2 885.91 149.21C886.57 149.19 887.22 149.32 887.81 149.59C888.33 149.82 888.75 150.2 889.03 150.67C889.31 151.17 889.46 151.73 889.46 152.29C889.46 152.85 889.31 153.41 889.03 153.92C888.75 154.38 888.33 154.76 887.81 155.01ZM888.08 152.29C888.08 151.75 887.87 151.22 887.49 150.81C887.02 150.44 886.41 150.25 885.8 150.29C885.73 150.29 885.42 150.29 884.86 150.29L884.86 154.29C885.42 154.29 885.73 154.29 885.8 154.29C886.41 154.33 887.02 154.14 887.49 153.77C887.87 153.35 888.08 152.83 888.08 152.29Z" id="bWW9dZIUW"></path><path d="M889.93 129.52C889.93 130.99 889.93 142.8 889.93 144.27C889.93 144.27 872.5 138.24 872.86 129.52C872.86 128.53 872.86 123.62 872.86 114.77C884.48 118.79 890.17 123.7 889.93 129.52Z" id="a1p2yx2Uma"></path><path d="M916.54 137.08C916.54 136.62 916.54 132.92 916.54 132.46C911.96 134.08 908.07 137.01 905.46 140.82C908.75 138.74 912.56 137.46 916.54 137.08Z" id="a1jnk2Q4Zu"></path><path d="M916.54 131.49C916.54 130.16 916.54 119.52 916.54 118.19C916.54 118.19 891.71 126.77 892.23 139.19C892.23 141.29 892.23 158.1 892.23 160.2C892.23 160.2 893.34 159.82 895.08 159.1C895.08 158.43 895.08 157.75 895.16 157.07C895.67 151.3 898.67 145.96 903.48 142.21C906.18 137.24 910.85 133.41 916.54 131.49Z" id="aR8ISnUNJ"></path><path d="M901.99 145.71C898.99 148.95 897.17 152.96 896.8 157.19C896.76 157.59 896.74 157.99 896.73 158.4C898.14 157.78 899.78 157.01 901.51 156.1C901.07 154.1 900.94 152.05 901.12 150.01C901.25 148.56 901.54 147.12 901.99 145.71Z" id="i3Faqu20Ji"></path><path d="M902.42 155.6C909.2 151.88 916.82 146.14 916.53 139.19C916.53 139.13 916.53 138.65 916.53 138.59C911.68 139.09 907.15 141.03 903.62 144.11C902.8 146.02 902.29 148.04 902.11 150.09C901.94 151.93 902.05 153.78 902.42 155.6Z" id="c3WgIOdst"></path><path d="M1166 92.5C1168.33 92.5 1169.5 93.67 1169.5 96C1169.5 146.4 1169.5 174.4 1169.5 180C1169.5 182.33 1168.33 183.5 1166 183.5C1068.8 183.5 1014.8 183.5 1004 183.5C1001.67 183.5 1000.5 182.33 1000.5 180C1000.5 129.6 1000.5 101.6 1000.5 96C1000.5 93.67 1001.67 92.5 1004 92.5C1101.2 92.5 1155.2 92.5 1166 92.5Z" id="d4BkytSPXI"></path><path d="M1084.82 133.42C1084.82 133.13 1084.82 130.82 1084.82 130.54C1084.82 129.65 1085.02 128.98 1085.42 128.52C1085.82 128.06 1086.51 127.83 1087.49 127.84C1088.4 127.84 1089.06 128.03 1089.44 128.42C1089.86 128.92 1090.06 129.53 1090.02 130.15C1090.02 130.19 1090.02 130.42 1090.02 130.82L1088.38 130.82C1088.38 130.41 1088.38 130.18 1088.38 130.14C1088.38 129.91 1088.37 129.69 1088.33 129.47C1088.31 129.31 1088.22 129.17 1088.1 129.07C1087.93 128.95 1087.71 128.9 1087.5 128.91C1087.28 128.9 1087.05 128.96 1086.88 129.08C1086.73 129.19 1086.64 129.35 1086.6 129.52C1086.56 129.75 1086.54 129.99 1086.54 130.23C1086.54 130.58 1086.54 133.38 1086.54 133.73C1086.51 134.07 1086.59 134.4 1086.75 134.71C1086.83 134.81 1086.94 134.9 1087.08 134.95C1087.21 135 1087.36 135.02 1087.5 135C1087.71 135.02 1087.92 134.96 1088.08 134.85C1088.22 134.73 1088.3 134.58 1088.33 134.42C1088.36 134.19 1088.38 133.95 1088.38 133.72C1088.38 133.67 1088.38 133.44 1088.38 133.01L1090.02 133.01C1090.02 133.4 1090.02 133.61 1090.02 133.66C1090.06 134.3 1089.86 134.94 1089.45 135.47C1089.07 135.9 1088.43 136.11 1087.49 136.11C1086.54 136.11 1085.83 135.88 1085.42 135.41C1084.98 134.82 1084.77 134.12 1084.82 133.42Z" id="dpDlHJD36"></path><path d="M1091.64 133.47C1091.64 133.17 1091.64 130.74 1091.64 130.44C1091.64 129.58 1091.84 128.93 1092.26 128.49C1092.67 128.05 1093.36 127.83 1094.34 127.84C1095.3 127.84 1095.99 128.05 1096.4 128.49C1096.82 128.93 1097.03 129.58 1097.03 130.44C1097.03 130.74 1097.03 133.17 1097.03 133.47C1097.03 134.33 1096.82 134.98 1096.4 135.44C1095.98 135.89 1095.29 136.11 1094.34 136.11C1093.38 136.11 1092.67 135.88 1092.26 135.44C1091.84 134.99 1091.64 134.34 1091.64 133.47ZM1095.3 133.81C1095.3 133.44 1095.3 130.47 1095.3 130.1C1095.32 129.8 1095.25 129.5 1095.1 129.22C1095.02 129.11 1094.9 129.03 1094.77 128.98C1094.63 128.93 1094.48 128.91 1094.34 128.93C1094.19 128.91 1094.04 128.93 1093.9 128.98C1093.77 129.03 1093.65 129.11 1093.56 129.22C1093.42 129.49 1093.35 129.8 1093.37 130.1C1093.37 130.47 1093.37 133.46 1093.37 133.83C1093.35 134.14 1093.41 134.45 1093.56 134.73C1093.66 134.82 1093.78 134.9 1093.91 134.95C1094.04 135 1094.19 135.03 1094.33 135.03C1094.48 135.03 1094.62 135 1094.75 134.95C1094.89 134.9 1095 134.82 1095.1 134.73C1095.1 134.73 1095.1 134.72 1095.1 134.71C1095.25 134.32 1095.31 134.02 1095.3 133.81Z" id="j2ARQMrzi"></path><path d="M1100.77 127.92L1102.1 133.52L1103.46 127.92L1105.18 127.92L1105.35 136L1104.08 136L1103.94 130.39L1102.63 136L1101.61 136L1100.25 130.37L1100.13 136L1098.84 136L1099 127.92L1100.77 127.92Z" id="a3jSFAlpVS"></path><path d="M1110.08 127.92C1111.67 127.92 1112.46 128.69 1112.46 130.22C1112.46 131.68 1111.63 132.41 1109.96 132.41C1109.9 132.41 1109.58 132.41 1109.02 132.41L1109.02 136L1107.32 136L1107.33 127.92C1108.98 127.92 1109.9 127.92 1110.08 127.92ZM1110.18 131.34C1110.34 131.29 1110.49 131.22 1110.62 131.12C1110.81 130.85 1110.9 130.53 1110.86 130.21C1110.87 129.96 1110.84 129.72 1110.78 129.48C1110.75 129.4 1110.71 129.32 1110.65 129.25C1110.59 129.19 1110.52 129.13 1110.44 129.09C1110.2 128.99 1109.94 128.95 1109.68 128.96C1109.64 128.96 1109.42 128.96 1109.02 128.96L1109.02 131.38L1109.68 131.38C1109.91 131.38 1110.07 131.37 1110.18 131.34Z" id="h2eNtjPM8x"></path><path d="M1116.73 127.92L1118.61 136L1117.02 136L1116.65 134.14L1115.02 134.14L1114.64 136L1113.04 136L1114.91 127.92L1116.73 127.92ZM1115.83 129.81L1115.2 133.2L1116.47 133.2L1115.83 129.81Z" id="b8CDLQcUp"></path><path d="M1121.31 127.92L1123.58 132.53L1123.58 127.92L1124.99 127.92L1124.99 136L1123.86 136L1121.57 131.19L1121.57 136L1120.11 136L1120.12 127.92L1121.31 127.92Z" id="a1kqypEvn"></path><path d="M1126.4 127.94L1128 127.94L1129.15 131.14L1130.23 127.94L1131.79 127.94L1129.93 132.92L1129.93 136L1128.29 136L1128.29 132.92L1126.4 127.94Z" id="hnPm0pu6"></path><path d="M1088.05 139.95L1086.66 139.95L1086.66 143.24L1086.08 143.24L1086.08 139.95L1084.69 139.95L1084.69 139.53L1088.05 139.53L1088.05 139.95Z" id="e4ISBK5Ve1"></path><path d="M1091.94 143.24C1091.9 143.24 1091.85 143.23 1091.82 143.2C1091.78 143.18 1091.76 143.15 1091.74 143.12C1091.71 143.06 1091.58 142.76 1091.34 142.24L1089.42 142.24C1089.18 142.76 1089.05 143.06 1089.02 143.12C1089.01 143.15 1088.99 143.19 1088.96 143.22C1088.92 143.24 1088.88 143.25 1088.83 143.25C1088.8 143.25 1088.65 143.25 1088.38 143.25L1090.08 139.55L1090.67 139.55L1092.39 143.24C1092.12 143.24 1091.97 143.24 1091.94 143.24ZM1091.18 141.86C1090.77 140.96 1090.55 140.45 1090.5 140.35C1090.45 140.24 1090.41 140.12 1090.38 140C1090.35 140.07 1090.33 140.14 1090.31 140.2C1090.31 140.21 1090.29 140.26 1090.25 140.36L1089.58 141.86L1091.18 141.86Z" id="e5tZLpPmgL"></path><path d="M1095.64 142.87C1095.73 142.86 1095.82 142.85 1095.91 142.83C1096 142.81 1096.08 142.79 1096.16 142.76C1096.23 142.73 1096.31 142.7 1096.38 142.67C1096.38 142.61 1096.38 142.34 1096.38 141.84C1095.97 141.84 1095.75 141.84 1095.7 141.84C1095.69 141.84 1095.67 141.84 1095.66 141.83C1095.64 141.82 1095.63 141.82 1095.61 141.81C1095.6 141.8 1095.59 141.79 1095.59 141.78C1095.58 141.77 1095.58 141.75 1095.58 141.74C1095.58 141.72 1095.58 141.63 1095.58 141.46L1096.9 141.46C1096.9 142.31 1096.9 142.78 1096.9 142.88C1096.79 142.94 1096.68 143 1096.56 143.05C1096.44 143.1 1096.31 143.15 1096.18 143.18C1096.04 143.21 1095.9 143.24 1095.76 143.25C1095.59 143.27 1095.43 143.28 1095.26 143.28C1094.97 143.28 1094.68 143.23 1094.4 143.14C1094.15 143.05 1093.92 142.92 1093.72 142.75C1093.54 142.58 1093.39 142.38 1093.29 142.17C1093.18 141.92 1093.13 141.66 1093.13 141.4C1093.13 141.13 1093.18 140.87 1093.28 140.62C1093.38 140.4 1093.53 140.2 1093.72 140.04C1093.91 139.87 1094.15 139.74 1094.4 139.65C1094.69 139.56 1095 139.51 1095.31 139.51C1095.47 139.51 1095.63 139.52 1095.78 139.55C1095.92 139.57 1096.06 139.6 1096.19 139.64C1096.31 139.68 1096.42 139.73 1096.53 139.79C1096.63 139.85 1096.73 139.91 1096.82 139.98C1096.8 140 1096.68 140.19 1096.66 140.21C1096.65 140.23 1096.63 140.25 1096.6 140.26C1096.58 140.27 1096.55 140.28 1096.53 140.28C1096.49 140.28 1096.45 140.27 1096.42 140.25C1096.37 140.23 1096.32 140.2 1096.26 140.16C1096.18 140.12 1096.11 140.09 1096.03 140.06C1095.93 140.03 1095.82 140 1095.72 139.98C1095.57 139.96 1095.43 139.95 1095.28 139.95C1095.06 139.95 1094.84 139.98 1094.63 140.05C1094.44 140.12 1094.27 140.22 1094.13 140.34C1093.99 140.48 1093.88 140.63 1093.81 140.8C1093.66 141.21 1093.66 141.64 1093.81 142.04C1093.89 142.21 1094 142.37 1094.15 142.51C1094.29 142.63 1094.46 142.73 1094.65 142.8C1094.86 142.86 1095.09 142.89 1095.32 142.87C1095.43 142.88 1095.53 142.88 1095.64 142.87Z" id="a5ike3l52c"></path><path d="M1102.59 142.81L1102.59 143.24L1100.17 143.24L1100.17 139.53L1100.75 139.53L1100.74 142.81L1102.59 142.81Z" id="a61SFhZbC3"></path><path d="M1103.94 143.24L1103.94 139.53L1104.52 139.53L1104.52 143.24L1103.94 143.24Z" id="gOiXtGaCB"></path><path d="M1106.77 139.62C1107.02 139.9 1109 142.13 1109.25 142.41C1109.25 142.37 1109.25 142.32 1109.25 142.28C1109.25 142.24 1109.25 142.2 1109.25 142.16C1109.25 141.98 1109.25 141.1 1109.25 139.52L1109.76 139.52L1109.76 143.24C1109.59 143.24 1109.49 143.24 1109.47 143.24C1109.42 143.24 1109.38 143.23 1109.34 143.22C1109.31 143.2 1109.28 143.17 1109.25 143.15C1109 142.87 1107.02 140.63 1106.77 140.36C1106.77 140.4 1106.77 140.44 1106.77 140.48C1106.77 140.52 1106.77 140.56 1106.77 140.6C1106.77 140.77 1106.77 141.65 1106.77 143.24L1106.28 143.24L1106.28 139.53C1106.47 139.53 1106.57 139.53 1106.59 139.53C1106.62 139.53 1106.65 139.54 1106.68 139.55C1106.72 139.57 1106.75 139.59 1106.77 139.62Z" id="a6GjdZg1"></path><path d="M1114.04 139.94L1111.98 139.94L1111.98 141.16L1113.65 141.16L1113.65 141.56L1111.98 141.56L1111.98 142.82L1114.04 142.82L1114.04 143.23L1111.38 143.23L1111.38 139.53L1114.04 139.53L1114.04 139.94Z" id="haEHehWlg"></path><path d="M1078.96 122.98L1078.96 145.14L1053.16 138.82L1053.16 116.66L1078.96 122.98ZM1051.51 139.89L1080.61 147.03L1080.61 121.91L1051.51 114.77L1051.51 139.89Z" id="fCJEMGmx6"></path><path d="M1038 151.55L1038 126.43L1067.1 133.57L1067.1 158.69L1038 151.55Z" id="c3No4XZh7S"></path><path d="M1077.45 122.62L1066.62 131.97L1041.16 125.72L1051.99 116.37L1077.45 122.62ZM1038 126.43L1067.1 133.57L1080.61 121.91L1051.51 114.77L1038 126.43Z" id="ae5p5RSCL"></path><path d="M1080.61 147.03L1068.74 144.12L1068.74 157.28L1080.61 147.03Z" id="ejwcr7dgG"></path></defs><g><g><g><g><use xlink:href="#b5qCkiQWV" opacity="1" fill-opacity="0" stroke="#000000" stroke-width="1" stroke-opacity="1"></use></g></g><g><use xlink:href="#d1pi8sCFLi" opacity="1" fill="#afb1b8" fill-opacity="1"></use><g><use xlink:href="#d1pi8sCFLi" opacity="1" fill-opacity="0" stroke="#000000" stroke-width="1" stroke-opacity="0"></use></g></g><g><use xlink:href="#ci0YIoMUD" opacity="1" fill="#000000" fill-opacity="0"></use><g><use xlink:href="#ci0YIoMUD" opacity="1" fill-opacity="0" stroke="#afb1b8" stroke-width="1" stroke-opacity="1"></use></g></g><g><use xlink:href="#c28WalvbT2" opacity="1" fill="#afb1b8" fill-opacity="1"></use><g><use xlink:href="#c28WalvbT2" opacity="1" fill-opacity="0" stroke="#000000" stroke-width="1" stroke-opacity="0"></use></g></g><g><use xlink:href="#d1lBVezJBd" opacity="1" fill="#afb1b8" fill-opacity="1"></use><g><use xlink:href="#d1lBVezJBd" opacity="1" fill-opacity="0" stroke="#000000" stroke-width="1" stroke-opacity="0"></use></g></g><g><use xlink:href="#ao8Dr5NTg" opacity="1" fill="#afb1b8" fill-opacity="1"></use><g><use xlink:href="#ao8Dr5NTg" opacity="1" fill-opacity="0" stroke="#000000" stroke-width="1" stroke-opacity="0"></use></g></g><g><use xlink:href="#b1j3OoJXI0" opacity="1" fill="#afb1b8" fill-opacity="1"></use><g><use xlink:href="#b1j3OoJXI0" opacity="1" fill-opacity="0" stroke="#000000" stroke-width="1" stroke-opacity="0"></use></g></g><g><use xlink:href="#bhLUArlX7" opacity="1" fill="#afb1b8" fill-opacity="1"></use><g><use xlink:href="#bhLUArlX7" opacity="1" fill-opacity="0" stroke="#000000" stroke-width="1" stroke-opacity="0"></use></g></g><g><use xlink:href="#akTtEKMRX" opacity="1" fill="#afb1b8" fill-opacity="1"></use><g><use xlink:href="#akTtEKMRX" opacity="1" fill-opacity="0" stroke="#000000" stroke-width="1" stroke-opacity="0"></use></g></g><g><use xlink:href="#e3dzye7Hjg" opacity="1" fill="#afb1b8" fill-opacity="1"></use><g><use xlink:href="#e3dzye7Hjg" opacity="1" fill-opacity="0" stroke="#000000" stroke-width="1" stroke-opacity="0"></use></g></g><g><use xlink:href="#brPLk61Vz" opacity="1" fill="#afb1b8" fill-opacity="1"></use><g><use xlink:href="#brPLk61Vz" opacity="1" fill-opacity="0" stroke="#000000" stroke-width="1" stroke-opacity="0"></use></g></g><g><use xlink:href="#b1egIc35Wz" opacity="1" fill="#afb1b8" fill-opacity="1"></use><g><use xlink:href="#b1egIc35Wz" opacity="1" fill-opacity="0" stroke="#000000" stroke-width="1" stroke-opacity="0"></use></g></g><g><use xlink:href="#b2c6CHPKk" opacity="1" fill="#afb1b8" fill-opacity="1"></use><g><use xlink:href="#b2c6CHPKk" opacity="1" fill-opacity="0" stroke="#000000" stroke-width="1" stroke-opacity="0"></use></g></g><g><use xlink:href="#bNyqUhrZa" opacity="1" fill="#afb1b8" fill-opacity="1"></use><g><use xlink:href="#bNyqUhrZa" opacity="1" fill-opacity="0" stroke="#000000" stroke-width="1" stroke-opacity="0"></use></g></g><g><use xlink:href="#caKOlTCT" opacity="1" fill="#afb1b8" fill-opacity="1"></use><g><use xlink:href="#caKOlTCT" opacity="1" fill-opacity="0" stroke="#000000" stroke-width="1" stroke-opacity="0"></use></g></g><g><use xlink:href="#a3wEIckmeg" opacity="1" fill="#afb1b8" fill-opacity="1"></use><g><use xlink:href="#a3wEIckmeg" opacity="1" fill-opacity="0" stroke="#000000" stroke-width="1" stroke-opacity="0"></use></g></g><g><use xlink:href="#d3iGHYs5UN" opacity="1" fill="#afb1b8" fill-opacity="1"></use><g><use xlink:href="#d3iGHYs5UN" opacity="1" fill-opacity="0" stroke="#000000" stroke-width="1" stroke-opacity="0"></use></g></g><g><use xlink:href="#c22gUPTUQ9" opacity="1" fill="#afb1b8" fill-opacity="1"></use><g><use xlink:href="#c22gUPTUQ9" opacity="1" fill-opacity="0" stroke="#000000" stroke-width="1" stroke-opacity="0"></use></g></g><g><use xlink:href="#c1e8auRRMn" opacity="1" fill="#afb1b8" fill-opacity="1"></use><g><use xlink:href="#c1e8auRRMn" opacity="1" fill-opacity="0" stroke="#000000" stroke-width="1" stroke-opacity="0"></use></g></g><g><use xlink:href="#geQPqv9Pa" opacity="1" fill="#afb1b8" fill-opacity="1"></use><g><use xlink:href="#geQPqv9Pa" opacity="1" fill-opacity="0" stroke="#000000" stroke-width="1" stroke-opacity="0"></use></g></g><g><use xlink:href="#a2u5N4sp7" opacity="1" fill="#afb1b8" fill-opacity="1"></use><g><use xlink:href="#a2u5N4sp7" opacity="1" fill-opacity="0" stroke="#000000" stroke-width="1" stroke-opacity="0"></use></g></g><g><use xlink:href="#anuLssZOG" opacity="1" fill="#afb1b8" fill-opacity="1"></use><g><use xlink:href="#anuLssZOG" opacity="1" fill-opacity="0" stroke="#000000" stroke-width="1" stroke-opacity="0"></use></g></g><g><use xlink:href="#cuIoHq8bB" opacity="1" fill="#000000" fill-opacity="0"></use><g><use xlink:href="#cuIoHq8bB" opacity="1" fill-opacity="0" stroke="#afb1b8" stroke-width="1" stroke-opacity="1"></use></g></g><g><use xlink:href="#fcxK37PZA" opacity="1" fill="#afb1b8" fill-opacity="1"></use><g><use xlink:href="#fcxK37PZA" opacity="1" fill-opacity="0" stroke="#000000" stroke-width="1" stroke-opacity="0"></use></g></g><g><use xlink:href="#dQd7vmiWi" opacity="1" fill="#afb1b8" fill-opacity="1"></use><g><use xlink:href="#dQd7vmiWi" opacity="1" fill-opacity="0" stroke="#000000" stroke-width="1" stroke-opacity="0"></use></g></g><g><use xlink:href="#dcGB4h687" opacity="1" fill="#afb1b8" fill-opacity="1"></use><g><use xlink:href="#dcGB4h687" opacity="1" fill-opacity="0" stroke="#000000" stroke-width="1" stroke-opacity="0"></use></g></g><g><use xlink:href="#aMV8kJTVt" opacity="1" fill="#afb1b8" fill-opacity="1"></use><g><use xlink:href="#aMV8kJTVt" opacity="1" fill-opacity="0" stroke="#000000" stroke-width="1" stroke-opacity="0"></use></g></g><g><use xlink:href="#bumquYS8c" opacity="1" fill="#afb1b8" fill-opacity="1"></use><g><use xlink:href="#bumquYS8c" opacity="1" fill-opacity="0" stroke="#000000" stroke-width="1" stroke-opacity="0"></use></g></g><g><use xlink:href="#d1jzjV6END" opacity="1" fill="#afb1b8" fill-opacity="1"></use><g><use xlink:href="#d1jzjV6END" opacity="1" fill-opacity="0" stroke="#000000" stroke-width="1" stroke-opacity="0"></use></g></g><g><use xlink:href="#b1dUi8hbsq" opacity="1" fill="#afb1b8" fill-opacity="1"></use><g><use xlink:href="#b1dUi8hbsq" opacity="1" fill-opacity="0" stroke="#000000" stroke-width="1" stroke-opacity="0"></use></g></g><g><use xlink:href="#a2ZRqrWeW" opacity="1" fill="#afb1b8" fill-opacity="1"></use><g><use xlink:href="#a2ZRqrWeW" opacity="1" fill-opacity="0" stroke="#000000" stroke-width="1" stroke-opacity="0"></use></g></g><g><use xlink:href="#a3cseBmoKj" opacity="1" fill="#afb1b8" fill-opacity="1"></use><g><use xlink:href="#a3cseBmoKj" opacity="1" fill-opacity="0" stroke="#000000" stroke-width="1" stroke-opacity="0"></use></g></g><g><use xlink:href="#arHOaZgOw" opacity="1" fill="#afb1b8" fill-opacity="1"></use><g><use xlink:href="#arHOaZgOw" opacity="1" fill-opacity="0" stroke="#000000" stroke-width="1" stroke-opacity="0"></use></g></g><g><use xlink:href="#a2Re5oxzAR" opacity="1" fill="#afb1b8" fill-opacity="1"></use><g><use xlink:href="#a2Re5oxzAR" opacity="1" fill-opacity="0" stroke="#000000" stroke-width="1" stroke-opacity="0"></use></g></g><g><use xlink:href="#c1GjPG1x9n" opacity="1" fill="#afb1b8" fill-opacity="1"></use><g><use xlink:href="#c1GjPG1x9n" opacity="1" fill-opacity="0" stroke="#000000" stroke-width="1" stroke-opacity="0"></use></g></g><g><use xlink:href="#amZxxBqYF" opacity="1" fill="#afb1b8" fill-opacity="1"></use><g><use xlink:href="#amZxxBqYF" opacity="1" fill-opacity="0" stroke="#000000" stroke-width="1" stroke-opacity="0"></use></g></g><g><use xlink:href="#c1ePjUNjh" opacity="1" fill="#000000" fill-opacity="0"></use><g><use xlink:href="#c1ePjUNjh" opacity="1" fill-opacity="0" stroke="#2196f3" stroke-width="1" stroke-opacity="1"></use></g></g><g><use xlink:href="#a4i8nzEAEi" opacity="1" fill="#2196f3" fill-opacity="1"></use><g><use xlink:href="#a4i8nzEAEi" opacity="1" fill-opacity="0" stroke="#000000" stroke-width="1" stroke-opacity="0"></use></g></g><g><use xlink:href="#c3XlwNEPbz" opacity="1" fill="#2196f3" fill-opacity="1"></use><g><use xlink:href="#c3XlwNEPbz" opacity="1" fill-opacity="0" stroke="#000000" stroke-width="1" stroke-opacity="0"></use></g></g><g><use xlink:href="#abqAKdfXY" opacity="1" fill="#2196f3" fill-opacity="1"></use><g><use xlink:href="#abqAKdfXY" opacity="1" fill-opacity="0" stroke="#000000" stroke-width="1" stroke-opacity="0"></use></g></g><g><use xlink:href="#c12CqHlMAs" opacity="1" fill="#2196f3" fill-opacity="1"></use><g><use xlink:href="#c12CqHlMAs" opacity="1" fill-opacity="0" stroke="#000000" stroke-width="1" stroke-opacity="0"></use></g></g><g><use xlink:href="#nIdrQ4w1" opacity="1" fill="#000000" fill-opacity="0"></use><g><use xlink:href="#nIdrQ4w1" opacity="1" fill-opacity="0" stroke="#afb1b8" stroke-width="1" stroke-opacity="1"></use></g></g><g><use xlink:href="#g1Mr1IIBc" opacity="1" fill="#afb1b8" fill-opacity="1"></use><g><use xlink:href="#g1Mr1IIBc" opacity="1" fill-opacity="0" stroke="#000000" stroke-width="1" stroke-opacity="0"></use></g></g><g><use xlink:href="#c42ePeMHge" opacity="1" fill="#afb1b8" fill-opacity="1"></use><g><use xlink:href="#c42ePeMHge" opacity="1" fill-opacity="0" stroke="#000000" stroke-width="1" stroke-opacity="0"></use></g></g><g><use xlink:href="#aauAtyVq5v" opacity="1" fill="#afb1b8" fill-opacity="1"></use><g><use xlink:href="#aauAtyVq5v" opacity="1" fill-opacity="0" stroke="#000000" stroke-width="1" stroke-opacity="0"></use></g></g><g><use xlink:href="#aC9VrEmeN" opacity="1" fill="#afb1b8" fill-opacity="1"></use><g><use xlink:href="#aC9VrEmeN" opacity="1" fill-opacity="0" stroke="#000000" stroke-width="1" stroke-opacity="0"></use></g></g><g><use xlink:href="#bWW9dZIUW" opacity="1" fill="#afb1b8" fill-opacity="1"></use><g><use xlink:href="#bWW9dZIUW" opacity="1" fill-opacity="0" stroke="#000000" stroke-width="1" stroke-opacity="0"></use></g></g><g><use xlink:href="#a1p2yx2Uma" opacity="1" fill="#afb1b8" fill-opacity="1"></use><g><use xlink:href="#a1p2yx2Uma" opacity="1" fill-opacity="0" stroke="#000000" stroke-width="1" stroke-opacity="0"></use></g></g><g><use xlink:href="#a1jnk2Q4Zu" opacity="1" fill="#afb1b8" fill-opacity="1"></use><g><use xlink:href="#a1jnk2Q4Zu" opacity="1" fill-opacity="0" stroke="#000000" stroke-width="1" stroke-opacity="0"></use></g></g><g><use xlink:href="#aR8ISnUNJ" opacity="1" fill="#afb1b8" fill-opacity="1"></use><g><use xlink:href="#aR8ISnUNJ" opacity="1" fill-opacity="0" stroke="#000000" stroke-width="1" stroke-opacity="0"></use></g></g><g><use xlink:href="#i3Faqu20Ji" opacity="1" fill="#afb1b8" fill-opacity="1"></use><g><use xlink:href="#i3Faqu20Ji" opacity="1" fill-opacity="0" stroke="#000000" stroke-width="1" stroke-opacity="0"></use></g></g><g><use xlink:href="#c3WgIOdst" opacity="1" fill="#afb1b8" fill-opacity="1"></use><g><use xlink:href="#c3WgIOdst" opacity="1" fill-opacity="0" stroke="#000000" stroke-width="1" stroke-opacity="0"></use></g></g><g><use xlink:href="#d4BkytSPXI" opacity="1" fill="#000000" fill-opacity="0"></use><g><use xlink:href="#d4BkytSPXI" opacity="1" fill-opacity="0" stroke="#afb1b8" stroke-width="1" stroke-opacity="1"></use></g></g><g><use xlink:href="#dpDlHJD36" opacity="1" fill="#afb1b8" fill-opacity="1"></use><g><use xlink:href="#dpDlHJD36" opacity="1" fill-opacity="0" stroke="#000000" stroke-width="1" stroke-opacity="0"></use></g></g><g><use xlink:href="#j2ARQMrzi" opacity="1" fill="#afb1b8" fill-opacity="1"></use><g><use xlink:href="#j2ARQMrzi" opacity="1" fill-opacity="0" stroke="#000000" stroke-width="1" stroke-opacity="0"></use></g></g><g><use xlink:href="#a3jSFAlpVS" opacity="1" fill="#afb1b8" fill-opacity="1"></use><g><use xlink:href="#a3jSFAlpVS" opacity="1" fill-opacity="0" stroke="#000000" stroke-width="1" stroke-opacity="0"></use></g></g><g><use xlink:href="#h2eNtjPM8x" opacity="1" fill="#afb1b8" fill-opacity="1"></use><g><use xlink:href="#h2eNtjPM8x" opacity="1" fill-opacity="0" stroke="#000000" stroke-width="1" stroke-opacity="0"></use></g></g><g><use xlink:href="#b8CDLQcUp" opacity="1" fill="#afb1b8" fill-opacity="1"></use><g><use xlink:href="#b8CDLQcUp" opacity="1" fill-opacity="0" stroke="#000000" stroke-width="1" stroke-opacity="0"></use></g></g><g><use xlink:href="#a1kqypEvn" opacity="1" fill="#afb1b8" fill-opacity="1"></use><g><use xlink:href="#a1kqypEvn" opacity="1" fill-opacity="0" stroke="#000000" stroke-width="1" stroke-opacity="0"></use></g></g><g><use xlink:href="#hnPm0pu6" opacity="1" fill="#afb1b8" fill-opacity="1"></use><g><use xlink:href="#hnPm0pu6" opacity="1" fill-opacity="0" stroke="#000000" stroke-width="1" stroke-opacity="0"></use></g></g><g><use xlink:href="#e4ISBK5Ve1" opacity="1" fill="#afb1b8" fill-opacity="1"></use><g><use xlink:href="#e4ISBK5Ve1" opacity="1" fill-opacity="0" stroke="#000000" stroke-width="1" stroke-opacity="0"></use></g></g><g><use xlink:href="#e5tZLpPmgL" opacity="1" fill="#afb1b8" fill-opacity="1"></use><g><use xlink:href="#e5tZLpPmgL" opacity="1" fill-opacity="0" stroke="#000000" stroke-width="1" stroke-opacity="0"></use></g></g><g><use xlink:href="#a5ike3l52c" opacity="1" fill="#afb1b8" fill-opacity="1"></use><g><use xlink:href="#a5ike3l52c" opacity="1" fill-opacity="0" stroke="#000000" stroke-width="1" stroke-opacity="0"></use></g></g><g><use xlink:href="#a61SFhZbC3" opacity="1" fill="#afb1b8" fill-opacity="1"></use><g><use xlink:href="#a61SFhZbC3" opacity="1" fill-opacity="0" stroke="#000000" stroke-width="1" stroke-opacity="0"></use></g></g><g><use xlink:href="#gOiXtGaCB" opacity="1" fill="#afb1b8" fill-opacity="1"></use><g><use xlink:href="#gOiXtGaCB" opacity="1" fill-opacity="0" stroke="#000000" stroke-width="1" stroke-opacity="0"></use></g></g><g><use xlink:href="#a6GjdZg1" opacity="1" fill="#afb1b8" fill-opacity="1"></use><g><use xlink:href="#a6GjdZg1" opacity="1" fill-opacity="0" stroke="#000000" stroke-width="1" stroke-opacity="0"></use></g></g><g><use xlink:href="#haEHehWlg" opacity="1" fill="#afb1b8" fill-opacity="1"></use><g><use xlink:href="#haEHehWlg" opacity="1" fill-opacity="0" stroke="#000000" stroke-width="1" stroke-opacity="0"></use></g></g><g><use xlink:href="#fCJEMGmx6" opacity="1" fill="#afb1b8" fill-opacity="1"></use><g><use xlink:href="#fCJEMGmx6" opacity="1" fill-opacity="0" stroke="#000000" stroke-width="1" stroke-opacity="0"></use></g></g><g><use xlink:href="#c3No4XZh7S" opacity="1" fill="#afb1b8" fill-opacity="1"></use><g><use xlink:href="#c3No4XZh7S" opacity="1" fill-opacity="0" stroke="#000000" stroke-width="1" stroke-opacity="0"></use></g></g><g><use xlink:href="#ae5p5RSCL" opacity="1" fill="#afb1b8" fill-opacity="1"></use><g><use xlink:href="#ae5p5RSCL" opacity="1" fill-opacity="0" stroke="#000000" stroke-width="1" stroke-opacity="0"></use></g></g><g><use xlink:href="#ejwcr7dgG" opacity="1" fill="#afb1b8" fill-opacity="1"></use><g><use xlink:href="#ejwcr7dgG" opacity="1" fill-opacity="0" stroke="#000000" stroke-width="1" stroke-opacity="0"></use></g></g></g></g></svg>