<?xml version="1.0" encoding="UTF-8" standalone="no"?>
<!DOCTYPE svg PUBLIC "-//W3C//DTD SVG 1.1//EN" "http://www.w3.org/Graphics/SVG/1.1/DTD/svg11.dtd">
<svg version="1.1" xmlns="http://www.w3.org/2000/svg" xmlns:xlink="http://www.w3.org/1999/xlink" preserveAspectRatio="xMidYMid meet" viewBox="0 0 170 92" width="170" height="92"><defs><path d="M56.64 37.1C54.25 37.1 52.3 38.83 52.3 40.96C52.3 40.96 52.3 40.96 52.3 40.96C52.3 43.1 54.25 44.82 56.64 44.82C56.64 44.82 56.65 44.82 56.65 44.82C59.04 44.82 60.99 43.1 60.99 40.96C60.99 40.96 60.99 40.96 60.99 40.96C60.99 38.83 59.04 37.1 56.65 37.1C56.65 37.1 56.64 37.1 56.64 37.1Z" id="e1Cv0mhRPW"></path><path d="M85.01 27.98C82.65 25.89 79.46 24.71 76.13 24.7C76.13 24.7 76.13 24.7 76.13 24.7C72.8 24.71 69.61 25.88 67.25 27.98C64.89 30.07 63.57 32.91 63.56 35.87C63.56 37.5 63.56 50.56 63.56 52.19C63.56 52.19 88.69 49.7 88.7 35.87C88.7 35.87 88.7 35.87 88.7 35.87C87.81 32 86.58 29.37 85.01 27.98Z" id="a2DpYZjG0f"></path><path d="M46.07 63.04C47.71 64.5 49.93 65.32 52.24 65.32C54.56 65.32 56.78 64.5 58.42 63.04C60.06 61.58 60.98 59.61 60.99 57.55C60.99 56.42 60.99 47.33 60.99 46.19C60.99 46.19 43.5 47.93 43.5 57.55C43.51 59.61 44.43 61.58 46.07 63.04ZM50.97 59.24C50.6 59.02 50.3 58.7 50.13 58.33C49.96 57.96 49.91 57.55 50 57.15C50.09 56.76 50.3 56.4 50.63 56.11C50.95 55.83 51.35 55.63 51.8 55.55C52.24 55.47 52.7 55.51 53.12 55.67C53.54 55.82 53.9 56.08 54.15 56.42C54.4 56.75 54.53 57.15 54.53 57.55C54.53 57.82 54.48 58.08 54.36 58.33C54.25 58.58 54.08 58.8 53.87 58.99C53.65 59.18 53.4 59.33 53.12 59.44C52.84 59.54 52.55 59.59 52.24 59.59C52.24 59.59 52.24 59.59 52.24 59.58C51.65 59.5 51.22 59.39 50.97 59.24Z" id="a1i2sgv3hq"></path><path d="M68.23 58.46L68.23 60.21L67.35 60.21L67.35 55.94L70.13 55.94L70.13 56.65L68.23 56.65L68.23 57.76L69.92 57.76L69.92 58.46L68.23 58.46ZM73.92 59.28C73.77 59.59 73.56 59.84 73.28 60.01C73.01 60.18 72.69 60.27 72.33 60.27C71.98 60.27 71.66 60.18 71.38 60.01C71.11 59.84 70.89 59.6 70.74 59.28C70.59 58.97 70.51 58.6 70.51 58.19C70.51 58.17 70.51 58 70.51 57.98C70.51 57.56 70.59 57.19 70.74 56.88C70.89 56.56 71.1 56.31 71.38 56.14C71.65 55.97 71.97 55.88 72.33 55.88C72.68 55.88 73 55.97 73.27 56.14C73.55 56.31 73.76 56.56 73.91 56.88C74.07 57.19 74.14 57.56 74.14 57.98C74.14 57.99 74.14 58.06 74.14 58.17C74.09 58.7 74.02 59.06 73.92 59.28ZM73.01 56.96C72.85 56.72 72.62 56.61 72.33 56.61C72.03 56.61 71.8 56.72 71.64 56.96C71.48 57.18 71.4 57.52 71.4 57.96C71.4 57.98 71.4 58.15 71.4 58.17C71.4 58.61 71.48 58.94 71.64 59.18C71.8 59.43 72.03 59.54 72.33 59.54C72.63 59.54 72.85 59.43 73.01 59.2C73.17 58.97 73.25 58.63 73.25 58.19C73.25 58.17 73.25 58.1 73.25 57.98C73.2 57.45 73.12 57.11 73.01 56.96ZM76.82 58.71C76.7 58.62 76.49 58.52 76.18 58.43C75.88 58.33 75.64 58.23 75.46 58.13C74.98 57.87 74.73 57.52 74.73 57.07C74.73 56.85 74.8 56.64 74.93 56.46C75.06 56.28 75.25 56.14 75.49 56.04C75.73 55.93 76.01 55.88 76.31 55.88C76.61 55.88 76.88 55.94 77.12 56.05C77.36 56.16 77.54 56.31 77.67 56.52C77.81 56.72 77.88 56.94 77.88 57.2C77.79 57.2 77.08 57.2 77 57.2C77 57.01 76.93 56.85 76.81 56.75C76.69 56.64 76.51 56.58 76.29 56.58C76.08 56.58 75.91 56.63 75.79 56.72C75.67 56.81 75.61 56.93 75.61 57.08C75.61 57.22 75.68 57.33 75.82 57.43C75.96 57.52 76.17 57.61 76.44 57.69C76.94 57.84 77.3 58.03 77.53 58.25C77.76 58.47 77.88 58.75 77.88 59.08C77.88 59.45 77.74 59.74 77.46 59.95C77.18 60.16 76.8 60.27 76.33 60.27C76 60.27 75.7 60.21 75.43 60.09C75.16 59.97 74.96 59.8 74.81 59.59C74.67 59.38 74.6 59.14 74.6 58.87C74.69 58.87 75.4 58.87 75.48 58.87C75.48 59.34 75.76 59.57 76.33 59.57C76.54 59.57 76.7 59.53 76.82 59.44C76.93 59.36 76.99 59.24 76.99 59.09C76.99 58.92 76.93 58.79 76.82 58.71ZM80.38 56.65L80.38 60.21L79.5 60.21L79.5 56.65L78.21 56.65L78.21 55.94L81.68 55.94L81.68 56.65L80.38 56.65ZM83.07 58.36L83.07 59.5L85.05 59.5L85.05 60.21L82.19 60.21L82.19 55.94L85.04 55.94L85.04 56.65L83.07 56.65L83.07 57.67L84.75 57.67L84.75 58.36L83.07 58.36ZM86.44 58.65L86.44 60.21L85.56 60.21L85.56 55.94C86.51 55.94 87.04 55.94 87.15 55.94C87.65 55.94 88.04 56.05 88.31 56.28C88.59 56.5 88.72 56.82 88.72 57.23C88.72 57.52 88.66 57.76 88.53 57.96C88.41 58.15 88.22 58.31 87.96 58.42C88.02 58.54 88.33 59.12 88.88 60.17L88.88 60.21L87.94 60.21L87.14 58.65L86.44 58.65ZM87.15 57.93C87.37 57.93 87.54 57.88 87.66 57.77C87.78 57.65 87.84 57.5 87.84 57.3C87.84 57.1 87.79 56.94 87.67 56.83C87.56 56.71 87.38 56.65 87.15 56.65C87.1 56.65 86.86 56.65 86.44 56.65L86.44 57.93C86.87 57.93 87.1 57.93 87.15 57.93ZM91.77 60.21L90.89 60.21L90.89 55.94C91.89 55.94 92.44 55.94 92.55 55.94C92.87 55.94 93.15 56 93.4 56.12C93.64 56.23 93.83 56.4 93.96 56.62C94.09 56.83 94.15 57.08 94.15 57.35C94.15 57.77 94.01 58.1 93.72 58.34C93.44 58.58 93.04 58.7 92.54 58.7C92.49 58.7 92.23 58.7 91.77 58.7L91.77 60.21ZM92.55 57.99C92.78 57.99 92.96 57.94 93.08 57.83C93.21 57.72 93.27 57.56 93.27 57.36C93.27 57.15 93.21 56.98 93.08 56.85C92.96 56.72 92.79 56.66 92.57 56.65C92.52 56.65 92.25 56.65 91.77 56.65L91.77 57.99C92.24 57.99 92.5 57.99 92.55 57.99ZM95.64 58.36L95.64 59.5L97.62 59.5L97.62 60.21L94.76 60.21L94.76 55.94L97.62 55.94L97.62 56.65L95.64 56.65L95.64 57.67L97.33 57.67L97.33 58.36L95.64 58.36ZM100.1 56.65L100.1 60.21L99.22 60.21L99.22 56.65L97.93 56.65L97.93 55.94L101.41 55.94L101.41 56.65L100.1 56.65ZM102.79 58.36L102.79 59.5L104.77 59.5L104.77 60.21L101.91 60.21L101.91 55.94L104.76 55.94L104.76 56.65L102.79 56.65L102.79 57.67L104.48 57.67L104.48 58.36L102.79 58.36ZM106.16 58.65L106.16 60.21L105.28 60.21L105.28 55.94C106.24 55.94 106.76 55.94 106.87 55.94C107.37 55.94 107.76 56.05 108.04 56.28C108.31 56.5 108.45 56.82 108.45 57.23C108.45 57.52 108.38 57.76 108.26 57.96C108.13 58.15 107.94 58.31 107.68 58.42C107.75 58.54 108.05 59.12 108.61 60.17L108.61 60.21L107.66 60.21L106.86 58.65L106.16 58.65ZM106.87 57.93C107.09 57.93 107.26 57.88 107.39 57.77C107.51 57.65 107.57 57.5 107.57 57.3C107.57 57.1 107.51 56.94 107.39 56.83C107.28 56.71 107.11 56.65 106.87 56.65C106.82 56.65 106.59 56.65 106.16 56.65L106.16 57.93C106.59 57.93 106.83 57.93 106.87 57.93ZM111.15 58.71C111.04 58.62 110.83 58.52 110.52 58.43C110.22 58.33 109.97 58.23 109.8 58.13C109.31 57.87 109.07 57.52 109.07 57.07C109.07 56.85 109.13 56.64 109.26 56.46C109.39 56.28 109.58 56.14 109.82 56.04C110.07 55.93 110.34 55.88 110.64 55.88C110.95 55.88 111.22 55.94 111.46 56.05C111.7 56.16 111.88 56.31 112.01 56.52C112.14 56.72 112.21 56.94 112.21 57.2C112.12 57.2 111.42 57.2 111.33 57.2C111.33 57.01 111.27 56.85 111.15 56.75C111.02 56.64 110.85 56.58 110.63 56.58C110.41 56.58 110.25 56.63 110.13 56.72C110.01 56.81 109.95 56.93 109.95 57.08C109.95 57.22 110.02 57.33 110.16 57.43C110.3 57.52 110.5 57.61 110.77 57.69C111.27 57.84 111.64 58.03 111.87 58.25C112.1 58.47 112.21 58.75 112.21 59.08C112.21 59.45 112.07 59.74 111.79 59.95C111.51 60.16 111.14 60.27 110.66 60.27C110.34 60.27 110.04 60.21 109.77 60.09C109.5 59.97 109.29 59.8 109.15 59.59C109.01 59.38 108.94 59.14 108.94 58.87C109.03 58.87 109.73 58.87 109.82 58.87C109.82 59.34 110.1 59.57 110.66 59.57C110.87 59.57 111.04 59.53 111.15 59.44C111.27 59.36 111.33 59.24 111.33 59.09C111.33 58.92 111.27 58.79 111.15 58.71Z" id="a2EyS8hl65"></path><path d="M372 140.5C374.33 140.5 375.5 141.67 375.5 144C375.5 194.4 375.5 222.4 375.5 228C375.5 230.33 374.33 231.5 372 231.5C274.8 231.5 220.8 231.5 210 231.5C207.67 231.5 206.5 230.33 206.5 228C206.5 177.6 206.5 149.6 206.5 144C206.5 141.67 207.67 140.5 210 140.5C307.2 140.5 361.2 140.5 372 140.5Z" id="ej0hHa5hZ"></path><path d="M265.12 201.71C265.14 201.94 265.09 202.18 264.99 202.39C264.89 202.6 264.74 202.79 264.55 202.95C264.08 203.27 263.5 203.43 262.9 203.4C262.71 203.4 261.74 203.4 260 203.4L260 197.21C261.71 197.21 262.65 197.21 262.84 197.21C263.41 197.17 263.96 197.32 264.42 197.62C264.6 197.76 264.75 197.94 264.84 198.14C264.94 198.34 264.98 198.56 264.97 198.78C264.99 199.12 264.87 199.45 264.64 199.72C264.42 199.97 264.12 200.14 263.78 200.21C264.16 200.27 264.51 200.46 264.76 200.74C265 201.01 265.13 201.36 265.12 201.71ZM262.57 199.8C262.84 199.82 263.12 199.75 263.34 199.6C263.43 199.52 263.5 199.43 263.55 199.32C263.59 199.22 263.61 199.1 263.6 198.99C263.61 198.88 263.59 198.77 263.55 198.66C263.5 198.56 263.43 198.46 263.34 198.39C263.11 198.23 262.83 198.16 262.55 198.18C262.47 198.18 262.07 198.18 261.35 198.18L261.35 199.8C262.08 199.8 262.49 199.8 262.57 199.8ZM263.68 201.89C263.73 201.78 263.75 201.66 263.75 201.55C263.75 201.43 263.73 201.31 263.68 201.2C263.63 201.09 263.55 200.99 263.45 200.91C263.21 200.75 262.92 200.67 262.63 200.69C262.54 200.69 262.12 200.69 261.35 200.69L261.35 202.39C262.13 202.39 262.56 202.39 262.64 202.39C262.93 202.41 263.22 202.33 263.46 202.18C263.56 202.1 263.63 202 263.68 201.89Z" id="m2GNSCweTh"></path><path d="M268.99 200.98L268.39 200.98L268.39 203.4L267.03 203.4L267.03 197.21C268.58 197.21 269.44 197.21 269.61 197.21C270.26 197.16 270.9 197.35 271.4 197.73C271.76 198.07 271.98 198.51 272.02 198.98C272.05 199.45 271.9 199.92 271.59 200.29C271.28 200.63 270.84 200.85 270.37 200.92C270.48 201.09 271.04 201.91 272.05 203.4L270.57 203.4L268.99 200.98ZM269.51 200.13C270.28 200.13 270.67 199.82 270.67 199.2C270.67 199.07 270.65 198.94 270.6 198.82C270.56 198.7 270.48 198.59 270.38 198.5C270.14 198.31 269.82 198.22 269.51 198.25C269.43 198.25 269.06 198.25 268.38 198.25L268.39 200.13C269.06 200.13 269.43 200.13 269.51 200.13Z" id="a5U6Sbylom"></path><path d="M275.3 202.15L274.82 203.4L273.39 203.4L275.88 197.28L277.42 197.28L279.91 203.4L278.48 203.4L278.01 202.15L275.3 202.15ZM276.66 198.6L275.66 201.21L277.65 201.21L276.66 198.6Z" id="b9PXmHWpS"></path><path d="M285.97 203.4L282.94 199.19L282.94 203.4L281.59 203.4L281.59 197.21L282.94 197.21L285.97 201.44L285.97 197.21L287.32 197.21L287.32 203.4L285.97 203.4Z" id="aWfnP4HA"></path><path d="M293.81 203.01C293.22 203.28 292.57 203.41 291.91 203.4C291.75 203.4 290.95 203.4 289.51 203.4L289.51 197.21C290.95 197.21 291.75 197.21 291.91 197.21C292.57 197.19 293.22 197.32 293.81 197.59C294.33 197.83 294.75 198.2 295.03 198.67C295.31 199.17 295.46 199.73 295.46 200.29C295.46 200.86 295.31 201.41 295.03 201.92C294.75 202.38 294.33 202.76 293.81 203.01ZM294.08 200.29C294.08 199.75 293.87 199.22 293.49 198.81C293.02 198.44 292.41 198.25 291.79 198.29C291.73 198.29 291.42 198.29 290.86 198.29L290.86 202.29C291.42 202.29 291.73 202.29 291.79 202.29C292.41 202.33 293.02 202.14 293.49 201.77C293.87 201.36 294.08 200.83 294.08 200.29Z" id="b5LP7wOAA"></path><path d="M295.92 177.52C295.92 178.99 295.92 190.8 295.92 192.27C295.92 192.27 278.5 186.24 278.86 177.52C278.86 176.53 278.86 171.62 278.86 162.77C290.48 166.79 296.17 171.7 295.92 177.52Z" id="a1C8QwgDDX"></path><path d="M322.54 185.08C322.54 184.62 322.54 180.92 322.54 180.46C317.96 182.08 314.07 185.01 311.46 188.82C314.75 186.74 318.56 185.46 322.54 185.08Z" id="ehMZ8Idof"></path><path d="M322.54 179.49C322.54 178.16 322.54 167.52 322.54 166.19C322.54 166.19 297.7 174.77 298.23 187.19C298.23 189.29 298.23 206.1 298.23 208.2C298.23 208.2 299.34 207.82 301.08 207.1C301.08 206.43 301.08 205.75 301.16 205.07C301.67 199.3 304.66 193.96 309.48 190.21C312.18 185.24 316.85 181.41 322.54 179.49Z" id="aaY5PNOJa"></path><path d="M307.99 193.71C304.99 196.95 303.17 200.96 302.8 205.19C302.76 205.59 302.74 205.99 302.73 206.4C304.14 205.78 305.78 205.01 307.51 204.1C307.07 202.1 306.94 200.05 307.12 198.01C307.25 196.56 307.54 195.12 307.99 193.71Z" id="cmnLOjS9X"></path><path d="M308.41 203.6C315.2 199.88 322.82 194.14 322.53 187.19C322.53 187.13 322.53 186.65 322.53 186.59C317.68 187.09 313.15 189.03 309.62 192.11C308.79 194.02 308.28 196.04 308.11 198.09C307.94 199.93 308.04 201.78 308.41 203.6Z" id="d5pftXGUDD"></path><path d="M572 140.5C574.33 140.5 575.5 141.67 575.5 144C575.5 194.4 575.5 222.4 575.5 228C575.5 230.33 574.33 231.5 572 231.5C474.8 231.5 420.8 231.5 410 231.5C407.67 231.5 406.5 230.33 406.5 228C406.5 177.6 406.5 149.6 406.5 144C406.5 141.67 407.67 140.5 410 140.5C507.2 140.5 561.2 140.5 572 140.5Z" id="c17u0ZYEFL"></path><path d="M490.82 181.42C490.82 181.13 490.82 178.82 490.82 178.54C490.82 177.65 491.02 176.98 491.42 176.52C491.82 176.06 492.51 175.83 493.49 175.84C494.4 175.84 495.06 176.03 495.44 176.42C495.86 176.92 496.06 177.53 496.02 178.15C496.02 178.19 496.02 178.42 496.02 178.82L494.38 178.82C494.38 178.41 494.38 178.18 494.38 178.14C494.38 177.91 494.37 177.69 494.33 177.47C494.31 177.31 494.22 177.17 494.1 177.07C493.93 176.95 493.71 176.9 493.5 176.91C493.28 176.9 493.05 176.96 492.88 177.08C492.73 177.19 492.64 177.35 492.6 177.52C492.56 177.75 492.54 177.99 492.54 178.23C492.54 178.58 492.54 181.38 492.54 181.73C492.51 182.07 492.59 182.4 492.75 182.71C492.83 182.81 492.94 182.9 493.08 182.95C493.21 183 493.36 183.02 493.5 183C493.71 183.02 493.92 182.96 494.08 182.85C494.22 182.73 494.3 182.58 494.33 182.42C494.36 182.19 494.38 181.95 494.38 181.72C494.38 181.67 494.38 181.44 494.38 181.01L496.02 181.01C496.02 181.4 496.02 181.61 496.02 181.66C496.06 182.3 495.86 182.94 495.45 183.47C495.07 183.9 494.43 184.11 493.49 184.11C492.54 184.11 491.83 183.88 491.42 183.41C490.98 182.82 490.77 182.12 490.82 181.42Z" id="a12aGesM6f"></path><path d="M497.64 181.47C497.64 181.17 497.64 178.74 497.64 178.44C497.64 177.58 497.84 176.93 498.26 176.49C498.67 176.05 499.36 175.83 500.34 175.84C501.3 175.84 501.99 176.05 502.4 176.49C502.82 176.93 503.03 177.58 503.03 178.44C503.03 178.74 503.03 181.17 503.03 181.47C503.03 182.33 502.82 182.98 502.4 183.44C501.98 183.89 501.29 184.11 500.34 184.11C499.38 184.11 498.67 183.88 498.26 183.44C497.84 182.99 497.64 182.34 497.64 181.47ZM501.3 181.81C501.3 181.44 501.3 178.47 501.3 178.1C501.32 177.8 501.25 177.5 501.1 177.22C501.02 177.11 500.9 177.03 500.77 176.98C500.63 176.93 500.48 176.91 500.34 176.93C500.19 176.91 500.04 176.93 499.9 176.98C499.77 177.03 499.65 177.11 499.56 177.22C499.42 177.49 499.35 177.8 499.37 178.1C499.37 178.47 499.37 181.46 499.37 181.83C499.35 182.14 499.41 182.45 499.56 182.73C499.66 182.82 499.78 182.9 499.91 182.95C500.04 183 500.19 183.03 500.33 183.03C500.48 183.03 500.62 183 500.75 182.95C500.89 182.9 501 182.82 501.1 182.73C501.1 182.73 501.1 182.72 501.1 182.71C501.25 182.32 501.31 182.02 501.3 181.81Z" id="azvhq1t9T"></path><path d="M506.77 175.92L508.1 181.52L509.46 175.92L511.18 175.92L511.35 184L510.08 184L509.94 178.39L508.63 184L507.61 184L506.25 178.37L506.13 184L504.84 184L505 175.92L506.77 175.92Z" id="c4NMXiUBfP"></path><path d="M516.08 175.92C517.67 175.92 518.46 176.69 518.46 178.22C518.46 179.68 517.63 180.41 515.96 180.41C515.9 180.41 515.58 180.41 515.02 180.41L515.02 184L513.32 184L513.33 175.92C514.98 175.92 515.9 175.92 516.08 175.92ZM516.18 179.34C516.34 179.29 516.49 179.22 516.62 179.12C516.81 178.85 516.9 178.53 516.86 178.21C516.87 177.96 516.84 177.72 516.78 177.48C516.75 177.4 516.71 177.32 516.65 177.25C516.59 177.19 516.52 177.13 516.44 177.09C516.2 176.99 515.94 176.95 515.68 176.96C515.64 176.96 515.42 176.96 515.02 176.96L515.02 179.38L515.68 179.38C515.91 179.38 516.07 179.37 516.18 179.34Z" id="b1Q6YwOmn"></path><path d="M522.73 175.92L524.61 184L523.02 184L522.65 182.14L521.02 182.14L520.64 184L519.04 184L520.91 175.92L522.73 175.92ZM521.83 177.81L521.2 181.2L522.47 181.2L521.83 177.81Z" id="cxcr2Qc6"></path><path d="M527.31 175.92L529.58 180.53L529.58 175.92L530.99 175.92L530.99 184L529.86 184L527.57 179.19L527.57 184L526.11 184L526.12 175.92L527.31 175.92Z" id="brVdO4ufP"></path><path d="M532.4 175.94L534 175.94L535.15 179.14L536.23 175.94L537.79 175.94L535.93 180.92L535.93 184L534.29 184L534.29 180.92L532.4 175.94Z" id="a1390OthON"></path><path d="M494.05 187.95L492.66 187.95L492.66 191.24L492.08 191.24L492.08 187.95L490.69 187.95L490.69 187.53L494.05 187.53L494.05 187.95Z" id="e2nDvoGcO"></path><path d="M497.94 191.24C497.9 191.24 497.85 191.23 497.82 191.2C497.78 191.18 497.76 191.15 497.74 191.12C497.71 191.06 497.58 190.76 497.34 190.24L495.42 190.24C495.18 190.76 495.05 191.06 495.02 191.12C495.01 191.15 494.99 191.19 494.96 191.22C494.92 191.24 494.88 191.25 494.83 191.25C494.8 191.25 494.65 191.25 494.38 191.25L496.08 187.55L496.67 187.55L498.39 191.24C498.12 191.24 497.97 191.24 497.94 191.24ZM497.18 189.86C496.77 188.96 496.55 188.45 496.5 188.35C496.45 188.24 496.41 188.12 496.38 188C496.35 188.08 496.33 188.14 496.31 188.2C496.31 188.21 496.29 188.26 496.25 188.36L495.58 189.86L497.18 189.86Z" id="aftb8aI0l"></path><path d="M501.64 190.87C501.73 190.86 501.82 190.85 501.91 190.83C502 190.81 502.08 190.79 502.16 190.76C502.23 190.73 502.31 190.7 502.38 190.67C502.38 190.61 502.38 190.34 502.38 189.84C501.97 189.84 501.75 189.84 501.7 189.84C501.69 189.84 501.67 189.84 501.66 189.83C501.64 189.83 501.63 189.82 501.61 189.81C501.6 189.8 501.59 189.79 501.59 189.78C501.58 189.77 501.58 189.75 501.58 189.74C501.58 189.72 501.58 189.63 501.58 189.46L502.9 189.46C502.9 190.31 502.9 190.78 502.9 190.88C502.79 190.94 502.68 191 502.56 191.05C502.44 191.1 502.31 191.15 502.18 191.18C502.04 191.21 501.9 191.24 501.76 191.25C501.59 191.27 501.43 191.28 501.26 191.28C500.97 191.28 500.68 191.23 500.4 191.14C500.15 191.05 499.92 190.92 499.72 190.75C499.54 190.58 499.39 190.38 499.29 190.17C499.18 189.92 499.13 189.66 499.13 189.4C499.13 189.13 499.18 188.87 499.28 188.62C499.38 188.4 499.53 188.2 499.72 188.04C499.91 187.87 500.15 187.74 500.4 187.65C500.69 187.56 501 187.51 501.31 187.51C501.47 187.51 501.63 187.52 501.78 187.55C501.92 187.57 502.06 187.6 502.19 187.64C502.31 187.68 502.42 187.73 502.53 187.79C502.63 187.85 502.73 187.91 502.82 187.98C502.8 188 502.68 188.19 502.66 188.21C502.65 188.23 502.63 188.25 502.6 188.26C502.58 188.27 502.55 188.28 502.53 188.28C502.49 188.28 502.45 188.27 502.42 188.25C502.37 188.23 502.32 188.2 502.26 188.16C502.18 188.12 502.11 188.09 502.03 188.06C501.93 188.03 501.82 188 501.72 187.98C501.57 187.96 501.43 187.95 501.28 187.95C501.06 187.95 500.84 187.98 500.63 188.05C500.44 188.12 500.27 188.22 500.13 188.34C499.99 188.48 499.88 188.63 499.81 188.8C499.66 189.21 499.66 189.64 499.81 190.04C499.89 190.21 500 190.37 500.15 190.51C500.29 190.63 500.46 190.73 500.65 190.8C500.86 190.86 501.09 190.89 501.32 190.87C501.43 190.88 501.53 190.88 501.64 190.87Z" id="b1k8n06oL8"></path><path d="M508.59 190.81L508.59 191.24L506.17 191.24L506.17 187.53L506.75 187.53L506.74 190.81L508.59 190.81Z" id="d1pUMXpogh"></path><path d="M509.94 191.24L509.94 187.53L510.52 187.53L510.52 191.24L509.94 191.24Z" id="ewY0j7bHn"></path><path d="M512.77 187.62C513.02 187.9 515 190.13 515.25 190.41C515.25 190.37 515.25 190.32 515.25 190.28C515.25 190.24 515.25 190.2 515.25 190.16C515.25 189.98 515.25 189.1 515.25 187.52L515.76 187.52L515.76 191.24C515.59 191.24 515.49 191.24 515.47 191.24C515.42 191.24 515.38 191.23 515.34 191.22C515.31 191.2 515.28 191.17 515.25 191.15C515 190.87 513.02 188.63 512.77 188.36C512.77 188.4 512.77 188.44 512.77 188.48C512.77 188.52 512.77 188.56 512.77 188.6C512.77 188.77 512.77 189.65 512.77 191.24L512.28 191.24L512.28 187.53C512.47 187.53 512.57 187.53 512.59 187.53C512.62 187.53 512.65 187.54 512.68 187.55C512.72 187.57 512.75 187.59 512.77 187.62Z" id="cCJMTYXHb"></path><path d="M520.04 187.94L517.98 187.94L517.98 189.16L519.65 189.16L519.65 189.56L517.98 189.56L517.98 190.82L520.04 190.82L520.04 191.23L517.38 191.23L517.38 187.53L520.04 187.53L520.04 187.94Z" id="d2ROqHbk93"></path><path d="M484.96 170.98L484.96 193.14L459.16 186.82L459.16 164.66L484.96 170.98ZM457.51 187.89L486.61 195.03L486.61 169.91L457.51 162.77L457.51 187.89Z" id="bIPEWzPZB"></path><path d="M444 199.55L444 174.43L473.1 181.57L473.1 206.69L444 199.55Z" id="b3FyUT8ER8"></path><path d="M483.45 170.62L472.62 179.97L447.16 173.72L457.99 164.37L483.45 170.62ZM444 174.43L473.1 181.57L486.61 169.91L457.51 162.77L444 174.43Z" id="b184hHLgZX"></path><path d="M486.61 195.03L474.74 192.12L474.74 205.28L486.61 195.03Z" id="c15nyO7exh"></path></defs><g><g><g><use xlink:href="#e1Cv0mhRPW" opacity="1" fill="#2196f3" fill-opacity="1"></use><g><use xlink:href="#e1Cv0mhRPW" opacity="1" fill-opacity="0" stroke="#000000" stroke-width="1" stroke-opacity="0"></use></g></g><g><use xlink:href="#a2DpYZjG0f" opacity="1" fill="#2196f3" fill-opacity="1"></use><g><use xlink:href="#a2DpYZjG0f" opacity="1" fill-opacity="0" stroke="#000000" stroke-width="1" stroke-opacity="0"></use></g></g><g><use xlink:href="#a1i2sgv3hq" opacity="1" fill="#2196f3" fill-opacity="1"></use><g><use xlink:href="#a1i2sgv3hq" opacity="1" fill-opacity="0" stroke="#000000" stroke-width="1" stroke-opacity="0"></use></g></g><g><use xlink:href="#a2EyS8hl65" opacity="1" fill="#2196f3" fill-opacity="1"></use><g><use xlink:href="#a2EyS8hl65" opacity="1" fill-opacity="0" stroke="#000000" stroke-width="1" stroke-opacity="0"></use></g></g><g><use xlink:href="#ej0hHa5hZ" opacity="1" fill="#000000" fill-opacity="0"></use><g><use xlink:href="#ej0hHa5hZ" opacity="1" fill-opacity="0" stroke="#afb1b8" stroke-width="1" stroke-opacity="1"></use></g></g><g><use xlink:href="#m2GNSCweTh" opacity="1" fill="#afb1b8" fill-opacity="1"></use><g><use xlink:href="#m2GNSCweTh" opacity="1" fill-opacity="0" stroke="#000000" stroke-width="1" stroke-opacity="0"></use></g></g><g><use xlink:href="#a5U6Sbylom" opacity="1" fill="#afb1b8" fill-opacity="1"></use><g><use xlink:href="#a5U6Sbylom" opacity="1" fill-opacity="0" stroke="#000000" stroke-width="1" stroke-opacity="0"></use></g></g><g><use xlink:href="#b9PXmHWpS" opacity="1" fill="#afb1b8" fill-opacity="1"></use><g><use xlink:href="#b9PXmHWpS" opacity="1" fill-opacity="0" stroke="#000000" stroke-width="1" stroke-opacity="0"></use></g></g><g><use xlink:href="#aWfnP4HA" opacity="1" fill="#afb1b8" fill-opacity="1"></use><g><use xlink:href="#aWfnP4HA" opacity="1" fill-opacity="0" stroke="#000000" stroke-width="1" stroke-opacity="0"></use></g></g><g><use xlink:href="#b5LP7wOAA" opacity="1" fill="#afb1b8" fill-opacity="1"></use><g><use xlink:href="#b5LP7wOAA" opacity="1" fill-opacity="0" stroke="#000000" stroke-width="1" stroke-opacity="0"></use></g></g><g><use xlink:href="#a1C8QwgDDX" opacity="1" fill="#afb1b8" fill-opacity="1"></use><g><use xlink:href="#a1C8QwgDDX" opacity="1" fill-opacity="0" stroke="#000000" stroke-width="1" stroke-opacity="0"></use></g></g><g><use xlink:href="#ehMZ8Idof" opacity="1" fill="#afb1b8" fill-opacity="1"></use><g><use xlink:href="#ehMZ8Idof" opacity="1" fill-opacity="0" stroke="#000000" stroke-width="1" stroke-opacity="0"></use></g></g><g><use xlink:href="#aaY5PNOJa" opacity="1" fill="#afb1b8" fill-opacity="1"></use><g><use xlink:href="#aaY5PNOJa" opacity="1" fill-opacity="0" stroke="#000000" stroke-width="1" stroke-opacity="0"></use></g></g><g><use xlink:href="#cmnLOjS9X" opacity="1" fill="#afb1b8" fill-opacity="1"></use><g><use xlink:href="#cmnLOjS9X" opacity="1" fill-opacity="0" stroke="#000000" stroke-width="1" stroke-opacity="0"></use></g></g><g><use xlink:href="#d5pftXGUDD" opacity="1" fill="#afb1b8" fill-opacity="1"></use><g><use xlink:href="#d5pftXGUDD" opacity="1" fill-opacity="0" stroke="#000000" stroke-width="1" stroke-opacity="0"></use></g></g><g><use xlink:href="#c17u0ZYEFL" opacity="1" fill="#000000" fill-opacity="0"></use><g><use xlink:href="#c17u0ZYEFL" opacity="1" fill-opacity="0" stroke="#afb1b8" stroke-width="1" stroke-opacity="1"></use></g></g><g><use xlink:href="#a12aGesM6f" opacity="1" fill="#afb1b8" fill-opacity="1"></use><g><use xlink:href="#a12aGesM6f" opacity="1" fill-opacity="0" stroke="#000000" stroke-width="1" stroke-opacity="0"></use></g></g><g><use xlink:href="#azvhq1t9T" opacity="1" fill="#afb1b8" fill-opacity="1"></use><g><use xlink:href="#azvhq1t9T" opacity="1" fill-opacity="0" stroke="#000000" stroke-width="1" stroke-opacity="0"></use></g></g><g><use xlink:href="#c4NMXiUBfP" opacity="1" fill="#afb1b8" fill-opacity="1"></use><g><use xlink:href="#c4NMXiUBfP" opacity="1" fill-opacity="0" stroke="#000000" stroke-width="1" stroke-opacity="0"></use></g></g><g><use xlink:href="#b1Q6YwOmn" opacity="1" fill="#afb1b8" fill-opacity="1"></use><g><use xlink:href="#b1Q6YwOmn" opacity="1" fill-opacity="0" stroke="#000000" stroke-width="1" stroke-opacity="0"></use></g></g><g><use xlink:href="#cxcr2Qc6" opacity="1" fill="#afb1b8" fill-opacity="1"></use><g><use xlink:href="#cxcr2Qc6" opacity="1" fill-opacity="0" stroke="#000000" stroke-width="1" stroke-opacity="0"></use></g></g><g><use xlink:href="#brVdO4ufP" opacity="1" fill="#afb1b8" fill-opacity="1"></use><g><use xlink:href="#brVdO4ufP" opacity="1" fill-opacity="0" stroke="#000000" stroke-width="1" stroke-opacity="0"></use></g></g><g><use xlink:href="#a1390OthON" opacity="1" fill="#afb1b8" fill-opacity="1"></use><g><use xlink:href="#a1390OthON" opacity="1" fill-opacity="0" stroke="#000000" stroke-width="1" stroke-opacity="0"></use></g></g><g><use xlink:href="#e2nDvoGcO" opacity="1" fill="#afb1b8" fill-opacity="1"></use><g><use xlink:href="#e2nDvoGcO" opacity="1" fill-opacity="0" stroke="#000000" stroke-width="1" stroke-opacity="0"></use></g></g><g><use xlink:href="#aftb8aI0l" opacity="1" fill="#afb1b8" fill-opacity="1"></use><g><use xlink:href="#aftb8aI0l" opacity="1" fill-opacity="0" stroke="#000000" stroke-width="1" stroke-opacity="0"></use></g></g><g><use xlink:href="#b1k8n06oL8" opacity="1" fill="#afb1b8" fill-opacity="1"></use><g><use xlink:href="#b1k8n06oL8" opacity="1" fill-opacity="0" stroke="#000000" stroke-width="1" stroke-opacity="0"></use></g></g><g><use xlink:href="#d1pUMXpogh" opacity="1" fill="#afb1b8" fill-opacity="1"></use><g><use xlink:href="#d1pUMXpogh" opacity="1" fill-opacity="0" stroke="#000000" stroke-width="1" stroke-opacity="0"></use></g></g><g><use xlink:href="#ewY0j7bHn" opacity="1" fill="#afb1b8" fill-opacity="1"></use><g><use xlink:href="#ewY0j7bHn" opacity="1" fill-opacity="0" stroke="#000000" stroke-width="1" stroke-opacity="0"></use></g></g><g><use xlink:href="#cCJMTYXHb" opacity="1" fill="#afb1b8" fill-opacity="1"></use><g><use xlink:href="#cCJMTYXHb" opacity="1" fill-opacity="0" stroke="#000000" stroke-width="1" stroke-opacity="0"></use></g></g><g><use xlink:href="#d2ROqHbk93" opacity="1" fill="#afb1b8" fill-opacity="1"></use><g><use xlink:href="#d2ROqHbk93" opacity="1" fill-opacity="0" stroke="#000000" stroke-width="1" stroke-opacity="0"></use></g></g><g><use xlink:href="#bIPEWzPZB" opacity="1" fill="#afb1b8" fill-opacity="1"></use><g><use xlink:href="#bIPEWzPZB" opacity="1" fill-opacity="0" stroke="#000000" stroke-width="1" stroke-opacity="0"></use></g></g><g><use xlink:href="#b3FyUT8ER8" opacity="1" fill="#afb1b8" fill-opacity="1"></use><g><use xlink:href="#b3FyUT8ER8" opacity="1" fill-opacity="0" stroke="#000000" stroke-width="1" stroke-opacity="0"></use></g></g><g><use xlink:href="#b184hHLgZX" opacity="1" fill="#afb1b8" fill-opacity="1"></use><g><use xlink:href="#b184hHLgZX" opacity="1" fill-opacity="0" stroke="#000000" stroke-width="1" stroke-opacity="0"></use></g></g><g><use xlink:href="#c15nyO7exh" opacity="1" fill="#afb1b8" fill-opacity="1"></use><g><use xlink:href="#c15nyO7exh" opacity="1" fill-opacity="0" stroke="#000000" stroke-width="1" stroke-opacity="0"></use></g></g></g></g></svg>