<?xml version="1.0" encoding="UTF-8" standalone="no"?>
<!DOCTYPE svg PUBLIC "-//W3C//DTD SVG 1.1//EN" "http://www.w3.org/Graphics/SVG/1.1/DTD/svg11.dtd">
<svg version="1.1" xmlns="http://www.w3.org/2000/svg" xmlns:xlink="http://www.w3.org/1999/xlink" preserveAspectRatio="xMidYMid meet" viewBox="0 0 44 44" width="44" height="44"><defs><path d="M199.56 37.56C195.58 41.54 190.08 44 184 44C177.93 44 172.43 41.54 168.44 37.56C164.46 33.58 162 28.08 162 22C162 15.92 164.46 10.42 168.44 6.44C172.43 2.46 177.93 0 184 0C190.08 0 195.58 2.46 199.56 6.44C203.54 10.42 206 15.92 206 22C206 28.08 203.54 33.58 199.56 37.56Z" id="fwn3vg3wp"></path><path d="M194 32L194 32C194 27.6 194 25.15 194 24.66C194 21.08 193.23 18.31 189.03 18.31C187.02 18.31 185.66 19.42 185.11 20.47C185.11 20.47 185.09 20.47 185.05 20.47L185.05 18.65L181.07 18.65L181.07 32L185.22 32C185.22 28.03 185.22 25.83 185.22 25.39C185.22 23.65 185.55 21.96 187.7 21.96C189.83 21.96 189.86 23.95 189.86 25.5C189.86 25.93 189.86 28.1 189.86 32L194 32L194 32Z" id="a1kUKxlSZo"></path><path d="M178.48 18.65L178.48 32L174.33 32L174.33 18.65L178.48 18.65Z" id="ba4cM6Lhkg"></path><path d="M174 14.4C174 15.73 175.08 16.83 176.4 16.83C177.73 16.83 178.8 15.73 178.8 14.4C178.8 13.08 177.73 12 176.4 12C176.4 12 176.4 12 176.4 12C174.8 12.72 174 13.52 174 14.4Z" id="daWy5SMxd"></path><path d="M145.56 37.56C141.57 41.54 136.07 44 130 44C123.93 44 118.43 41.54 114.44 37.56C110.46 33.58 108 28.08 108 22C108 15.92 110.46 10.42 114.44 6.44C118.43 2.46 123.93 0 130 0C136.07 0 141.57 2.46 145.56 6.44C149.54 10.42 152 15.92 152 22C152 28.08 149.54 33.58 145.56 37.56Z" id="dd4rednC"></path><path d="M135.16 15.32C135.16 13.41 135.16 12.35 135.16 12.14C134.84 12.1 133.76 12 132.5 12C129.86 12 128.06 13.66 128.06 16.7C128.06 16.89 128.06 17.82 128.06 19.5L125.16 19.5L125.16 23.06L128.06 23.06L128.06 32L131.62 32L131.62 23.06L134.41 23.06L134.85 19.5L131.62 19.5C131.62 18.03 131.62 17.21 131.62 17.05C131.62 16.02 131.9 15.32 133.33 15.32C133.57 15.32 134.18 15.32 135.16 15.32Z" id="d3BseD6JuW"></path><path d="M91.56 37.56C87.58 41.54 82.08 44 76 44C69.92 44 64.42 41.54 60.44 37.56C56.46 33.58 54 28.08 54 22C54 15.92 56.46 10.42 60.44 6.44C64.42 2.46 69.92 0 76 0C82.08 0 87.58 2.46 91.56 6.44C95.54 10.42 98 15.92 98 22C98 28.08 95.54 33.58 91.56 37.56Z" id="c3GqN3mfx8"></path><path d="M83.64 16.45C84.49 15.94 85.14 15.14 85.44 14.18C84.65 14.65 83.77 14.99 82.84 15.17C82.09 14.37 81.02 13.88 79.85 13.88C77.58 13.88 75.75 15.72 75.75 17.98C75.75 18.3 75.78 18.61 75.84 18.91C72.44 18.74 69.42 17.11 67.39 14.62C67.04 15.24 66.83 15.94 66.83 16.7C66.83 18.12 67.56 19.37 68.65 20.1C67.99 20.09 67.35 19.9 66.8 19.6C66.8 19.61 66.8 19.63 66.8 19.64C66.8 21.64 68.22 23.29 70.08 23.67C69.75 23.76 69.39 23.81 69.01 23.81C68.75 23.81 68.48 23.79 68.23 23.74C68.77 25.36 70.27 26.55 72.07 26.59C70.67 27.68 68.9 28.34 66.98 28.34C66.65 28.34 66.32 28.33 66 28.28C67.82 29.46 69.97 30.13 72.29 30.13C79.83 30.13 83.96 23.88 83.96 18.46C83.96 18.28 83.95 18.1 83.95 17.93C84.76 17.35 85.44 16.63 86 15.8C85.26 16.13 84.46 16.34 83.64 16.45Z" id="a1soUphchS"></path><path d="M31.52 15.45C31.26 14.78 30.87 14.18 30.36 13.68C29.86 13.17 29.25 12.78 28.59 12.53C27.95 12.28 27.23 12.11 26.16 12.06C25.09 12.01 24.75 12 22.04 12C19.32 12 18.98 12.01 17.92 12.06C16.85 12.11 16.12 12.28 15.49 12.52C14.82 12.78 14.22 13.17 13.72 13.68C13.21 14.18 12.81 14.79 12.56 15.45C12.32 16.09 12.14 16.81 12.1 17.88C12.05 18.95 12.04 19.29 12.04 22C12.04 24.72 12.05 25.06 12.09 26.12C12.14 27.19 12.31 27.92 12.56 28.55C12.81 29.22 13.21 29.82 13.72 30.32C14.22 30.83 14.82 31.23 15.49 31.48C16.12 31.72 16.85 31.89 17.91 31.94C18.98 31.99 19.32 32 22.03 32C24.75 32 25.09 31.99 26.16 31.94C27.22 31.89 27.95 31.72 28.58 31.48C29.93 30.96 30.99 29.89 31.51 28.55C31.75 27.91 31.93 27.19 31.97 26.12C32.02 25.06 32.03 24.72 32.03 22C32.03 19.29 32.03 18.95 31.98 17.88C31.93 16.82 31.76 16.09 31.52 15.45ZM29.84 27.9C29.5 28.77 28.81 29.46 27.94 29.8C27.59 29.94 27.05 30.1 26.08 30.14C25.03 30.19 24.71 30.2 22.04 30.2C19.37 30.2 19.05 30.19 18 30.14C17.02 30.1 16.5 29.94 16.15 29.8C15.71 29.64 15.32 29.39 15 29.05C14.66 28.73 14.41 28.34 14.25 27.91C14.11 27.55 13.95 27.02 13.91 26.05C13.86 24.99 13.85 24.68 13.85 22.01C13.85 19.34 13.86 19.02 13.91 17.97C13.95 16.99 14.11 16.47 14.25 16.11C14.41 15.68 14.66 15.29 15 14.97C15.32 14.63 15.72 14.38 16.15 14.22C16.5 14.08 17.03 13.92 18.01 13.88C19.06 13.83 19.38 13.82 22.04 13.82C24.72 13.82 25.03 13.83 26.08 13.88C27.06 13.92 27.59 14.08 27.94 14.22C28.37 14.38 28.77 14.63 29.09 14.97C29.42 15.29 29.68 15.68 29.84 16.11C29.97 16.47 30.14 17 30.18 17.97C30.23 19.02 30.24 19.34 30.24 22.01C30.24 24.68 30.23 24.99 30.18 26.05C30.14 27.02 29.97 27.55 29.84 27.9Z" id="csTGigxWQ"></path><path d="M16.9 22C16.9 24.84 19.2 27.14 22.04 27.14C24.87 27.14 27.17 24.84 27.17 22C27.17 19.17 24.87 16.86 22.04 16.86C19.2 16.86 16.9 19.17 16.9 22ZM18.7 22C18.7 20.16 20.2 18.67 22.04 18.67C23.88 18.67 25.37 20.16 25.37 22C25.37 23.84 23.88 25.33 22.04 25.33C20.2 25.33 18.7 23.84 18.7 22Z" id="aRwrh2cfj"></path><path d="M27.38 17.86C26.72 17.86 26.18 17.32 26.18 16.66C26.18 16 26.72 15.46 27.38 15.46C28.04 15.46 28.58 16 28.58 16.66C28.58 17.32 28.04 17.86 27.38 17.86Z" id="c2cuiM9iUx"></path><path d="" id="a7e5MrN95"></path></defs><g><g><g><use xlink:href="#fwn3vg3wp" opacity="1" fill="#ffffff" fill-opacity="0.1"></use><g><use xlink:href="#fwn3vg3wp" opacity="1" fill-opacity="0" stroke="#000000" stroke-width="1" stroke-opacity="0"></use></g></g><g><use xlink:href="#a1kUKxlSZo" opacity="1" fill="#ffffff" fill-opacity="1"></use><g><use xlink:href="#a1kUKxlSZo" opacity="1" fill-opacity="0" stroke="#000000" stroke-width="1" stroke-opacity="0"></use></g></g><g><use xlink:href="#ba4cM6Lhkg" opacity="1" fill="#ffffff" fill-opacity="1"></use><g><use xlink:href="#ba4cM6Lhkg" opacity="1" fill-opacity="0" stroke="#000000" stroke-width="1" stroke-opacity="0"></use></g></g><g><use xlink:href="#daWy5SMxd" opacity="1" fill="#ffffff" fill-opacity="1"></use><g><use xlink:href="#daWy5SMxd" opacity="1" fill-opacity="0" stroke="#000000" stroke-width="1" stroke-opacity="0"></use></g></g><g><use xlink:href="#dd4rednC" opacity="1" fill="#ffffff" fill-opacity="0.1"></use><g><use xlink:href="#dd4rednC" opacity="1" fill-opacity="0" stroke="#000000" stroke-width="1" stroke-opacity="0"></use></g></g><g><use xlink:href="#d3BseD6JuW" opacity="1" fill="#ffffff" fill-opacity="1"></use><g><use xlink:href="#d3BseD6JuW" opacity="1" fill-opacity="0" stroke="#000000" stroke-width="1" stroke-opacity="0"></use></g></g><g><use xlink:href="#c3GqN3mfx8" opacity="1" fill="#2196f3" fill-opacity="1"></use><g><use xlink:href="#c3GqN3mfx8" opacity="1" fill-opacity="0" stroke="#000000" stroke-width="1" stroke-opacity="0"></use></g></g><g><use xlink:href="#a1soUphchS" opacity="1" fill="#ffffff" fill-opacity="1"></use><g><use xlink:href="#a1soUphchS" opacity="1" fill-opacity="0" stroke="#000000" stroke-width="1" stroke-opacity="0"></use></g></g><g><use xlink:href="#csTGigxWQ" opacity="1" fill="#ffffff" fill-opacity="1"></use><g><use xlink:href="#csTGigxWQ" opacity="1" fill-opacity="0" stroke="#000000" stroke-width="1" stroke-opacity="0"></use></g></g><g><use xlink:href="#aRwrh2cfj" opacity="1" fill="#ffffff" fill-opacity="1"></use><g><use xlink:href="#aRwrh2cfj" opacity="1" fill-opacity="0" stroke="#000000" stroke-width="1" stroke-opacity="0"></use></g></g><g><use xlink:href="#c2cuiM9iUx" opacity="1" fill="#ffffff" fill-opacity="1"></use><g><use xlink:href="#c2cuiM9iUx" opacity="1" fill-opacity="0" stroke="#000000" stroke-width="1" stroke-opacity="0"></use></g></g><g><g><use xlink:href="#a7e5MrN95" opacity="1" fill-opacity="0" stroke="#000000" stroke-width="1" stroke-opacity="1"></use></g></g></g></g></svg>