<?xml version="1.0" encoding="UTF-8" standalone="no"?>
<!DOCTYPE svg PUBLIC "-//W3C//DTD SVG 1.1//EN" "http://www.w3.org/Graphics/SVG/1.1/DTD/svg11.dtd">
<svg version="1.1" xmlns="http://www.w3.org/2000/svg" xmlns:xlink="http://www.w3.org/1999/xlink" preserveAspectRatio="xMidYMid meet" viewBox="0 0 44 44" width="44" height="44"><defs><path d="M199.56 37.56C195.58 41.54 190.08 44 184 44C177.93 44 172.43 41.54 168.44 37.56C164.46 33.58 162 28.08 162 22C162 15.92 164.46 10.42 168.44 6.44C172.43 2.46 177.93 0 184 0C190.08 0 195.58 2.46 199.56 6.44C203.54 10.42 206 15.92 206 22C206 28.08 203.54 33.58 199.56 37.56Z" id="fwn3vg3wp"></path><path d="M194 32L194 32C194 27.6 194 25.15 194 24.66C194 21.08 193.23 18.31 189.03 18.31C187.02 18.31 185.66 19.42 185.11 20.47C185.11 20.47 185.09 20.47 185.05 20.47L185.05 18.65L181.07 18.65L181.07 32L185.22 32C185.22 28.03 185.22 25.83 185.22 25.39C185.22 23.65 185.55 21.96 187.7 21.96C189.83 21.96 189.86 23.95 189.86 25.5C189.86 25.93 189.86 28.1 189.86 32L194 32L194 32Z" id="a1kUKxlSZo"></path><path d="M178.48 18.65L178.48 32L174.33 32L174.33 18.65L178.48 18.65Z" id="ba4cM6Lhkg"></path><path d="M174 14.4C174 15.73 175.08 16.83 176.4 16.83C177.73 16.83 178.8 15.73 178.8 14.4C178.8 13.08 177.73 12 176.4 12C176.4 12 176.4 12 176.4 12C174.8 12.72 174 13.52 174 14.4Z" id="daWy5SMxd"></path><path d="M27.16 15.32C27.16 13.41 27.16 12.35 27.16 12.14C26.84 12.1 25.76 12 24.5 12C21.86 12 20.06 13.66 20.06 16.7C20.06 16.89 20.06 17.82 20.06 19.5L17.16 19.5L17.16 23.06L20.06 23.06L20.06 32L23.62 32L23.62 23.06L26.41 23.06L26.85 19.5L23.62 19.5C23.62 18.03 23.62 17.21 23.62 17.05C23.62 16.02 23.9 15.32 25.33 15.32C25.57 15.32 26.18 15.32 27.16 15.32Z" id="eFbaF6ozV"></path><path d="" id="a7e5MrN95"></path></defs><g><g><g><use xlink:href="#fwn3vg3wp" opacity="1" fill="#ffffff" fill-opacity="0.1"></use><g><use xlink:href="#fwn3vg3wp" opacity="1" fill-opacity="0" stroke="#000000" stroke-width="1" stroke-opacity="0"></use></g></g><g><use xlink:href="#a1kUKxlSZo" opacity="1" fill="#ffffff" fill-opacity="1"></use><g><use xlink:href="#a1kUKxlSZo" opacity="1" fill-opacity="0" stroke="#000000" stroke-width="1" stroke-opacity="0"></use></g></g><g><use xlink:href="#ba4cM6Lhkg" opacity="1" fill="#ffffff" fill-opacity="1"></use><g><use xlink:href="#ba4cM6Lhkg" opacity="1" fill-opacity="0" stroke="#000000" stroke-width="1" stroke-opacity="0"></use></g></g><g><use xlink:href="#daWy5SMxd" opacity="1" fill="#ffffff" fill-opacity="1"></use><g><use xlink:href="#daWy5SMxd" opacity="1" fill-opacity="0" stroke="#000000" stroke-width="1" stroke-opacity="0"></use></g></g><g><use xlink:href="#eFbaF6ozV" opacity="1" fill="#ffffff" fill-opacity="1"></use><g><use xlink:href="#eFbaF6ozV" opacity="1" fill-opacity="0" stroke="#000000" stroke-width="1" stroke-opacity="0"></use></g></g><g><g><use xlink:href="#a7e5MrN95" opacity="1" fill-opacity="0" stroke="#000000" stroke-width="1" stroke-opacity="1"></use></g></g></g></g></svg>