<?xml version="1.0" encoding="UTF-8" standalone="no"?>
<!DOCTYPE svg PUBLIC "-//W3C//DTD SVG 1.1//EN" "http://www.w3.org/Graphics/SVG/1.1/DTD/svg11.dtd">
<svg version="1.1" xmlns="http://www.w3.org/2000/svg" xmlns:xlink="http://www.w3.org/1999/xlink" preserveAspectRatio="xMidYMid meet" viewBox="0 0 44 44" width="44" height="44"><defs><path d="M199.56 37.56C195.58 41.54 190.08 44 184 44C177.93 44 172.43 41.54 168.44 37.56C164.46 33.58 162 28.08 162 22C162 15.92 164.46 10.42 168.44 6.44C172.43 2.46 177.93 0 184 0C190.08 0 195.58 2.46 199.56 6.44C203.54 10.42 206 15.92 206 22C206 28.08 203.54 33.58 199.56 37.56Z" id="fwn3vg3wp"></path><path d="M194 32L194 32C194 27.6 194 25.15 194 24.66C194 21.08 193.23 18.31 189.03 18.31C187.02 18.31 185.66 19.42 185.11 20.47C185.11 20.47 185.09 20.47 185.05 20.47L185.05 18.65L181.07 18.65L181.07 32L185.22 32C185.22 28.03 185.22 25.83 185.22 25.39C185.22 23.65 185.55 21.96 187.7 21.96C189.83 21.96 189.86 23.95 189.86 25.5C189.86 25.93 189.86 28.1 189.86 32L194 32L194 32Z" id="a1kUKxlSZo"></path><path d="M178.48 18.65L178.48 32L174.33 32L174.33 18.65L178.48 18.65Z" id="ba4cM6Lhkg"></path><path d="M174 14.4C174 15.73 175.08 16.83 176.4 16.83C177.73 16.83 178.8 15.73 178.8 14.4C178.8 13.08 177.73 12 176.4 12C176.4 12 176.4 12 176.4 12C174.8 12.72 174 13.52 174 14.4Z" id="daWy5SMxd"></path><path d="M145.56 37.56C141.57 41.54 136.07 44 130 44C123.93 44 118.43 41.54 114.44 37.56C110.46 33.58 108 28.08 108 22C108 15.92 110.46 10.42 114.44 6.44C118.43 2.46 123.93 0 130 0C136.07 0 141.57 2.46 145.56 6.44C149.54 10.42 152 15.92 152 22C152 28.08 149.54 33.58 145.56 37.56Z" id="dd4rednC"></path><path d="M135.16 15.32C135.16 13.41 135.16 12.35 135.16 12.14C134.84 12.1 133.76 12 132.5 12C129.86 12 128.06 13.66 128.06 16.7C128.06 16.89 128.06 17.82 128.06 19.5L125.16 19.5L125.16 23.06L128.06 23.06L128.06 32L131.62 32L131.62 23.06L134.41 23.06L134.85 19.5L131.62 19.5C131.62 18.03 131.62 17.21 131.62 17.05C131.62 16.02 131.9 15.32 133.33 15.32C133.57 15.32 134.18 15.32 135.16 15.32Z" id="d3BseD6JuW"></path><path d="M29.64 16.45C30.49 15.94 31.14 15.14 31.44 14.18C30.65 14.65 29.77 14.99 28.84 15.17C28.09 14.37 27.02 13.88 25.85 13.88C23.58 13.88 21.75 15.72 21.75 17.98C21.75 18.3 21.78 18.61 21.84 18.91C18.44 18.74 15.42 17.11 13.39 14.62C13.04 15.24 12.83 15.94 12.83 16.7C12.83 18.12 13.56 19.37 14.65 20.1C13.99 20.09 13.35 19.9 12.8 19.6C12.8 19.61 12.8 19.63 12.8 19.64C12.8 21.64 14.22 23.29 16.08 23.67C15.75 23.76 15.39 23.81 15.01 23.81C14.75 23.81 14.48 23.79 14.23 23.74C14.77 25.36 16.27 26.55 18.06 26.59C16.67 27.68 14.9 28.34 12.98 28.34C12.64 28.34 12.32 28.33 12 28.28C13.82 29.46 15.97 30.13 18.29 30.13C25.83 30.13 29.96 23.88 29.96 18.46C29.96 18.28 29.95 18.1 29.94 17.93C30.76 17.35 31.44 16.63 32 15.8C31.26 16.13 30.46 16.34 29.64 16.45Z" id="d3ADtRkFtT"></path><path d="" id="a7e5MrN95"></path></defs><g><g><g><use xlink:href="#fwn3vg3wp" opacity="1" fill="#ffffff" fill-opacity="0.1"></use><g><use xlink:href="#fwn3vg3wp" opacity="1" fill-opacity="0" stroke="#000000" stroke-width="1" stroke-opacity="0"></use></g></g><g><use xlink:href="#a1kUKxlSZo" opacity="1" fill="#ffffff" fill-opacity="1"></use><g><use xlink:href="#a1kUKxlSZo" opacity="1" fill-opacity="0" stroke="#000000" stroke-width="1" stroke-opacity="0"></use></g></g><g><use xlink:href="#ba4cM6Lhkg" opacity="1" fill="#ffffff" fill-opacity="1"></use><g><use xlink:href="#ba4cM6Lhkg" opacity="1" fill-opacity="0" stroke="#000000" stroke-width="1" stroke-opacity="0"></use></g></g><g><use xlink:href="#daWy5SMxd" opacity="1" fill="#ffffff" fill-opacity="1"></use><g><use xlink:href="#daWy5SMxd" opacity="1" fill-opacity="0" stroke="#000000" stroke-width="1" stroke-opacity="0"></use></g></g><g><use xlink:href="#dd4rednC" opacity="1" fill="#ffffff" fill-opacity="0.1"></use><g><use xlink:href="#dd4rednC" opacity="1" fill-opacity="0" stroke="#000000" stroke-width="1" stroke-opacity="0"></use></g></g><g><use xlink:href="#d3BseD6JuW" opacity="1" fill="#ffffff" fill-opacity="1"></use><g><use xlink:href="#d3BseD6JuW" opacity="1" fill-opacity="0" stroke="#000000" stroke-width="1" stroke-opacity="0"></use></g></g><g><use xlink:href="#d3ADtRkFtT" opacity="1" fill="#ffffff" fill-opacity="1"></use><g><use xlink:href="#d3ADtRkFtT" opacity="1" fill-opacity="0" stroke="#000000" stroke-width="1" stroke-opacity="0"></use></g></g><g><g><use xlink:href="#a7e5MrN95" opacity="1" fill-opacity="0" stroke="#000000" stroke-width="1" stroke-opacity="1"></use></g></g></g></g></svg>