<?xml version="1.0" encoding="UTF-8" standalone="no"?>
<!DOCTYPE svg PUBLIC "-//W3C//DTD SVG 1.1//EN" "http://www.w3.org/Graphics/SVG/1.1/DTD/svg11.dtd">
<svg version="1.1" xmlns="http://www.w3.org/2000/svg" xmlns:xlink="http://www.w3.org/1999/xlink" preserveAspectRatio="xMidYMid meet" viewBox="0 0 44 44" width="44" height="44"><defs><path d="M32 32L32 32C32 27.6 32 25.15 32 24.66C32 21.08 31.23 18.31 27.03 18.31C25.02 18.31 23.66 19.42 23.11 20.47C23.11 20.47 23.09 20.47 23.05 20.47L23.05 18.65L19.07 18.65L19.07 32L23.22 32C23.22 28.03 23.22 25.83 23.22 25.39C23.22 23.65 23.55 21.96 25.7 21.96C27.83 21.96 27.86 23.95 27.86 25.5C27.86 25.93 27.86 28.1 27.86 32L32 32L32 32Z" id="c3q8tlLOw"></path><path d="M16.48 18.65L16.48 32L12.33 32L12.33 18.65L16.48 18.65Z" id="arL78tkeX"></path><path d="M12 14.4C12 15.73 13.08 16.83 14.4 16.83C15.73 16.83 16.8 15.73 16.8 14.4C16.8 13.08 15.73 12 14.4 12C14.4 12 14.4 12 14.4 12C12.8 12.72 12 13.52 12 14.4Z" id="beBMpCLG"></path><path d="" id="a7e5MrN95"></path></defs><g><g><g><use xlink:href="#c3q8tlLOw" opacity="1" fill="#ffffff" fill-opacity="1"></use><g><use xlink:href="#c3q8tlLOw" opacity="1" fill-opacity="0" stroke="#000000" stroke-width="1" stroke-opacity="0"></use></g></g><g><use xlink:href="#arL78tkeX" opacity="1" fill="#ffffff" fill-opacity="1"></use><g><use xlink:href="#arL78tkeX" opacity="1" fill-opacity="0" stroke="#000000" stroke-width="1" stroke-opacity="0"></use></g></g><g><use xlink:href="#beBMpCLG" opacity="1" fill="#ffffff" fill-opacity="1"></use><g><use xlink:href="#beBMpCLG" opacity="1" fill-opacity="0" stroke="#000000" stroke-width="1" stroke-opacity="0"></use></g></g><g><g><use xlink:href="#a7e5MrN95" opacity="1" fill-opacity="0" stroke="#000000" stroke-width="1" stroke-opacity="1"></use></g></g></g></g></svg>