<svg xmlns="http://www.w3.org/2000/svg" width="640" height="1024"><path fill="#757575" d="M1580.09 481.562h166.246v97.125H1580.09v189.441h-103.251V578.687h-167.13v-97.125h167.13V304.375h103.251v177.187zm388.046-16.624h64.749c32.666-.292 58.477-8.75 77.434-25.375 19.251-16.625 28.877-40.687 28.877-72.188 0-30.333-8.019-53.812-24.064-70.437-15.75-16.916-39.955-25.375-72.621-25.375-28.582 0-52.063 8.313-70.438 24.938-18.374 16.333-27.565 37.771-27.565 64.313h-106.31c0-32.667 8.602-62.417 25.811-89.251 17.498-26.833 41.709-47.687 72.627-62.563 31.206-15.166 66.061-22.749 104.563-22.749 63.578 0 113.453 16.042 149.619 48.125 36.461 31.791 54.689 76.125 54.689 133 0 28.584-9.185 55.563-27.558 80.938-18.086 25.084-41.562 44.042-70.438 56.875 35.002 11.958 61.542 30.771 79.622 56.438 18.374 25.667 27.565 56.292 27.565 91.873 0 57.171-19.686 102.669-59.066 136.506-39.078 33.83-90.56 50.746-154.432 50.746-61.254 0-111.418-16.333-150.502-48.998s-58.624-76.127-58.624-130.374h106.31c0 28.001 9.331 50.752 28.001 68.25 18.957 17.498 44.333 26.246 76.127 26.246 32.954 0 58.913-8.749 77.875-26.246 18.957-17.498 28.435-42.874 28.435-76.129 0-33.539-9.914-59.352-29.747-77.435s-49.293-27.125-88.378-27.125h-62.561v-83.999zM2773.55 363c0 31.208-8.019 59.062-24.058 83.562-16.045 24.208-37.919 43.313-65.626 57.313 33.249 15.458 58.771 36.604 76.563 63.437 18.079 26.833 27.123 57.167 27.123 90.998 0 56-18.957 100.48-56.877 133.44-37.914 32.666-88.371 48.998-151.373 48.998-63.29 0-114.042-16.479-152.25-49.434-37.919-32.96-56.877-77.293-56.877-133.005 0-34.123 9.043-64.748 27.123-91.873 18.086-27.125 43.462-47.98 76.127-62.563-27.418-14-49.146-33.105-65.19-57.313-15.75-24.5-23.622-52.354-23.622-83.562 0-54.25 17.498-97.271 52.499-129.063s82.253-47.687 141.754-47.687c59.789 0 107.187 15.896 142.182 47.687 35.002 31.792 52.499 74.813 52.499 129.063zm-92.307 290.062c0-31.5-9.485-56.875-28.442-76.125-18.662-19.542-43.456-29.313-74.374-29.313s-55.706 9.625-74.374 28.875c-18.374 19.25-27.565 44.771-27.565 76.563 0 31.206 9.043 56.147 27.13 74.81 18.374 18.669 43.603 28.001 75.686 28.001s57.018-9.037 74.81-27.123c18.086-18.081 27.13-43.309 27.13-75.686zm-13.568-286.124c0-27.708-8.019-50.458-24.058-68.25-16.045-18.083-37.626-27.125-64.749-27.125-27.13 0-48.563 8.604-64.314 25.812-15.75 16.917-23.629 40.104-23.629 69.563 0 29.167 7.878 52.354 23.629 69.562 16.038 17.208 37.626 25.812 64.749 25.812s48.563-8.604 64.314-25.812c16.038-17.208 24.058-40.396 24.058-69.562zm888.097 196.874c0 91.586-17.21 160.706-51.629 207.375-34.125 46.374-86.189 69.562-156.186 69.562-68.831 0-120.749-22.605-155.75-67.814-34.707-45.498-52.499-112.723-53.376-201.684v-110.25c0-91.583 17.062-160.271 51.187-206.062 34.419-45.793 86.771-68.687 157.062-68.687 69.709 0 121.626 22.312 155.75 66.937 34.419 44.625 52.065 111.417 52.941 200.375v110.25zm-106.318-118.999c0-59.792-8.166-103.542-24.499-131.251-16.333-28.001-42.291-42-77.875-42-34.707 0-60.23 13.271-76.563 39.812-16.333 26.25-24.934 67.375-25.811 123.375v144.375c0 59.5 8.314 103.832 24.941 133.003 16.621 29.165 42.726 43.745 78.31 43.745 34.125 0 59.354-13.414 75.686-40.25 16.333-27.123 24.934-69.414 25.811-126.872V444.813zm519.731 120.749C3933.607 603.187 3892.039 622 3844.5 622c-56 0-100.627-19.542-133.875-58.625-33.247-39.375-49.875-91-49.875-154.875 0-42 8.461-80.062 25.377-114.188s40.979-60.666 72.186-79.625c31.213-18.958 67.379-28.437 108.499-28.437 64.166 0 115.066 23.916 152.691 71.75s56.435 111.854 56.435 192.063v29.75c0 114.916-25.958 202.562-77.875 262.94-51.917 60.371-129.35 90.995-232.314 91.871h-12.685v-87.936h15.309c62.714-.877 110.835-15.898 144.378-45.062 33.542-29.459 52.352-74.813 56.435-136.063zm-102.375-26.687c21.293 0 41.274-6.125 59.942-18.375 18.662-12.25 33.101-29.167 43.309-50.75v-41.562c0-46.958-9.626-84.729-28.877-113.313-19.245-28.583-44.186-42.875-74.81-42.875s-55.123 12.687-73.498 38.063c-18.086 25.083-27.13 56.875-27.13 95.375 0 39.958 9.19 72.188 27.565 96.687s42.874 36.75 73.498 36.75zm658.862-346.938v87.938h-13.126c-59.501.875-107.041 17.208-142.623 49s-56.73 76.854-63.437 135.188c34.125-35.875 77.729-53.812 130.81-53.812 56.294 0 100.627 19.833 132.998 59.5 32.673 39.667 49.005 90.854 49.005 153.563 0 64.751-19.105 117.251-57.311 157.5-37.921 39.955-87.795 59.937-149.626 59.937-63.585 0-115.213-23.475-154.874-70.438-39.379-46.957-59.066-108.499-59.066-184.623v-36.313c0-111.708 27.123-199.208 81.377-262.5 54.541-63.292 132.851-94.938 234.938-94.938h10.938zM4411.483 496c-23.334 0-44.767 6.563-64.314 19.688-19.251 13.125-33.395 30.625-42.438 52.5v32.375c0 47.252 9.92 84.877 29.754 112.877 19.834 27.706 45.498 41.562 76.998 41.562s56.435-11.814 74.81-35.437c18.381-23.629 27.565-54.687 27.565-93.19s-9.331-69.854-28.001-94.063S4442.401 496 4411.483 496zm839.526 336h-105.875V320.563l-156.186 53.375v-89.687l248.499-91.437h13.562v639.187zm527.168 0h-105.875V320.563l-156.186 53.375v-89.687l248.499-91.437h13.562v639.187zm527.175 0h-105.875V320.563l-156.186 53.375v-89.687l248.499-91.437h13.562v639.187zm768.211 0h-105.856V320.563l-156.224 53.375v-89.687l248.512-91.437h13.568v639.187zm527.168 0h-105.856V320.563l-156.224 53.375v-89.687l248.512-91.437h13.568v639.187zm768.192 0h-105.856V320.563l-156.16 53.375v-89.687l248.512-91.437h13.504v639.187zm527.168 0h-105.856V320.563l-156.16 53.375v-89.687l248.512-91.437h13.504v639.187zM543.963 0h-448c-52.938 0-96 43.062-96 96v832c0 52.941 43.062 96 96 96h448c52.938 0 96-43.059 96-96V96c0-52.938-43.062-96-96-96zm-448 64h448c17.656 0 32 14.344 32 32v672h-512V96c0-17.656 14.344-32 32-32zm448 896h-448c-17.656 0-32-14.342-32-32v-96h512v96c0 17.658-14.344 32-32 32z"/><path fill="#757575" d="M150.59 879.29c12.497 11.674 12.497 30.592 0 42.259-12.497 11.674-32.757 11.674-45.254 0-12.497-11.667-12.497-30.586 0-42.259 12.497-11.667 32.757-11.667 45.254 0z"/></svg>